<svg width="54" height="58" viewBox="0 0 54 58" fill="none" xmlns="http://www.w3.org/2000/svg">
<path d="M30.6572 29.1689C28.4572 32.6341 26.4099 42.0609 25.6613 46.3411C23.3968 47.1958 19.0712 48.0162 19.8848 44.4607C20.9017 40.0162 21.6556 37.7564 19.358 36.1368C17.0605 34.5172 12.2398 31.0521 13.4828 30.4118C14.7257 29.7715 17.9648 32.3703 18.3414 31.7677C18.7181 31.1651 13.7837 25.666 16.1189 24.8751C18.4541 24.0841 19.4334 27.5869 20.0737 28.9805C20.714 30.3741 21.6556 32.6716 23.7648 31.7677C25.8741 30.8637 26.3644 26.1557 25.3474 23.5191C24.3305 20.8826 22.07 16.5512 24.4429 16.0615C26.8158 15.5719 25.8742 19.4137 27.3432 19.263C28.8122 19.1124 27.7575 14.329 26.0626 11.7301C24.3677 9.13123 25.5729 1.74896 27.3432 1.86195C29.1134 1.97495 28.1341 4.0465 28.6238 6.57003C29.1134 9.09357 29.9044 8.0767 31.1096 4.53622C32.3149 0.995747 34.2358 -0.586107 35.5164 0.543833C36.797 1.67377 34.2358 9.50802 33.7838 11.0146C33.3318 12.5211 34.7254 12.6341 36.8347 11.0146C38.9439 9.39506 38.6426 4.53619 40.2621 4.79985C41.8817 5.0635 41.6181 7.70009 40.2621 11.0146C38.9062 14.3291 35.2151 14.7057 33.4072 15.4966C31.5993 16.2876 31.2979 17.6812 31.1096 19.7151C30.9213 21.7489 30.2433 24.4608 32.5785 24.5738C34.9138 24.6868 36.9853 16.4382 38.6426 18.2461C40.2998 20.054 36.119 24.6114 37.475 25.666C38.8309 26.7206 40.1868 28.7922 38.9815 28.7546C37.7763 28.7169 33.4072 24.8375 30.6572 29.1689Z" fill="url(#paint0_linear_1051_66)" stroke="#CE544F" stroke-width="0.367515"/>
<path d="M34.2386 36.2316C31.9269 36.1593 26.9233 45.1727 24.7105 49.6884C23.5522 51.9644 15.8865 44.5823 21.1625 42.5385C26.4384 40.4947 35.0415 31.2357 35.6594 28.7545C36.2773 26.2732 33.7974 21.5441 35.4057 21.1184C37.014 20.6927 37.4397 23.4126 37.889 24.7843C38.3384 26.1561 39.181 27.6158 39.5727 26.4584C39.9644 25.3011 42.4571 22.5057 42.5996 20.7786C42.742 19.0514 41.3532 17.6982 41.1574 16.1492C40.9615 14.6001 42.2969 10.5049 43.383 11.0212C44.4691 11.5376 43.3118 16.0423 43.5433 16.7724C43.7747 17.5024 45.1279 17.805 45.7333 16.3806C46.3387 14.9562 47.229 9.11608 49.4012 10.1844C51.5735 11.2527 48.2973 17.1997 48.9917 17.9473C49.6861 18.6949 50.9681 17.5024 51.8405 16.1492C52.713 14.796 54.078 14.8699 53.0761 17.9473C52.0741 21.0246 47.2823 21.9298 45.4676 23.1491C43.6528 24.3684 38.3529 31.73 38.7798 33.0108C39.2068 34.2915 41.9705 33.1681 44.1051 31.2357C46.2397 29.3034 46.5543 29.2585 46.9138 29.4831L46.919 29.4864C47.2863 29.7159 48.6305 30.5556 45.979 33.4318C43.3148 36.3218 37.1283 36.3219 34.2386 36.2316Z" fill="url(#paint1_linear_1051_66)" stroke="#CE544F" stroke-width="0.367515"/>
<path d="M14.9619 38.3379C16.1088 38.0712 18.7268 37.8558 21.6191 39.3037C23.7195 40.3552 25.9539 42.2787 27.8701 45.6748C30.1361 49.6908 30.4379 52.1336 29.9199 53.6758C29.3993 55.2254 28.0716 55.8002 27.291 56.1348C27.1128 56.2112 26.8333 56.2764 26.4893 56.335C26.1407 56.3943 25.7103 56.4497 25.2207 56.5C24.2414 56.6006 23.0162 56.6849 21.7139 56.7539C19.1086 56.892 16.1866 56.9702 14.291 57H14.2881C10.6178 57 7.80384 56.7883 5.61816 56.0049C3.41906 55.2166 1.86329 53.8519 0.702148 51.5752C0.568322 51.3128 0.461167 51.0488 0.380859 50.7832C-0.289771 48.5649 0.845199 46.3305 2.26855 44.5117C3.69426 42.69 5.46928 41.2133 6.14844 40.5342C6.54964 40.133 7.19471 39.8316 7.93848 39.5938C8.68739 39.3543 9.56116 39.1722 10.4424 39.0234C11.3242 38.8746 12.2203 38.7581 13.0117 38.6514C13.8071 38.5441 14.4912 38.4474 14.9619 38.3379Z" fill="url(#paint2_radial_1051_66)" stroke="#7B483B" stroke-width="0.367515"/>
<g filter="url(#filter0_f_1051_66)">
<path fill-rule="evenodd" clip-rule="evenodd" d="M27.2171 55.9653C25.9638 56.5022 18.0737 56.7557 14.2866 56.8153C7.0181 56.8153 3.21804 55.9816 0.929688 51.6199C2.45574 50.2745 4.91493 48.5647 6.75825 48.8025C7.97565 48.9595 7.83926 49.6646 7.6957 50.4093C7.50907 51.3711 7.31096 52.3992 9.99555 52.3992C14.7618 52.3992 24.5626 46.5545 22.5844 45.0258C22.3332 44.8316 22.0216 44.6112 21.6843 44.3724C19.4347 42.7774 16.0265 40.3618 21.4718 39.436L21.535 39.4674C23.5994 40.5009 25.8088 42.3968 27.7081 45.764C32.2274 53.7729 28.7819 55.2941 27.2171 55.9653Z" fill="url(#paint3_linear_1051_66)"/>
</g>
<g filter="url(#filter1_f_1051_66)">
<ellipse cx="9.42084" cy="43.2362" rx="2.99755" ry="1.25424" transform="rotate(-21.8045 9.42084 43.2362)" fill="#E0C9BB"/>
</g>
<defs>
<filter id="filter0_f_1051_66" x="0.194657" y="38.701" width="30.4935" height="18.8495" filterUnits="userSpaceOnUse" color-interpolation-filters="sRGB">
<feFlood flood-opacity="0" result="BackgroundImageFix"/>
<feBlend mode="normal" in="SourceGraphic" in2="BackgroundImageFix" result="shape"/>
<feGaussianBlur stdDeviation="0" result="effect1_foregroundBlur_1051_66"/>
</filter>
<filter id="filter1_f_1051_66" x="3.65753" y="38.6849" width="11.5248" height="9.10241" filterUnits="userSpaceOnUse" color-interpolation-filters="sRGB">
<feFlood flood-opacity="0" result="BackgroundImageFix"/>
<feBlend mode="normal" in="SourceGraphic" in2="BackgroundImageFix" result="shape"/>
<feGaussianBlur stdDeviation="1.47006" result="effect1_foregroundBlur_1051_66"/>
</filter>
<linearGradient id="paint0_linear_1051_66" x1="27.3307" y1="0.183594" x2="27.3307" y2="39.0867" gradientUnits="userSpaceOnUse">
<stop stop-color="#EC7571"/>
<stop offset="1" stop-color="#CE544F"/>
</linearGradient>
<linearGradient id="paint1_linear_1051_66" x1="48.6066" y1="10.0547" x2="33.786" y2="36.3789" gradientUnits="userSpaceOnUse">
<stop stop-color="#EC7571"/>
<stop offset="1" stop-color="#CE544F"/>
</linearGradient>
<radialGradient id="paint2_radial_1051_66" cx="0" cy="0" r="1" gradientUnits="userSpaceOnUse" gradientTransform="translate(9.779 41.8999) rotate(67.4027) scale(14.005 18.2192)">
<stop stop-color="#C3A490"/>
<stop offset="1" stop-color="#96665A"/>
</radialGradient>
<linearGradient id="paint3_linear_1051_66" x1="13.6167" y1="41.1652" x2="23.2153" y2="56.0147" gradientUnits="userSpaceOnUse">
<stop stop-color="#96665A" stop-opacity="0"/>
<stop offset="1" stop-color="#7B483B"/>
</linearGradient>
</defs>
</svg>
