<svg width="22" height="22" viewBox="0 0 22 22" fill="none" xmlns="http://www.w3.org/2000/svg">
<path d="M11.3394 14.8466C11.4888 14.7344 11.6765 14.676 11.8761 14.6519C12.0768 14.6277 12.3021 14.6361 12.5377 14.666C13.4733 14.7849 14.6862 15.2618 15.5116 15.6589C15.5716 15.6879 15.6121 15.7466 15.6181 15.813C15.624 15.8792 15.5945 15.9439 15.5407 15.983C15.0488 16.3398 13.9331 17.2129 13.3668 17.8733C13.1843 18.0861 13.0022 18.268 12.8124 18.3582C12.7129 18.4055 12.6043 18.431 12.4897 18.4178C12.3751 18.4047 12.2712 18.3552 12.1779 18.2796C11.9988 18.1344 11.8385 17.8779 11.6764 17.5233C11.5116 17.1629 11.3345 16.6755 11.1323 16.0422C10.9618 15.5077 11.0154 15.0899 11.3394 14.8466Z" fill="#FFF8F6" stroke="#B46F65" stroke-width="0.378795" stroke-linejoin="round"/>
<path d="M14.8358 11.6493C14.7109 11.7882 14.6362 11.97 14.5945 12.1667C14.5526 12.3645 14.541 12.5896 14.55 12.8269C14.5857 13.7694 14.9535 15.0196 15.2762 15.8769C15.2997 15.9393 15.3546 15.9848 15.4202 15.9966C15.4857 16.0083 15.5527 15.9848 15.5965 15.9346C15.9953 15.4761 16.9636 14.442 17.6715 13.9363C17.8996 13.7734 18.0969 13.608 18.2035 13.4269C18.2593 13.332 18.2943 13.2261 18.2914 13.1108C18.2884 12.9955 18.2483 12.8876 18.1813 12.788C18.0525 12.5967 17.8111 12.4144 17.4723 12.2216C17.1279 12.0256 16.658 11.8061 16.045 11.5487C15.5278 11.3316 15.1069 11.3481 14.8358 11.6493Z" fill="#FFF8F6" stroke="#B46F65" stroke-width="0.378795" stroke-linejoin="round"/>
<path d="M5.79241 5.27804C6.51459 4.61711 7.3901 4.72525 8.03245 4.798C8.21816 4.81916 8.38144 4.83783 8.52685 4.84063C8.67278 4.84343 8.78362 4.82965 8.86679 4.79694L8.93874 4.76418C9.10534 4.67758 9.27018 4.52264 9.47084 4.33016C9.8542 3.96256 10.3533 3.46942 11.1193 3.61311C11.3137 3.64957 11.4899 3.68991 11.6514 3.72722L12.1238 3.82832C12.2705 3.85348 12.4101 3.86841 12.5534 3.8667C12.8615 3.86244 13.1993 3.7819 13.6547 3.53392C14.297 3.184 15.073 3.28513 15.7146 3.95347C16.3453 4.61066 16.8465 5.81017 17.0285 7.67161C17.2107 9.53217 17.0972 11.3977 16.8259 12.902C16.6902 13.6541 16.5136 14.3199 16.3137 14.8521C16.1165 15.3774 15.8879 15.7965 15.6326 16.0301C15.3773 16.2637 14.9396 16.4544 14.3989 16.6045C13.8511 16.7566 13.1724 16.8735 12.4112 16.9423C10.8887 17.0797 9.0205 17.0277 7.18339 16.6817C5.3452 16.3359 4.19483 15.7307 3.59594 15.0443C2.98698 14.3462 2.95415 13.5649 3.3594 12.9561C3.63441 12.543 3.74644 12.2241 3.78291 11.9304C3.8201 11.6307 3.78057 11.3443 3.72903 10.9776C3.70615 10.8136 3.68153 10.6343 3.6624 10.4376C3.58698 9.66177 4.12303 9.20766 4.52308 8.85829C4.76226 8.64949 4.94811 8.48284 5.0407 8.29852L5.06781 8.23267C5.09174 8.16148 5.10668 8.07292 5.11428 7.96378C5.12438 7.81869 5.12017 7.65442 5.11552 7.46754L5.11624 7.46688C5.10055 6.82065 5.06984 5.93943 5.79241 5.27804Z" fill="url(#paint0_linear_1031_173)" stroke="#B46F65" stroke-width="0.378795"/>
<g filter="url(#filter0_f_1031_173)">
<path d="M15.265 4.76981C14.207 3.56762 13.0642 4.5294 12.9377 4.64505C13.0018 4.92345 15.5655 13.387 16.0757 11.8033C16.586 10.2195 16.323 5.972 15.265 4.76981Z" fill="url(#paint1_linear_1031_173)"/>
</g>
<g filter="url(#filter1_f_1031_173)">
<path d="M12.2438 4.8819C12.847 5.4255 13.9583 9.88711 13.7188 10.0853C13.4073 10.6654 9.92528 5.80264 9.7222 5.41957C9.51911 5.03649 10.1069 4.43542 10.508 4.32116C10.9092 4.2069 11.6405 4.33831 12.2438 4.8819Z" fill="url(#paint2_linear_1031_173)"/>
</g>
<g filter="url(#filter2_f_1031_173)">
<path d="M9.69 6.901C11.3617 8.40544 12.8751 11.0028 12.5943 11.3862C11.7695 12.6258 7.07397 9.1371 5.97665 7.5179C5.89076 7.39117 5.51113 6.1107 6.3451 5.66353C7.17908 5.21635 8.01828 5.39655 9.69 6.901Z" fill="url(#paint3_linear_1031_173)"/>
</g>
<g filter="url(#filter3_f_1031_173)">
<path d="M4.86584 11.9695C5.39571 12.3274 9.64094 13.6258 11.6973 14.2302C13.0749 13.9303 12.8226 13.2495 12.5243 12.9467C9.42981 11.8678 6.70254 9.17178 5.72572 7.95861C5.77077 8.92881 4.79985 9.73306 4.53611 9.97444C4.27236 10.2158 4.20352 11.522 4.86584 11.9695Z" fill="url(#paint4_linear_1031_173)"/>
</g>
<g filter="url(#filter4_f_1031_173)">
<path d="M5.89852 15.3235C3.56142 14.4281 3.85473 13.2174 4.25512 13.0626C8.23995 14.8031 12.9373 14.8872 12.5703 15.223C12.2034 15.5588 8.23562 16.219 5.89852 15.3235Z" fill="url(#paint5_linear_1031_173)"/>
</g>
<g filter="url(#filter5_f_1031_173)">
<path d="M6.80343 8.68358C7.53618 9.58863 9.30694 11.0685 10.0023 11.1315C11.3747 11.2557 6.35673 7.59501 6.80343 8.68358Z" fill="#FFF7F6"/>
</g>
<g filter="url(#filter6_f_1031_173)">
<path d="M13.2745 6.3394C12.9449 5.60071 12.2764 4.74831 11.9833 4.41445C11.7078 4.2511 12.6856 4.31369 12.8058 4.36617C12.9261 4.41865 12.9768 4.98357 13.1509 5.52551C13.3382 6.10896 13.6866 7.26278 13.2745 6.3394Z" fill="#FFF7F6"/>
</g>
<g filter="url(#filter7_f_1031_173)">
<path d="M9.7887 6.83003C10.2314 7.46494 11.184 8.70187 11.4529 8.57022C11.789 8.40566 9.31026 5.99413 9.7887 6.83003Z" fill="#FFF7F6"/>
</g>
<g filter="url(#filter8_f_1031_173)">
<path d="M9.14355 3.22943L12.323 6.28692L14.4242 5.07195L13.0282 7.05753L15.7927 10.4948L12.6133 7.43728L10.5121 8.65226L11.908 6.66667L9.14355 3.22943Z" fill="#FFF7F6"/>
</g>
<defs>
<filter id="filter0_f_1031_173" x="12.6961" y="3.92999" width="3.87352" height="8.312" filterUnits="userSpaceOnUse" color-interpolation-filters="sRGB">
<feFlood flood-opacity="0" result="BackgroundImageFix"/>
<feBlend mode="normal" in="SourceGraphic" in2="BackgroundImageFix" result="shape"/>
<feGaussianBlur stdDeviation="0.120724" result="effect1_foregroundBlur_1031_173"/>
</filter>
<filter id="filter1_f_1031_173" x="9.43824" y="4.04181" width="4.55712" height="6.33299" filterUnits="userSpaceOnUse" color-interpolation-filters="sRGB">
<feFlood flood-opacity="0" result="BackgroundImageFix"/>
<feBlend mode="normal" in="SourceGraphic" in2="BackgroundImageFix" result="shape"/>
<feGaussianBlur stdDeviation="0.120724" result="effect1_foregroundBlur_1031_173"/>
</filter>
<filter id="filter2_f_1031_173" x="5.57496" y="5.20782" width="7.2954" height="6.68114" filterUnits="userSpaceOnUse" color-interpolation-filters="sRGB">
<feFlood flood-opacity="0" result="BackgroundImageFix"/>
<feBlend mode="normal" in="SourceGraphic" in2="BackgroundImageFix" result="shape"/>
<feGaussianBlur stdDeviation="0.120724" result="effect1_foregroundBlur_1031_173"/>
</filter>
<filter id="filter3_f_1031_173" x="4.10621" y="7.7171" width="8.89305" height="6.75438" filterUnits="userSpaceOnUse" color-interpolation-filters="sRGB">
<feFlood flood-opacity="0" result="BackgroundImageFix"/>
<feBlend mode="normal" in="SourceGraphic" in2="BackgroundImageFix" result="shape"/>
<feGaussianBlur stdDeviation="0.120724" result="effect1_foregroundBlur_1031_173"/>
</filter>
<filter id="filter4_f_1031_173" x="3.73902" y="12.8211" width="9.09227" height="3.19432" filterUnits="userSpaceOnUse" color-interpolation-filters="sRGB">
<feFlood flood-opacity="0" result="BackgroundImageFix"/>
<feBlend mode="normal" in="SourceGraphic" in2="BackgroundImageFix" result="shape"/>
<feGaussianBlur stdDeviation="0.120724" result="effect1_foregroundBlur_1031_173"/>
</filter>
<filter id="filter5_f_1031_173" x="5.80764" y="7.51522" width="5.40034" height="4.58491" filterUnits="userSpaceOnUse" color-interpolation-filters="sRGB">
<feFlood flood-opacity="0" result="BackgroundImageFix"/>
<feBlend mode="normal" in="SourceGraphic" in2="BackgroundImageFix" result="shape"/>
<feGaussianBlur stdDeviation="0.482897" result="effect1_foregroundBlur_1031_173"/>
</filter>
<filter id="filter6_f_1031_173" x="11.4507" y="3.82624" width="2.50095" height="3.34177" filterUnits="userSpaceOnUse" color-interpolation-filters="sRGB">
<feFlood flood-opacity="0" result="BackgroundImageFix"/>
<feBlend mode="normal" in="SourceGraphic" in2="BackgroundImageFix" result="shape"/>
<feGaussianBlur stdDeviation="0.241448" result="effect1_foregroundBlur_1031_173"/>
</filter>
<filter id="filter7_f_1031_173" x="9.24367" y="6.17145" width="2.72361" height="2.89158" filterUnits="userSpaceOnUse" color-interpolation-filters="sRGB">
<feFlood flood-opacity="0" result="BackgroundImageFix"/>
<feBlend mode="normal" in="SourceGraphic" in2="BackgroundImageFix" result="shape"/>
<feGaussianBlur stdDeviation="0.241448" result="effect1_foregroundBlur_1031_173"/>
</filter>
<filter id="filter8_f_1031_173" x="8.90308" y="2.9881" width="7.13133" height="7.74803" filterUnits="userSpaceOnUse" color-interpolation-filters="sRGB">
<feFlood flood-opacity="0" result="BackgroundImageFix"/>
<feBlend mode="normal" in="SourceGraphic" in2="BackgroundImageFix" result="shape"/>
<feGaussianBlur stdDeviation="0.120724" result="effect1_foregroundBlur_1031_173"/>
</filter>
<linearGradient id="paint0_linear_1031_173" x1="5.9201" y1="5.418" x2="15.5042" y2="15.8903" gradientUnits="userSpaceOnUse">
<stop stop-color="#EDC2C9"/>
<stop offset="1" stop-color="#FFE5E9"/>
</linearGradient>
<linearGradient id="paint1_linear_1031_173" x1="13.4959" y1="4.64711" x2="17.5948" y2="10.8777" gradientUnits="userSpaceOnUse">
<stop stop-color="#D5A7AA"/>
<stop offset="1" stop-color="#D5A7AA" stop-opacity="0"/>
</linearGradient>
<linearGradient id="paint2_linear_1031_173" x1="10.6559" y1="4.04442" x2="15.5761" y2="6.91024" gradientUnits="userSpaceOnUse">
<stop stop-color="#D5A7AA"/>
<stop offset="1" stop-color="#D5A7AA" stop-opacity="0"/>
</linearGradient>
<linearGradient id="paint3_linear_1031_173" x1="5.68204" y1="7.05727" x2="12.1343" y2="6.67279" gradientUnits="userSpaceOnUse">
<stop stop-color="#D5A7AA"/>
<stop offset="1" stop-color="#D5A7AA" stop-opacity="0"/>
</linearGradient>
<linearGradient id="paint4_linear_1031_173" x1="3.83527" y1="10.5631" x2="12.3113" y2="10.7051" gradientUnits="userSpaceOnUse">
<stop stop-color="#D5A7AA"/>
<stop offset="1" stop-color="#D5A7AA" stop-opacity="0"/>
</linearGradient>
<linearGradient id="paint5_linear_1031_173" x1="4.16196" y1="13.8243" x2="13.6063" y2="14.9541" gradientUnits="userSpaceOnUse">
<stop stop-color="#D5A7AA"/>
<stop offset="1" stop-color="#D5A7AA" stop-opacity="0"/>
</linearGradient>
</defs>
</svg>
