<svg width="23" height="20" viewBox="0 0 23 20" fill="none" xmlns="http://www.w3.org/2000/svg">
<path d="M7.9668 14.5093C8.21237 14.5332 8.44712 14.6448 8.66309 14.7993C8.87996 14.9545 9.09133 15.1629 9.29395 15.4019C10.099 16.3513 10.8549 17.8958 11.3047 19.0181C11.3374 19.0998 11.3249 19.1932 11.2715 19.2632C11.2181 19.333 11.1322 19.3697 11.0449 19.3599C10.248 19.2688 8.38414 19.1258 7.24414 19.2642C6.87675 19.3088 6.53667 19.323 6.27148 19.2417C6.13251 19.1991 6.00418 19.1271 5.9043 19.0122C5.80431 18.8972 5.74806 18.756 5.72461 18.5991C5.67963 18.2982 5.75114 17.9061 5.90918 17.4165C6.0699 16.9187 6.3317 16.2856 6.69922 15.4888C7.0094 14.8164 7.43441 14.4575 7.9668 14.5093Z" fill="#FFF8F6" stroke="#B46F65" stroke-width="0.5" stroke-linejoin="round"/>
<path d="M14.2168 14.5093C13.9712 14.5332 13.7365 14.6448 13.5205 14.7993C13.3036 14.9545 13.0923 15.1629 12.8896 15.4019C12.0846 16.3513 11.3287 17.8958 10.8789 19.0181C10.8462 19.0998 10.8587 19.1932 10.9121 19.2632C10.9654 19.333 11.0514 19.3697 11.1387 19.3599C11.9356 19.2688 13.7995 19.1258 14.9395 19.2642C15.3068 19.3088 15.6469 19.323 15.9121 19.2417C16.0511 19.1991 16.1794 19.1271 16.2793 19.0122C16.3793 18.8972 16.4355 18.756 16.459 18.5991C16.504 18.2982 16.4325 17.9061 16.2744 17.4165C16.1137 16.9187 15.8519 16.2856 15.4844 15.4888C15.1742 14.8164 14.7492 14.4575 14.2168 14.5093Z" fill="#FFF8F6" stroke="#B46F65" stroke-width="0.5" stroke-linejoin="round"/>
<path d="M11.0938 0.25C12.3856 0.250092 13.1416 1.1351 13.7021 1.77832V1.7793C13.8641 1.96541 14.0074 2.12843 14.1465 2.26074C14.286 2.39343 14.4055 2.47924 14.5156 2.52148L14.6143 2.55273C14.8538 2.6171 15.1523 2.61311 15.5195 2.60449C16.2204 2.58818 17.1467 2.55248 17.7646 3.375C17.9214 3.58373 18.0567 3.78072 18.1807 3.96094V3.96191C18.4439 4.34605 18.6533 4.6483 18.9355 4.90039C19.2393 5.17065 19.6395 5.39331 20.3037 5.55762C21.2409 5.78925 21.9054 6.57922 21.9346 7.80176C21.9633 9.0038 21.3833 10.6187 19.9014 12.5938C18.4208 14.5678 16.6477 16.2828 15.043 17.5059C14.2406 18.1174 13.4755 18.6091 12.8066 18.9492C12.1465 19.2849 11.5505 19.4882 11.0937 19.4883C10.6369 19.4883 10.0403 19.285 9.37988 18.9492C8.7109 18.6091 7.94609 18.1174 7.14355 17.5059C5.5385 16.2828 3.7657 14.5678 2.28516 12.5938C0.80312 10.6186 0.222292 9.00385 0.250977 7.80176C0.280163 6.57924 0.944625 5.78927 1.88184 5.55762C2.51793 5.40038 2.91174 5.19006 3.20898 4.93652C3.51211 4.67787 3.72937 4.36379 4.00586 3.96094L4.20117 3.67871C4.26996 3.5809 4.34255 3.4793 4.4209 3.375C5.03882 2.55237 5.96513 2.58818 6.66602 2.60449C7.08536 2.61433 7.41536 2.61855 7.66992 2.52148C7.78011 2.47922 7.90042 2.39349 8.04004 2.26074C8.17907 2.12853 8.32152 1.96527 8.4834 1.7793C9.04409 1.13598 9.80032 0.25 11.0938 0.25Z" fill="url(#paint0_linear_1031_106)" stroke="#B46F65" stroke-width="0.5"/>
<g filter="url(#filter0_f_1031_106)">
<path d="M20.7681 8.19448C20.8093 6.08104 18.8393 5.99909 18.6131 5.99902C18.4275 6.32725 13.3815 16.8532 15.2897 15.7658C17.1978 14.6783 20.727 10.3079 20.7681 8.19448Z" fill="url(#paint1_linear_1031_106)"/>
</g>
<g filter="url(#filter1_f_1031_106)">
<path d="M17.7275 5.60939C17.8304 6.67629 14.9366 12.0111 14.5267 11.9907C13.7065 12.278 14.6493 4.43982 14.793 3.88583C14.9366 3.33183 16.0446 3.27035 16.537 3.51657C17.0295 3.76278 17.6245 4.54248 17.7275 5.60939Z" fill="url(#paint2_linear_1031_106)"/>
</g>
<g filter="url(#filter2_f_1031_106)">
<path d="M13.4431 5.30197C13.7303 8.25667 12.8893 12.1345 12.2741 12.2576C10.3664 12.7295 8.90309 5.14807 9.27754 2.5935C9.30685 2.39356 10.0783 0.808396 11.2889 1.11617C12.4994 1.42394 13.156 2.34727 13.4431 5.30197Z" fill="url(#paint3_linear_1031_106)"/>
</g>
<g filter="url(#filter3_f_1031_106)">
<path d="M4.22752 5.93762C4.42447 6.75836 7.4012 11.8058 8.86494 14.2269C10.4737 15.1625 10.8347 14.2748 10.8141 13.714C8.76224 9.90584 8.50918 4.85016 8.63913 2.79834C7.8184 3.78322 6.15626 3.70111 5.68434 3.70111C5.21242 3.70111 3.98132 4.91169 4.22752 5.93762Z" fill="url(#paint4_linear_1031_106)"/>
</g>
<g filter="url(#filter4_f_1031_106)">
<path d="M2.24084 10.1234C0.763103 7.16874 2.12757 6.25128 2.6554 6.45737C4.98457 11.7032 9.48363 15.9712 8.82704 15.9712C8.17046 15.9712 3.71857 13.0781 2.24084 10.1234Z" fill="url(#paint5_linear_1031_106)"/>
</g>
<g filter="url(#filter5_f_1031_106)">
<path d="M9.04144 4.46567C8.9484 5.99995 9.35386 9.01899 9.9749 9.69998C11.2005 11.0439 9.57654 3.00761 9.04144 4.46567Z" fill="#FFF7F6"/>
</g>
<g filter="url(#filter6_f_1031_106)">
<path d="M17.4334 7.95066C17.7707 6.9376 17.8793 5.51185 17.8915 4.9256C17.7688 4.52102 18.6651 5.45329 18.7355 5.61158C18.8058 5.76986 18.3518 6.36515 18.0383 7.04796C17.7008 7.78306 17.0117 9.21698 17.4334 7.95066Z" fill="#FFF7F6"/>
</g>
<g filter="url(#filter7_f_1031_106)">
<path d="M13.5973 5.31918C13.4625 6.33193 13.2879 8.3853 13.667 8.49674C14.141 8.63605 13.8763 4.07886 13.5973 5.31918Z" fill="#FFF7F6"/>
</g>
<g filter="url(#filter8_f_1031_106)">
<path d="M16.1797 1.23828L16.5509 7.04885L19.6797 7.73828L16.5509 8.42771L16.1797 14.2383L15.8085 8.42771L12.6797 7.73828L15.8085 7.04885L16.1797 1.23828Z" fill="#FFF7F6"/>
</g>
<defs>
<filter id="filter0_f_1031_106" x="14.5407" y="5.68032" width="6.54757" height="10.4831" filterUnits="userSpaceOnUse" color-interpolation-filters="sRGB">
<feFlood flood-opacity="0" result="BackgroundImageFix"/>
<feBlend mode="normal" in="SourceGraphic" in2="BackgroundImageFix" result="shape"/>
<feGaussianBlur stdDeviation="0.159353" result="effect1_foregroundBlur_1031_106"/>
</filter>
<filter id="filter1_f_1031_106" x="13.8766" y="3.0602" width="4.17257" height="9.25704" filterUnits="userSpaceOnUse" color-interpolation-filters="sRGB">
<feFlood flood-opacity="0" result="BackgroundImageFix"/>
<feBlend mode="normal" in="SourceGraphic" in2="BackgroundImageFix" result="shape"/>
<feGaussianBlur stdDeviation="0.159353" result="effect1_foregroundBlur_1031_106"/>
</filter>
<filter id="filter2_f_1031_106" x="8.90004" y="0.757954" width="4.91866" height="11.8396" filterUnits="userSpaceOnUse" color-interpolation-filters="sRGB">
<feFlood flood-opacity="0" result="BackgroundImageFix"/>
<feBlend mode="normal" in="SourceGraphic" in2="BackgroundImageFix" result="shape"/>
<feGaussianBlur stdDeviation="0.159353" result="effect1_foregroundBlur_1031_106"/>
</filter>
<filter id="filter3_f_1031_106" x="3.87661" y="2.47963" width="7.25851" height="12.4748" filterUnits="userSpaceOnUse" color-interpolation-filters="sRGB">
<feFlood flood-opacity="0" result="BackgroundImageFix"/>
<feBlend mode="normal" in="SourceGraphic" in2="BackgroundImageFix" result="shape"/>
<feGaussianBlur stdDeviation="0.159353" result="effect1_foregroundBlur_1031_106"/>
</filter>
<filter id="filter4_f_1031_106" x="1.25551" y="6.11098" width="7.95382" height="10.1789" filterUnits="userSpaceOnUse" color-interpolation-filters="sRGB">
<feFlood flood-opacity="0" result="BackgroundImageFix"/>
<feBlend mode="normal" in="SourceGraphic" in2="BackgroundImageFix" result="shape"/>
<feGaussianBlur stdDeviation="0.159353" result="effect1_foregroundBlur_1031_106"/>
</filter>
<filter id="filter5_f_1031_106" x="7.75252" y="3.01326" width="3.94418" height="8.11361" filterUnits="userSpaceOnUse" color-interpolation-filters="sRGB">
<feFlood flood-opacity="0" result="BackgroundImageFix"/>
<feBlend mode="normal" in="SourceGraphic" in2="BackgroundImageFix" result="shape"/>
<feGaussianBlur stdDeviation="0.637412" result="effect1_foregroundBlur_1031_106"/>
</filter>
<filter id="filter6_f_1031_106" x="16.6634" y="4.1873" width="2.71623" height="4.90422" filterUnits="userSpaceOnUse" color-interpolation-filters="sRGB">
<feFlood flood-opacity="0" result="BackgroundImageFix"/>
<feBlend mode="normal" in="SourceGraphic" in2="BackgroundImageFix" result="shape"/>
<feGaussianBlur stdDeviation="0.318706" result="effect1_foregroundBlur_1031_106"/>
</filter>
<filter id="filter7_f_1031_106" x="12.8001" y="4.46757" width="1.7631" height="4.66984" filterUnits="userSpaceOnUse" color-interpolation-filters="sRGB">
<feFlood flood-opacity="0" result="BackgroundImageFix"/>
<feBlend mode="normal" in="SourceGraphic" in2="BackgroundImageFix" result="shape"/>
<feGaussianBlur stdDeviation="0.318706" result="effect1_foregroundBlur_1031_106"/>
</filter>
<filter id="filter8_f_1031_106" x="12.361" y="0.919575" width="7.63741" height="13.6374" filterUnits="userSpaceOnUse" color-interpolation-filters="sRGB">
<feFlood flood-opacity="0" result="BackgroundImageFix"/>
<feBlend mode="normal" in="SourceGraphic" in2="BackgroundImageFix" result="shape"/>
<feGaussianBlur stdDeviation="0.159353" result="effect1_foregroundBlur_1031_106"/>
</filter>
<linearGradient id="paint0_linear_1031_106" x1="11.0929" y1="0.5" x2="11.0929" y2="19.2383" gradientUnits="userSpaceOnUse">
<stop stop-color="#EDC2C9"/>
<stop offset="1" stop-color="#FFE5E9"/>
</linearGradient>
<linearGradient id="paint1_linear_1031_106" x1="19.1548" y1="6.49841" x2="17.5936" y2="16.2183" gradientUnits="userSpaceOnUse">
<stop stop-color="#D5A7AA"/>
<stop offset="1" stop-color="#D5A7AA" stop-opacity="0"/>
</linearGradient>
<linearGradient id="paint2_linear_1031_106" x1="16.9277" y1="3.37891" x2="19.1648" y2="10.5541" gradientUnits="userSpaceOnUse">
<stop stop-color="#D5A7AA"/>
<stop offset="1" stop-color="#D5A7AA" stop-opacity="0"/>
</linearGradient>
<linearGradient id="paint3_linear_1031_106" x1="9.40117" y1="1.88243" x2="16.0266" y2="7.25798" gradientUnits="userSpaceOnUse">
<stop stop-color="#D5A7AA"/>
<stop offset="1" stop-color="#D5A7AA" stop-opacity="0"/>
</linearGradient>
<linearGradient id="paint4_linear_1031_106" x1="4.47729" y1="3.64979" x2="12.6042" y2="11.3415" gradientUnits="userSpaceOnUse">
<stop stop-color="#D5A7AA"/>
<stop offset="1" stop-color="#D5A7AA" stop-opacity="0"/>
</linearGradient>
<linearGradient id="paint5_linear_1031_106" x1="1.88592" y1="7.11601" x2="10.0754" y2="16.6326" gradientUnits="userSpaceOnUse">
<stop stop-color="#D5A7AA"/>
<stop offset="1" stop-color="#D5A7AA" stop-opacity="0"/>
</linearGradient>
</defs>
</svg>
