<svg width="30" height="17" viewBox="0 0 30 17" fill="none" xmlns="http://www.w3.org/2000/svg">
<path d="M8.7627 1.854C12.9136 -0.0435348 16.0917 0.00249638 18.4619 0.835449C20.8239 1.66561 22.3429 3.26313 23.209 4.39795C23.6079 4.9206 24.1872 5.4051 24.8379 5.90771C25.478 6.4022 26.1905 6.91595 26.8018 7.4751C27.4154 8.03638 27.9564 8.66842 28.25 9.42041C28.5472 10.1821 28.581 11.0439 28.2227 12.0405C27.9169 12.8907 27.1647 13.5166 26.2178 13.979C25.2662 14.4436 24.0758 14.7639 22.8223 14.98C20.3136 15.4123 17.4886 15.4386 15.6514 15.3306V15.3296C14.3063 15.329 12.0928 15.2628 9.79199 15.061C7.48666 14.8589 5.0712 14.5205 3.35449 13.9722C2.22771 13.6123 1.45653 12.8966 1.09473 11.9497C0.735895 11.0104 0.793849 9.88026 1.24316 8.70361C2.14115 6.35217 4.62357 3.74619 8.7627 1.854Z" fill="url(#paint0_radial_1031_198)" stroke="#7B483B" stroke-width="0.574887"/>
<g filter="url(#filter0_f_1031_198)">
<path fill-rule="evenodd" clip-rule="evenodd" d="M27.9528 11.9429C26.8749 14.938 19.3138 15.2577 15.6691 15.0433C12.9967 15.0433 6.81222 14.7741 3.44149 13.6979C1.53717 13.0896 0.793863 11.4289 1.30587 9.4457C1.9616 9.02015 2.6106 8.75067 3.1518 8.78941C3.78058 8.83433 4.67884 9.08303 5.72532 9.37272C8.13041 10.0377 11.3148 10.9183 13.7827 10.0442C15.193 9.54479 16.0643 8.55418 16.9064 7.59837C18.1797 6.15245 19.3834 4.78625 22.2735 5.3196C22.8664 5.42907 23.4705 5.54472 24.0723 5.66346C24.4002 5.93743 24.755 6.20635 25.112 6.47807C26.9512 7.87683 28.8847 9.34774 27.9528 11.9429Z" fill="url(#paint1_linear_1031_198)"/>
</g>
<defs>
<filter id="filter0_f_1031_198" x="-0.00133729" y="4.05189" width="29.3464" height="12.1946" filterUnits="userSpaceOnUse" color-interpolation-filters="sRGB">
<feFlood flood-opacity="0" result="BackgroundImageFix"/>
<feBlend mode="normal" in="SourceGraphic" in2="BackgroundImageFix" result="shape"/>
<feGaussianBlur stdDeviation="0" result="effect1_foregroundBlur_1031_198"/>
</filter>
<radialGradient id="paint0_radial_1031_198" cx="0" cy="0" r="1" gradientTransform="matrix(4.91935 10.1562 -15.3761 5.49898 9.75205 3.3803)" gradientUnits="userSpaceOnUse">
<stop stop-color="#C3A490"/>
<stop offset="1" stop-color="#96665A"/>
</radialGradient>
<linearGradient id="paint1_linear_1031_198" x1="12.9716" y1="6.18615" x2="17.0668" y2="16.556" gradientUnits="userSpaceOnUse">
<stop stop-color="#96665A" stop-opacity="0"/>
<stop offset="1" stop-color="#7B483B"/>
</linearGradient>
</defs>
</svg>
