<svg width="32" height="51" viewBox="0 0 32 51" fill="none" xmlns="http://www.w3.org/2000/svg">
<path d="M13.9293 34.3375C13.3964 37.4794 15.9054 41.1767 17.2265 42.6326L22.0593 42.7211C19.5747 41.3162 15.7842 37.1813 20.4987 31.8804C26.3918 25.2543 24.3722 21.5785 22.9517 15.6528C21.8154 10.9123 23.8588 4.13676 25.0226 1.34155C14.8264 8.07317 18.0588 22.5842 18.1012 25.0706C18.1437 27.557 14.5955 30.41 13.9293 34.3375Z" fill="url(#paint0_linear_1051_65)" stroke="#668877" stroke-width="0.351256" stroke-linejoin="round"/>
<g filter="url(#filter0_f_1051_65)">
<path d="M21.1869 19.2359C19.8209 13.8903 21.0123 7.23525 20.6536 6.9275C16.5258 13.0925 18.3038 23.6411 18.4696 24.8687C18.6355 26.0963 18.0255 27.0616 17.1419 28.3114C16.2583 29.5613 14.1446 33.1642 14.2151 35.4582C14.2855 37.7522 17.0062 38.4642 16.9958 36.4236C16.9854 34.383 17.4762 31.2823 20.5677 28.6178C23.6592 25.9534 22.5528 24.5815 21.1869 19.2359Z" fill="url(#paint1_linear_1051_65)"/>
</g>
<path d="M8.3814 39.3958C9.58349 41.1797 9.14593 42.7238 8.77688 43.2729C9.33369 43.8993 10.5784 44.7694 11.1028 43.2388C11.7582 41.3256 11.6475 40.2432 11.1843 39.2332C10.7211 38.2231 8.98594 35.5771 11.7768 32.6095C14.5676 29.6419 17.2747 24.9024 15.0931 19.8987C13.3478 15.8957 13.568 12.9703 13.8962 12.008C10.0847 16.7178 10.6494 18.9132 11.074 23.4484C11.4986 27.9836 10.1828 27.5546 8.13161 31.2111C6.0804 34.8676 6.87879 37.1659 8.3814 39.3958Z" fill="url(#paint2_linear_1051_65)" stroke="#668877" stroke-width="0.351256" stroke-linejoin="round"/>
<g filter="url(#filter1_f_1051_65)">
<path d="M13.5943 21.6245C12.2457 17.9608 12.9543 15.1808 13.2461 13.6211C12.403 14.5067 11.182 17.1403 11.0771 18.6974C10.9723 20.2544 11.7593 23.3989 11.5258 26.0097C11.2923 28.6205 8.55126 30.4587 7.86514 32.9194C7.17903 35.38 7.99865 36.6321 8.71104 36.9425C9.42343 37.2529 8.73003 34.5867 11.0441 31.3944C13.3582 28.2022 14.818 24.9489 13.5943 21.6245Z" fill="url(#paint3_linear_1051_65)"/>
</g>
<path d="M22.3375 35.2074C21.918 36.4982 20.0962 37.9589 19.2377 38.5279C19.3011 39.8827 20.4251 41.4984 24.4143 37.1227C29.4008 31.6531 30.1709 29.2313 28.9279 26.1104C27.9335 23.6137 27.8397 20.7432 27.9171 19.6201C25.3685 21.8137 24.8506 26.0571 25.2524 27.7536C25.6541 29.45 25.7367 30.4607 25.1892 31.5533C24.6418 32.646 22.8619 33.5938 22.3375 35.2074Z" fill="url(#paint4_linear_1051_65)" stroke="#668877" stroke-width="0.351256" stroke-linejoin="round"/>
<g filter="url(#filter2_f_1051_65)">
<path d="M28.0804 24.2288C27.6399 22.6094 27.8569 20.1858 28.0205 19.1765C25.9932 22.0125 26.1734 24.6984 26.6923 26.6649C27.2113 28.6314 25.7402 30.7674 27.1684 29.7248C28.5966 28.6822 28.6311 26.2531 28.0804 24.2288Z" fill="url(#paint5_linear_1051_65)"/>
</g>
<path d="M12.0879 35.3452C13.0155 35.1295 15.1296 34.956 17.4639 36.1245C19.1592 36.9732 20.9606 38.5253 22.5049 41.2622C24.3291 44.4953 24.5769 46.4697 24.1562 47.7222C23.7331 48.9821 22.6532 49.4482 22.0254 49.7173C21.8787 49.7802 21.651 49.8342 21.374 49.8813C21.0928 49.9292 20.7456 49.9727 20.3516 50.0132C19.563 50.0942 18.5763 50.1617 17.5283 50.2173C15.4315 50.3284 13.0801 50.3915 11.5547 50.4155H11.5518C8.59867 50.4155 6.33083 50.2459 4.56738 49.6138C2.791 48.977 1.53304 47.8744 0.595703 46.0366C0.487268 45.824 0.401051 45.6094 0.335938 45.394C-0.207849 43.5952 0.713138 41.7874 1.85938 40.3228C3.00789 38.8552 4.44061 37.6644 4.98438 37.1206C5.31195 36.7931 5.83532 36.5486 6.43457 36.3569C7.03909 36.1636 7.74444 36.0168 8.4541 35.897C9.16402 35.7771 9.88504 35.683 10.5215 35.5972C11.1617 35.5108 11.7107 35.4329 12.0879 35.3452Z" fill="url(#paint6_radial_1051_65)" stroke="#7B483B" stroke-width="0.351256"/>
<g filter="url(#filter3_f_1051_65)">
<path fill-rule="evenodd" clip-rule="evenodd" d="M21.9597 49.5564C20.9513 49.9884 14.6028 50.1924 11.5557 50.2404C5.70739 50.2404 2.64983 49.5696 0.808594 46.0601C2.03647 44.9776 4.01516 43.6019 5.49832 43.7932C6.47784 43.9195 6.36811 44.4868 6.2526 45.086C6.10244 45.8599 5.94303 46.6871 8.10308 46.6871C11.938 46.6871 19.8239 41.9844 18.2322 40.7544C18.03 40.5981 17.7794 40.4208 17.5079 40.2287C15.6979 38.9453 12.9557 37.0017 17.337 36.2568L17.3878 36.2821C19.0488 37.1136 20.8265 38.6391 22.3547 41.3484C25.991 47.7924 23.2188 49.0164 21.9597 49.5564Z" fill="url(#paint7_linear_1051_65)"/>
</g>
<g filter="url(#filter4_f_1051_65)">
<ellipse cx="7.63759" cy="39.3141" rx="2.41186" ry="1.00917" transform="rotate(-21.8045 7.63759 39.3141)" fill="#E0C9BB"/>
</g>
<defs>
<filter id="filter0_f_1051_65" x="12.8098" y="5.52271" width="11.1499" height="33.5083" filterUnits="userSpaceOnUse" color-interpolation-filters="sRGB">
<feFlood flood-opacity="0" result="BackgroundImageFix"/>
<feBlend mode="normal" in="SourceGraphic" in2="BackgroundImageFix" result="shape"/>
<feGaussianBlur stdDeviation="0.702512" result="effect1_foregroundBlur_1051_65"/>
</filter>
<filter id="filter1_f_1051_65" x="6.5517" y="12.5673" width="8.54113" height="25.4537" filterUnits="userSpaceOnUse" color-interpolation-filters="sRGB">
<feFlood flood-opacity="0" result="BackgroundImageFix"/>
<feBlend mode="normal" in="SourceGraphic" in2="BackgroundImageFix" result="shape"/>
<feGaussianBlur stdDeviation="0.526884" result="effect1_foregroundBlur_1051_65"/>
</filter>
<filter id="filter2_f_1051_65" x="25.6491" y="18.4738" width="3.46362" height="12.2273" filterUnits="userSpaceOnUse" color-interpolation-filters="sRGB">
<feFlood flood-opacity="0" result="BackgroundImageFix"/>
<feBlend mode="normal" in="SourceGraphic" in2="BackgroundImageFix" result="shape"/>
<feGaussianBlur stdDeviation="0.351256" result="effect1_foregroundBlur_1051_65"/>
</filter>
<filter id="filter3_f_1051_65" x="0.106081" y="35.5543" width="24.7566" height="15.3884" filterUnits="userSpaceOnUse" color-interpolation-filters="sRGB">
<feFlood flood-opacity="0" result="BackgroundImageFix"/>
<feBlend mode="normal" in="SourceGraphic" in2="BackgroundImageFix" result="shape"/>
<feGaussianBlur stdDeviation="0" result="effect1_foregroundBlur_1051_65"/>
</filter>
<filter id="filter4_f_1051_65" x="2.55714" y="35.2075" width="10.1631" height="8.21287" filterUnits="userSpaceOnUse" color-interpolation-filters="sRGB">
<feFlood flood-opacity="0" result="BackgroundImageFix"/>
<feBlend mode="normal" in="SourceGraphic" in2="BackgroundImageFix" result="shape"/>
<feGaussianBlur stdDeviation="1.40502" result="effect1_foregroundBlur_1051_65"/>
</filter>
<linearGradient id="paint0_linear_1051_65" x1="21.6955" y1="1.04396" x2="17.9696" y2="42.699" gradientUnits="userSpaceOnUse">
<stop stop-color="#92C9B6"/>
<stop offset="1" stop-color="#6D9D8D"/>
</linearGradient>
<linearGradient id="paint1_linear_1051_65" x1="20.4706" y1="6.91112" x2="17.7093" y2="37.7821" gradientUnits="userSpaceOnUse">
<stop offset="0.526826" stop-color="#C4E3D8"/>
<stop offset="1" stop-color="#C4E3D8" stop-opacity="0"/>
</linearGradient>
<linearGradient id="paint2_linear_1051_65" x1="12.9675" y1="11.9249" x2="10.0906" y2="44.0882" gradientUnits="userSpaceOnUse">
<stop offset="0.241069" stop-color="#92C9B6"/>
<stop offset="1" stop-color="#6D9D8D"/>
</linearGradient>
<linearGradient id="paint3_linear_1051_65" x1="12.2431" y1="13.5314" x2="10.1362" y2="37.0862" gradientUnits="userSpaceOnUse">
<stop offset="0.526826" stop-color="#C4E3D8"/>
<stop offset="1" stop-color="#C4E3D8" stop-opacity="0"/>
</linearGradient>
<linearGradient id="paint4_linear_1051_65" x1="25.6183" y1="19.4145" x2="23.7519" y2="40.2801" gradientUnits="userSpaceOnUse">
<stop stop-color="#92C9B6"/>
<stop offset="1" stop-color="#6D9D8D"/>
</linearGradient>
<linearGradient id="paint5_linear_1051_65" x1="27.9323" y1="19.1686" x2="26.961" y2="30.027" gradientUnits="userSpaceOnUse">
<stop offset="0.526826" stop-color="#C4E3D8"/>
<stop offset="1" stop-color="#C4E3D8" stop-opacity="0"/>
</linearGradient>
<radialGradient id="paint6_radial_1051_65" cx="0" cy="0" r="1" gradientUnits="userSpaceOnUse" gradientTransform="translate(7.9244 38.2387) rotate(67.4027) scale(11.2686 14.6593)">
<stop stop-color="#C3A490"/>
<stop offset="1" stop-color="#96665A"/>
</radialGradient>
<linearGradient id="paint7_linear_1051_65" x1="11.0167" y1="37.6481" x2="18.7398" y2="49.5962" gradientUnits="userSpaceOnUse">
<stop stop-color="#96665A" stop-opacity="0"/>
<stop offset="1" stop-color="#7B483B"/>
</linearGradient>
</defs>
</svg>
