<svg width="49" height="21" viewBox="0 0 49 21" fill="none" xmlns="http://www.w3.org/2000/svg">
<path d="M16.3477 14.9577C16.7654 13.8269 17.8747 11.4073 18.9695 10.7751C20.3379 9.98484 16.5784 14.3988 16.3477 14.9577Z" fill="#BE6662" stroke="#741D14" stroke-width="0.463524" stroke-linejoin="round"/>
<path d="M18.082 14.9577C18.4998 13.8269 19.6091 11.4073 20.7038 10.7751C22.0723 9.98484 18.3128 14.3988 18.082 14.9577Z" fill="#BE6662" stroke="#741D14" stroke-width="0.463524" stroke-linejoin="round"/>
<path d="M20.7031 15.0034C20.7996 13.6542 21.1704 11.0483 22.2651 10.4161C23.6336 9.6259 21.4972 12.513 20.7031 15.0034Z" fill="#BE6662" stroke="#741D14" stroke-width="0.463524" stroke-linejoin="round"/>
<path d="M38.8154 2.29883C39.709 2.21984 41.1564 2.25275 42.6162 2.60449C44.0729 2.95547 45.575 3.63187 46.5352 4.86816C46.5975 4.94841 46.6002 5.0603 46.542 5.14355C46.4838 5.22673 46.3779 5.26238 46.2812 5.23145C45.7116 5.04823 44.7316 4.78847 43.6572 4.6084C42.5795 4.42778 41.4251 4.33068 40.4971 4.46191C40.4234 4.47221 40.3494 4.44628 40.2979 4.39258L38.6689 2.69043C38.6073 2.62605 38.5878 2.53165 38.6191 2.44824C38.6505 2.36488 38.7267 2.3067 38.8154 2.29883Z" fill="url(#paint0_radial_1031_74)" stroke="#741D14" stroke-width="0.463524" stroke-linejoin="round"/>
<path d="M31.4541 0.744141C32.5331 0.565009 34.2878 0.547264 36.0186 0.90918C37.7441 1.27006 39.4938 2.01863 40.5068 3.41016C40.5591 3.4822 40.5657 3.57791 40.5234 3.65625C40.481 3.73478 40.3968 3.7818 40.3076 3.77734C39.5029 3.73709 38.188 3.71182 36.8652 3.7666C35.5348 3.8217 34.2245 3.95771 33.4121 4.22852C32.9339 4.38792 32.5235 4.34076 32.1924 4.12793C31.8722 3.92207 31.6578 3.58141 31.5156 3.21484C31.2319 2.48298 31.1941 1.54229 31.2617 0.946289L31.2822 0.874023C31.3139 0.806433 31.3775 0.756984 31.4541 0.744141Z" fill="url(#paint1_radial_1031_74)" stroke="#741D14" stroke-width="0.463524" stroke-linejoin="round"/>
<path d="M29.0088 0.516113C29.6638 0.279605 30.438 0.161614 31.3047 0.275879C31.9406 0.359586 32.4734 0.558905 32.9131 0.82959C33.6528 1.28503 34.1193 1.93219 34.3828 2.52979C34.5146 2.82857 34.5969 3.11846 34.6377 3.37061C34.6776 3.6173 34.6799 3.84642 34.6357 4.01709C34.6011 4.15058 34.5056 4.29245 34.3994 4.42432C34.2872 4.56373 34.1393 4.72073 33.9678 4.88623C33.6243 5.21767 33.1732 5.59918 32.6904 5.97314C31.7314 6.71602 30.6147 7.4567 29.9502 7.7251C29.7487 7.80645 29.5472 7.77756 29.3682 7.68604C29.1958 7.59791 29.0371 7.44984 28.8926 7.2749C28.6027 6.92392 28.3223 6.40618 28.0654 5.8335C27.5495 4.68321 27.0998 3.24238 26.8428 2.26709C26.8257 2.20219 26.8372 2.13311 26.875 2.07764C27.2217 1.56846 27.9658 0.892612 29.0088 0.516113Z" fill="url(#paint2_radial_1031_74)" stroke="#741D14" stroke-width="0.463524" stroke-linejoin="round"/>
<path d="M23.9541 1.57471C24.7653 1.09079 25.7947 0.80009 26.9336 1.13428C27.6286 1.33824 28.2705 1.69803 28.8271 2.1499C29.6634 2.82871 30.3177 3.72214 30.6787 4.62939C31.0379 5.53231 31.1178 6.4813 30.751 7.24561C30.2822 8.2222 29.4108 8.8863 28.5186 9.3042C27.6265 9.72194 26.6864 9.90674 26.042 9.90674C25.8403 9.90663 25.6531 9.79997 25.4932 9.66846C25.328 9.53269 25.1599 9.34382 24.9932 9.12256C24.6591 8.67923 24.305 8.07327 23.9609 7.41064C23.2714 6.08265 22.6044 4.49211 22.2012 3.43311C22.175 3.36416 22.1836 3.287 22.2236 3.2251C22.5396 2.73799 23.1464 2.05654 23.9541 1.57471Z" fill="url(#paint3_radial_1031_74)" stroke="#741D14" stroke-width="0.463524" stroke-linejoin="round"/>
<g filter="url(#filter0_f_1031_74)">
<path d="M28.6823 2.32985C26.9868 1.5234 25.2899 1.53027 24.0742 1.77353C24.8474 1.31272 25.8088 1.0452 26.8699 1.35641C27.5307 1.5506 28.1464 1.89462 28.6823 2.32985Z" fill="#F19593"/>
</g>
<path d="M21.4873 2.17969C21.9209 2.19823 22.3559 2.30373 22.7734 2.52734C23.2903 2.80416 23.8346 3.20395 24.3555 3.67676C25.3295 4.56046 26.244 5.71849 26.7627 6.84863C27.2744 7.96362 27.436 9.13966 26.7363 9.96582C26.3194 10.4581 25.7168 10.8333 25.0508 11.1152C24.3826 11.3981 23.6356 11.5938 22.915 11.7188C22.1942 11.8438 21.493 11.8988 20.9131 11.8994C20.6231 11.8997 20.3608 11.8865 20.1396 11.8604C19.9225 11.8346 19.7307 11.795 19.5898 11.7363C19.4253 11.6678 19.2996 11.5013 19.2021 11.3369C19.0971 11.1596 18.9933 10.9291 18.8926 10.665C18.6907 10.1356 18.488 9.43983 18.2969 8.68848C17.9141 7.18377 17.5715 5.42906 17.373 4.27246C17.3606 4.19932 17.3837 4.12433 17.4355 4.07129C17.9413 3.55492 18.8611 2.8382 19.915 2.45117C20.4124 2.26858 20.9476 2.15658 21.4873 2.17969Z" fill="url(#paint4_radial_1031_74)" stroke="#741D14" stroke-width="0.463524" stroke-linejoin="round"/>
<path d="M6.88181 10.1807C5.62912 10.1069 2.79919 13.0047 1.44922 15.0919C4.18045 12.7591 5.96095 11.5314 6.6367 11.3472C7.36314 11.6337 8.96336 12.2066 9.5527 12.2066C10.2894 12.2066 12.1004 9.659 11.3637 9.32136C10.7743 9.05124 9.68571 10.2115 9.21506 10.8254C8.95927 10.6412 8.13451 10.2544 6.88181 10.1807Z" fill="#BE6662" stroke="#741D14" stroke-width="0.463524" stroke-linejoin="round"/>
<path d="M15.0293 2.79639L18.0625 2.9126L18.1074 2.91943C18.1224 2.92304 18.1373 2.92753 18.1514 2.93408C19.0721 3.36334 20.5823 4.38906 21.4893 5.88916C21.9667 6.67896 22.2797 7.60596 22.2441 8.64697C22.2118 9.58987 21.9261 10.3251 21.4277 10.8843C20.9323 11.44 20.2445 11.8027 19.4414 12.0347C17.8441 12.4961 15.7185 12.4609 13.5283 12.3384C11.3041 12.2139 8.84433 11.5608 7.00781 10.1499C5.19845 8.75985 4.00777 6.64325 4.23828 3.62842L0.410156 2.69482C0.294566 2.66659 0.218871 2.55485 0.235352 2.43701C0.251885 2.31927 0.354817 2.23328 0.473633 2.23779L15.0293 2.79639Z" fill="url(#paint5_radial_1031_74)" stroke="#741D14" stroke-width="0.463524" stroke-linejoin="round"/>
<circle cx="14.0474" cy="6.6021" r="1.57085" fill="#241619"/>
<circle cx="14.2877" cy="6.14117" r="0.529839" fill="white"/>
<path d="M27.4064 9.10254C26.5549 9.1026 25.0739 9.84931 25.039 10.2061C24.9435 11.1849 26.6566 10.4065 27.408 10.5711C29.4137 12.6329 30.191 14.8628 31.0769 17.2149C30.9394 13.7326 28.2578 9.10247 27.4064 9.10254Z" fill="#BE6662" stroke="#741D14" stroke-width="0.463524" stroke-linejoin="round"/>
<path d="M25.8972 9.19434C25.0457 9.1944 23.7243 10.8246 23.7968 11.1756C23.5947 12.138 25.0161 11.1476 25.7521 10.532C27.912 12.8865 28.1601 16.021 28.0142 17.2939C28.7439 13.84 26.7486 9.19427 25.8972 9.19434Z" fill="#BE6662" stroke="#741D14" stroke-width="0.463524" stroke-linejoin="round"/>
<path d="M23.373 10.97C22.3282 10.6641 21.1095 11.2375 20.5389 11.6097C19.989 12.1272 21.8997 11.9631 22.9238 11.8164C23.5913 13.7345 22.5242 17.1104 21.9072 18.5586C23.2116 17.4269 24.7692 11.3788 23.373 10.97Z" fill="#BE6662" stroke="#741D14" stroke-width="0.463524" stroke-linejoin="round"/>
<path d="M11.621 11.8699C11.2518 11.7336 8.25629 17.6183 6.80469 20.5777L11.8636 13.6698C12.2284 14.2211 13.0846 15.3432 13.5905 15.4211C14.2229 15.5184 17.166 10.1672 15.7796 9.77805C14.6705 9.46672 13.8581 12.2428 13.5905 13.6698C13.0879 13.1266 11.9902 12.0061 11.621 11.8699Z" fill="#BE6662" stroke="#741D14" stroke-width="0.463524" stroke-linejoin="round"/>
<path d="M37.5576 3.50391C43.9972 3.14616 47.2552 6.71471 48.5693 8.2666C48.6336 8.34244 48.6421 8.45101 48.5908 8.53613C48.5395 8.62123 48.4398 8.6639 48.3428 8.64258C47.063 8.36032 45.5665 8.52543 44.9834 8.64355C44.9087 8.65861 44.8312 8.63595 44.7764 8.58301C42.7408 6.61655 40.4878 5.20161 37.4814 3.94922C37.3817 3.90766 37.3236 3.80281 37.3418 3.69629C37.3601 3.58986 37.4498 3.5099 37.5576 3.50391Z" fill="url(#paint6_radial_1031_74)" stroke="#741D14" stroke-width="0.463524" stroke-linejoin="round"/>
<g filter="url(#filter1_f_1031_74)">
<path d="M27.2461 4.76449C27.55 4.47583 28.2079 3.93044 28.4085 4.05811C28.6092 4.18578 27.7172 4.58223 27.2461 4.76449Z" fill="#F19593"/>
</g>
<g filter="url(#filter2_f_1031_74)">
<path d="M24.4199 5.97088C24.1225 6.32359 23.1046 6.69031 22.6328 6.82958C23.1346 6.87264 24.2643 6.85845 24.7689 6.45718C25.3997 5.95559 24.7917 5.53 24.4199 5.97088Z" fill="#F19593"/>
</g>
<g filter="url(#filter3_f_1031_74)">
<path d="M21.2898 6.00932C20.381 4.96326 19.6928 4.19747 18.0524 3.61585C16.8455 3.18796 16.1934 3.14465 15.0195 3.02832L18.0524 3.14465C18.9468 3.56088 20.4134 4.5599 21.2898 6.00932Z" fill="#F19593"/>
</g>
<g filter="url(#filter4_f_1031_74)">
<path d="M19.3805 7.33304C19.2094 8.11502 17.7508 8.4225 17.043 8.4785C21.395 8.70746 21.0301 7.33304 20.6177 6.81378C20.2054 6.29451 19.5944 6.35558 19.3805 7.33304Z" fill="#F19593"/>
</g>
<g filter="url(#filter5_f_1031_74)">
<path d="M24.2004 3.84913C22.7243 3.02377 21.1911 2.72354 19.9961 2.66882C20.8561 2.35286 21.7995 2.26889 22.665 2.73196C23.1611 2.99768 23.6898 3.38561 24.2004 3.84913Z" fill="#F19593"/>
</g>
<g filter="url(#filter6_f_1031_74)">
<path d="M32.7905 1.0273C31.5756 0.589387 30.1621 0.597048 29.0859 0.7342C29.7088 0.509228 30.4457 0.396289 31.2732 0.50538C31.8761 0.584822 32.3795 0.77494 32.7905 1.0273Z" fill="#F19593"/>
</g>
<g filter="url(#filter7_f_1031_74)">
<path d="M31.957 2.67068C32.1899 2.45038 32.7439 2.0318 33.0964 2.11992C33.4488 2.20803 32.4837 2.52381 31.957 2.67068Z" fill="#F19593"/>
</g>
<g filter="url(#filter8_f_1031_74)">
<path d="M36.7498 2.0474C37.0617 1.9731 37.7507 1.88764 38.0119 2.14023C38.273 2.39281 37.2793 2.18359 36.7498 2.0474Z" fill="#F19593"/>
</g>
<defs>
<filter id="filter0_f_1031_74" x="23.6107" y="0.758643" width="5.53642" height="2.03496" filterUnits="userSpaceOnUse" color-interpolation-filters="sRGB">
<feFlood flood-opacity="0" result="BackgroundImageFix"/>
<feBlend mode="normal" in="SourceGraphic" in2="BackgroundImageFix" result="shape"/>
<feGaussianBlur stdDeviation="0.231762" result="effect1_foregroundBlur_1031_74"/>
</filter>
<filter id="filter1_f_1031_74" x="26.7826" y="3.57554" width="2.11846" height="1.65263" filterUnits="userSpaceOnUse" color-interpolation-filters="sRGB">
<feFlood flood-opacity="0" result="BackgroundImageFix"/>
<feBlend mode="normal" in="SourceGraphic" in2="BackgroundImageFix" result="shape"/>
<feGaussianBlur stdDeviation="0.231762" result="effect1_foregroundBlur_1031_74"/>
</filter>
<filter id="filter2_f_1031_74" x="22.1693" y="5.3231" width="3.33721" height="1.98662" filterUnits="userSpaceOnUse" color-interpolation-filters="sRGB">
<feFlood flood-opacity="0" result="BackgroundImageFix"/>
<feBlend mode="normal" in="SourceGraphic" in2="BackgroundImageFix" result="shape"/>
<feGaussianBlur stdDeviation="0.231762" result="effect1_foregroundBlur_1031_74"/>
</filter>
<filter id="filter3_f_1031_74" x="14.556" y="2.5648" width="7.19658" height="3.90801" filterUnits="userSpaceOnUse" color-interpolation-filters="sRGB">
<feFlood flood-opacity="0" result="BackgroundImageFix"/>
<feBlend mode="normal" in="SourceGraphic" in2="BackgroundImageFix" result="shape"/>
<feGaussianBlur stdDeviation="0.231762" result="effect1_foregroundBlur_1031_74"/>
</filter>
<filter id="filter4_f_1031_74" x="16.5794" y="6.0272" width="4.73564" height="2.94023" filterUnits="userSpaceOnUse" color-interpolation-filters="sRGB">
<feFlood flood-opacity="0" result="BackgroundImageFix"/>
<feBlend mode="normal" in="SourceGraphic" in2="BackgroundImageFix" result="shape"/>
<feGaussianBlur stdDeviation="0.231762" result="effect1_foregroundBlur_1031_74"/>
</filter>
<filter id="filter5_f_1031_74" x="19.5326" y="1.94468" width="5.13017" height="2.36797" filterUnits="userSpaceOnUse" color-interpolation-filters="sRGB">
<feFlood flood-opacity="0" result="BackgroundImageFix"/>
<feBlend mode="normal" in="SourceGraphic" in2="BackgroundImageFix" result="shape"/>
<feGaussianBlur stdDeviation="0.231762" result="effect1_foregroundBlur_1031_74"/>
</filter>
<filter id="filter6_f_1031_74" x="28.6224" y="-0.000145584" width="4.63017" height="1.49101" filterUnits="userSpaceOnUse" color-interpolation-filters="sRGB">
<feFlood flood-opacity="0" result="BackgroundImageFix"/>
<feBlend mode="normal" in="SourceGraphic" in2="BackgroundImageFix" result="shape"/>
<feGaussianBlur stdDeviation="0.231762" result="effect1_foregroundBlur_1031_74"/>
</filter>
<filter id="filter7_f_1031_74" x="31.4935" y="1.64439" width="2.14189" height="1.49004" filterUnits="userSpaceOnUse" color-interpolation-filters="sRGB">
<feFlood flood-opacity="0" result="BackgroundImageFix"/>
<feBlend mode="normal" in="SourceGraphic" in2="BackgroundImageFix" result="shape"/>
<feGaussianBlur stdDeviation="0.231762" result="effect1_foregroundBlur_1031_74"/>
</filter>
<filter id="filter8_f_1031_74" x="36.2865" y="1.50767" width="2.23174" height="1.21465" filterUnits="userSpaceOnUse" color-interpolation-filters="sRGB">
<feFlood flood-opacity="0" result="BackgroundImageFix"/>
<feBlend mode="normal" in="SourceGraphic" in2="BackgroundImageFix" result="shape"/>
<feGaussianBlur stdDeviation="0.231762" result="effect1_foregroundBlur_1031_74"/>
</filter>
<radialGradient id="paint0_radial_1031_74" cx="0" cy="0" r="1" gradientTransform="matrix(5.78379 3.06935 -9.23165 9.15119 38.8359 2.24774)" gradientUnits="userSpaceOnUse">
<stop stop-color="#DC918C"/>
<stop offset="0.778923" stop-color="#A64846"/>
</radialGradient>
<radialGradient id="paint1_radial_1031_74" cx="0" cy="0" r="1" gradientTransform="matrix(-0.163918 4.60729 -12.52 0.186627 36.243 0.851562)" gradientUnits="userSpaceOnUse">
<stop offset="0.328641" stop-color="#A64846"/>
<stop offset="1" stop-color="#DC918C"/>
</radialGradient>
<radialGradient id="paint2_radial_1031_74" cx="0" cy="0" r="1" gradientTransform="matrix(0.772739 7.11186 -7.65359 -0.678795 30.7515 1.71195)" gradientUnits="userSpaceOnUse">
<stop offset="0.297595" stop-color="#A64846"/>
<stop offset="1" stop-color="#DC918C"/>
</radialGradient>
<radialGradient id="paint3_radial_1031_74" cx="0" cy="0" r="1" gradientTransform="matrix(1.64761 8.01431 -8.35744 -0.0864377 25.8149 3.19274)" gradientUnits="userSpaceOnUse">
<stop offset="0.297595" stop-color="#A64846"/>
<stop offset="1" stop-color="#DC918C"/>
</radialGradient>
<radialGradient id="paint4_radial_1031_74" cx="0" cy="0" r="1" gradientTransform="matrix(0.982627 8.88395 -9.30635 -0.888112 22.2876 4.46275)" gradientUnits="userSpaceOnUse">
<stop offset="0.297595" stop-color="#A64846"/>
<stop offset="1" stop-color="#DC918C"/>
</radialGradient>
<radialGradient id="paint5_radial_1031_74" cx="0" cy="0" r="1" gradientUnits="userSpaceOnUse" gradientTransform="translate(14.6573 4.4431) rotate(96.9446) scale(9.57459 21.2351)">
<stop offset="0.297595" stop-color="#A64846"/>
<stop offset="1" stop-color="#DC918C"/>
</radialGradient>
<radialGradient id="paint6_radial_1031_74" cx="0" cy="0" r="1" gradientTransform="matrix(8.24815 6.00691 -13.1651 17.9095 37.6771 3.00907)" gradientUnits="userSpaceOnUse">
<stop stop-color="#DC918C"/>
<stop offset="0.778923" stop-color="#A64846"/>
</radialGradient>
</defs>
</svg>
