<svg width="49" height="21" viewBox="0 0 49 21" fill="none" xmlns="http://www.w3.org/2000/svg">
<path d="M32.5078 14.9577C32.09 13.8269 30.9808 11.4073 29.886 10.7751C28.5176 9.98484 32.277 14.3988 32.5078 14.9577Z" fill="#BE6662" stroke="#741D14" stroke-width="0.463524" stroke-linejoin="round"/>
<path d="M30.7734 14.9577C30.3557 13.8269 29.2464 11.4073 28.1516 10.7751C26.7832 9.98484 30.5426 14.3988 30.7734 14.9577Z" fill="#BE6662" stroke="#741D14" stroke-width="0.463524" stroke-linejoin="round"/>
<path d="M28.1523 15.0034C28.0559 13.6542 27.6851 11.0483 26.5903 10.4161C25.2219 9.6259 27.3583 12.513 28.1523 15.0034Z" fill="#BE6662" stroke="#741D14" stroke-width="0.463524" stroke-linejoin="round"/>
<path d="M10.04 2.29883C9.14646 2.21984 7.6991 2.25275 6.23926 2.60449C4.78257 2.95547 3.28046 3.63187 2.32031 4.86816C2.25799 4.94841 2.25524 5.0603 2.31348 5.14355C2.37171 5.22673 2.47754 5.26238 2.57422 5.23145C3.1439 5.04823 4.12387 4.78847 5.19824 4.6084C6.27599 4.42778 7.43036 4.33068 8.3584 4.46191C8.43208 4.47221 8.50612 4.44628 8.55762 4.39258L10.1865 2.69043C10.2481 2.62605 10.2677 2.53165 10.2363 2.44824C10.205 2.36488 10.1288 2.3067 10.04 2.29883Z" fill="url(#paint0_radial_1031_272)" stroke="#741D14" stroke-width="0.463524" stroke-linejoin="round"/>
<path d="M17.4014 0.744141C16.3224 0.565009 14.5676 0.547264 12.8369 0.90918C11.1114 1.27006 9.36168 2.01863 8.34863 3.41016C8.29641 3.4822 8.2898 3.57791 8.33203 3.65625C8.3745 3.73478 8.45868 3.7818 8.54785 3.77734C9.35261 3.73709 10.6675 3.71182 11.9902 3.7666C13.3207 3.8217 14.6309 3.95771 15.4434 4.22852C15.9216 4.38792 16.332 4.34076 16.6631 4.12793C16.9832 3.92207 17.1977 3.58141 17.3398 3.21484C17.6236 2.48298 17.6614 1.54229 17.5938 0.946289L17.5732 0.874023C17.5416 0.806433 17.478 0.756984 17.4014 0.744141Z" fill="url(#paint1_radial_1031_272)" stroke="#741D14" stroke-width="0.463524" stroke-linejoin="round"/>
<path d="M19.8467 0.516113C19.1917 0.279605 18.4175 0.161614 17.5508 0.275879C16.9149 0.359586 16.3821 0.558905 15.9424 0.82959C15.2027 1.28503 14.7362 1.93219 14.4727 2.52979C14.3409 2.82857 14.2586 3.11846 14.2178 3.37061C14.1779 3.6173 14.1755 3.84642 14.2197 4.01709C14.2543 4.15058 14.3499 4.29245 14.4561 4.42432C14.5683 4.56373 14.7162 4.72073 14.8877 4.88623C15.2312 5.21767 15.6823 5.59918 16.165 5.97314C17.1241 6.71602 18.2408 7.4567 18.9053 7.7251C19.1067 7.80645 19.3082 7.77756 19.4873 7.68604C19.6596 7.59791 19.8184 7.44984 19.9629 7.2749C20.2528 6.92392 20.5331 6.40618 20.79 5.8335C21.306 4.68321 21.7556 3.24238 22.0127 2.26709C22.0298 2.20219 22.0182 2.13311 21.9805 2.07764C21.6337 1.56846 20.8897 0.892612 19.8467 0.516113Z" fill="url(#paint2_radial_1031_272)" stroke="#741D14" stroke-width="0.463524" stroke-linejoin="round"/>
<path d="M24.9014 1.57471C24.0901 1.09079 23.0607 0.80009 21.9219 1.13428C21.2269 1.33824 20.585 1.69803 20.0283 2.1499C19.1921 2.82871 18.5377 3.72214 18.1768 4.62939C17.8175 5.53231 17.7376 6.4813 18.1045 7.24561C18.5733 8.2222 19.4447 8.8863 20.3369 9.3042C21.2289 9.72194 22.1691 9.90674 22.8135 9.90674C23.0152 9.90663 23.2023 9.79997 23.3623 9.66846C23.5274 9.53269 23.6956 9.34382 23.8623 9.12256C24.1964 8.67923 24.5504 8.07327 24.8945 7.41064C25.5841 6.08265 26.251 4.49211 26.6543 3.43311C26.6804 3.36416 26.6719 3.287 26.6318 3.2251C26.3159 2.73799 25.709 2.05654 24.9014 1.57471Z" fill="url(#paint3_radial_1031_272)" stroke="#741D14" stroke-width="0.463524" stroke-linejoin="round"/>
<g filter="url(#filter0_f_1031_272)">
<path d="M20.1732 2.32985C21.8686 1.5234 23.5655 1.53027 24.7812 1.77353C24.0081 1.31272 23.0467 1.0452 21.9856 1.35641C21.3247 1.5506 20.7091 1.89462 20.1732 2.32985Z" fill="#F19593"/>
</g>
<path d="M27.3682 2.17969C26.9346 2.19823 26.4995 2.30373 26.082 2.52734C25.5652 2.80416 25.0208 3.20395 24.5 3.67676C23.526 4.56046 22.6114 5.71849 22.0928 6.84863C21.5811 7.96362 21.4194 9.13966 22.1191 9.96582C22.5361 10.4581 23.1386 10.8333 23.8047 11.1152C24.4729 11.3981 25.2199 11.5938 25.9404 11.7188C26.6612 11.8438 27.3624 11.8988 27.9424 11.8994C28.2323 11.8997 28.4947 11.8865 28.7158 11.8604C28.933 11.8346 29.1248 11.795 29.2656 11.7363C29.4302 11.6678 29.5559 11.5013 29.6533 11.3369C29.7584 11.1596 29.8622 10.9291 29.9629 10.665C30.1648 10.1356 30.3674 9.43983 30.5586 8.68848C30.9414 7.18377 31.284 5.42906 31.4824 4.27246C31.4948 4.19932 31.4718 4.12433 31.4199 4.07129C30.9142 3.55492 29.9944 2.8382 28.9404 2.45117C28.4431 2.26858 27.9079 2.15658 27.3682 2.17969Z" fill="url(#paint4_radial_1031_272)" stroke="#741D14" stroke-width="0.463524" stroke-linejoin="round"/>
<path d="M41.9737 10.1807C43.2264 10.1069 46.0563 13.0047 47.4062 15.0919C44.675 12.7591 42.8945 11.5314 42.2188 11.3472C41.4923 11.6337 39.8921 12.2066 39.3028 12.2066C38.5661 12.2066 36.7551 9.659 37.4918 9.32136C38.0811 9.05124 39.1698 10.2115 39.6404 10.8254C39.8962 10.6412 40.721 10.2544 41.9737 10.1807Z" fill="#BE6662" stroke="#741D14" stroke-width="0.463524" stroke-linejoin="round"/>
<path d="M33.8262 2.79639L30.793 2.9126L30.748 2.91943C30.733 2.92304 30.7182 2.92753 30.7041 2.93408C29.7833 3.36334 28.2731 4.38906 27.3662 5.88916C26.8887 6.67896 26.5757 7.60596 26.6113 8.64697C26.6436 9.58987 26.9294 10.3251 27.4277 10.8843C27.9231 11.44 28.611 11.8027 29.4141 12.0347C31.0113 12.4961 33.137 12.4609 35.3271 12.3384C37.5513 12.2139 40.0111 11.5608 41.8477 10.1499C43.657 8.75985 44.8477 6.64325 44.6172 3.62842L48.4453 2.69482C48.5609 2.66659 48.6366 2.55485 48.6201 2.43701C48.6036 2.31927 48.5007 2.23328 48.3818 2.23779L33.8262 2.79639Z" fill="url(#paint5_radial_1031_272)" stroke="#741D14" stroke-width="0.463524" stroke-linejoin="round"/>
<circle cx="1.57085" cy="1.57085" r="1.57085" transform="matrix(-1 0 0 1 36.3789 5.03125)" fill="#241619"/>
<circle cx="0.529839" cy="0.529839" r="0.529839" transform="matrix(-1 0 0 1 35.0977 5.61133)" fill="white"/>
<path d="M21.4491 9.10254C22.3005 9.1026 23.7816 9.84931 23.8164 10.2061C23.912 11.1849 22.1988 10.4065 21.4475 10.5711C19.4418 12.6329 18.6645 14.8628 17.7786 17.2149C17.9161 13.7326 20.5976 9.10247 21.4491 9.10254Z" fill="#BE6662" stroke="#741D14" stroke-width="0.463524" stroke-linejoin="round"/>
<path d="M22.9583 9.19434C23.8098 9.1944 25.1312 10.8246 25.0587 11.1756C25.2608 12.138 23.8393 11.1476 23.1033 10.532C20.9434 12.8865 20.6954 16.021 20.8413 17.2939C20.1116 13.84 22.1068 9.19427 22.9583 9.19434Z" fill="#BE6662" stroke="#741D14" stroke-width="0.463524" stroke-linejoin="round"/>
<path d="M25.4825 10.97C26.5273 10.6641 27.746 11.2375 28.3166 11.6097C28.8665 12.1272 26.9558 11.9631 25.9316 11.8164C25.2641 13.7345 26.3312 17.1104 26.9482 18.5586C25.6439 17.4269 24.0863 11.3788 25.4825 10.97Z" fill="#BE6662" stroke="#741D14" stroke-width="0.463524" stroke-linejoin="round"/>
<path d="M37.2345 11.8699C37.6037 11.7336 40.5992 17.6183 42.0508 20.5777L36.9919 13.6698C36.627 14.2211 35.7709 15.3432 35.2649 15.4211C34.6325 15.5184 31.6894 10.1672 33.0758 9.77805C34.185 9.46672 34.9974 12.2428 35.2649 13.6698C35.7676 13.1266 36.8653 12.0061 37.2345 11.8699Z" fill="#BE6662" stroke="#741D14" stroke-width="0.463524" stroke-linejoin="round"/>
<path d="M11.2979 3.50391C4.85828 3.14616 1.60027 6.71471 0.286133 8.2666C0.221915 8.34244 0.213405 8.45101 0.264648 8.53613C0.315964 8.62123 0.415651 8.6639 0.512695 8.64258C1.79246 8.36032 3.28894 8.52543 3.87207 8.64355C3.94676 8.65861 4.0243 8.63595 4.0791 8.58301C6.11472 6.61655 8.36763 5.20161 11.374 3.94922C11.4738 3.90766 11.5319 3.80281 11.5137 3.69629C11.4954 3.58986 11.4057 3.5099 11.2979 3.50391Z" fill="url(#paint6_radial_1031_272)" stroke="#741D14" stroke-width="0.463524" stroke-linejoin="round"/>
<g filter="url(#filter1_f_1031_272)">
<path d="M21.6094 4.76449C21.3055 4.47583 20.6476 3.93044 20.4469 4.05811C20.2463 4.18578 21.1383 4.58223 21.6094 4.76449Z" fill="#F19593"/>
</g>
<g filter="url(#filter2_f_1031_272)">
<path d="M24.4356 5.97088C24.733 6.32359 25.7509 6.69031 26.2227 6.82958C25.7209 6.87264 24.5912 6.85845 24.0866 6.45718C23.4558 5.95559 24.0638 5.53 24.4356 5.97088Z" fill="#F19593"/>
</g>
<g filter="url(#filter3_f_1031_272)">
<path d="M27.5657 6.00932C28.4744 4.96326 29.1627 4.19747 30.8031 3.61585C32.01 3.18796 32.6621 3.14465 33.8359 3.02832L30.8031 3.14465C29.9087 3.56088 28.442 4.5599 27.5657 6.00932Z" fill="#F19593"/>
</g>
<g filter="url(#filter4_f_1031_272)">
<path d="M29.475 7.33304C29.6461 8.11502 31.1046 8.4225 31.8125 8.4785C27.4604 8.70746 27.8253 7.33304 28.2377 6.81378C28.6501 6.29451 29.261 6.35558 29.475 7.33304Z" fill="#F19593"/>
</g>
<g filter="url(#filter5_f_1031_272)">
<path d="M24.6551 3.84913C26.1312 3.02377 27.6643 2.72354 28.8594 2.66882C27.9993 2.35286 27.056 2.26889 26.1905 2.73196C25.6944 2.99768 25.1657 3.38561 24.6551 3.84913Z" fill="#F19593"/>
</g>
<g filter="url(#filter6_f_1031_272)">
<path d="M16.065 1.0273C17.2799 0.589387 18.6933 0.597048 19.7695 0.7342C19.1467 0.509228 18.4097 0.396289 17.5823 0.50538C16.9793 0.584822 16.476 0.77494 16.065 1.0273Z" fill="#F19593"/>
</g>
<g filter="url(#filter7_f_1031_272)">
<path d="M16.8984 2.67068C16.6655 2.45038 16.1116 2.0318 15.7591 2.11992C15.4066 2.20803 16.3718 2.52381 16.8984 2.67068Z" fill="#F19593"/>
</g>
<g filter="url(#filter8_f_1031_272)">
<path d="M12.1057 2.0474C11.7938 1.9731 11.1048 1.88764 10.8436 2.14023C10.5824 2.39281 11.5761 2.18359 12.1057 2.0474Z" fill="#F19593"/>
</g>
<defs>
<filter id="filter0_f_1031_272" x="19.7084" y="0.758643" width="5.53642" height="2.03496" filterUnits="userSpaceOnUse" color-interpolation-filters="sRGB">
<feFlood flood-opacity="0" result="BackgroundImageFix"/>
<feBlend mode="normal" in="SourceGraphic" in2="BackgroundImageFix" result="shape"/>
<feGaussianBlur stdDeviation="0.231762" result="effect1_foregroundBlur_1031_272"/>
</filter>
<filter id="filter1_f_1031_272" x="19.9544" y="3.57554" width="2.11846" height="1.65263" filterUnits="userSpaceOnUse" color-interpolation-filters="sRGB">
<feFlood flood-opacity="0" result="BackgroundImageFix"/>
<feBlend mode="normal" in="SourceGraphic" in2="BackgroundImageFix" result="shape"/>
<feGaussianBlur stdDeviation="0.231762" result="effect1_foregroundBlur_1031_272"/>
</filter>
<filter id="filter2_f_1031_272" x="23.349" y="5.3231" width="3.33721" height="1.98662" filterUnits="userSpaceOnUse" color-interpolation-filters="sRGB">
<feFlood flood-opacity="0" result="BackgroundImageFix"/>
<feBlend mode="normal" in="SourceGraphic" in2="BackgroundImageFix" result="shape"/>
<feGaussianBlur stdDeviation="0.231762" result="effect1_foregroundBlur_1031_272"/>
</filter>
<filter id="filter3_f_1031_272" x="27.1029" y="2.5648" width="7.19658" height="3.90801" filterUnits="userSpaceOnUse" color-interpolation-filters="sRGB">
<feFlood flood-opacity="0" result="BackgroundImageFix"/>
<feBlend mode="normal" in="SourceGraphic" in2="BackgroundImageFix" result="shape"/>
<feGaussianBlur stdDeviation="0.231762" result="effect1_foregroundBlur_1031_272"/>
</filter>
<filter id="filter4_f_1031_272" x="27.5404" y="6.0272" width="4.73564" height="2.94023" filterUnits="userSpaceOnUse" color-interpolation-filters="sRGB">
<feFlood flood-opacity="0" result="BackgroundImageFix"/>
<feBlend mode="normal" in="SourceGraphic" in2="BackgroundImageFix" result="shape"/>
<feGaussianBlur stdDeviation="0.231762" result="effect1_foregroundBlur_1031_272"/>
</filter>
<filter id="filter5_f_1031_272" x="24.1927" y="1.94468" width="5.13017" height="2.36797" filterUnits="userSpaceOnUse" color-interpolation-filters="sRGB">
<feFlood flood-opacity="0" result="BackgroundImageFix"/>
<feBlend mode="normal" in="SourceGraphic" in2="BackgroundImageFix" result="shape"/>
<feGaussianBlur stdDeviation="0.231762" result="effect1_foregroundBlur_1031_272"/>
</filter>
<filter id="filter6_f_1031_272" x="15.6029" y="-0.000145584" width="4.63017" height="1.49101" filterUnits="userSpaceOnUse" color-interpolation-filters="sRGB">
<feFlood flood-opacity="0" result="BackgroundImageFix"/>
<feBlend mode="normal" in="SourceGraphic" in2="BackgroundImageFix" result="shape"/>
<feGaussianBlur stdDeviation="0.231762" result="effect1_foregroundBlur_1031_272"/>
</filter>
<filter id="filter7_f_1031_272" x="15.2201" y="1.64439" width="2.14189" height="1.49004" filterUnits="userSpaceOnUse" color-interpolation-filters="sRGB">
<feFlood flood-opacity="0" result="BackgroundImageFix"/>
<feBlend mode="normal" in="SourceGraphic" in2="BackgroundImageFix" result="shape"/>
<feGaussianBlur stdDeviation="0.231762" result="effect1_foregroundBlur_1031_272"/>
</filter>
<filter id="filter8_f_1031_272" x="10.3373" y="1.50767" width="2.23174" height="1.21465" filterUnits="userSpaceOnUse" color-interpolation-filters="sRGB">
<feFlood flood-opacity="0" result="BackgroundImageFix"/>
<feBlend mode="normal" in="SourceGraphic" in2="BackgroundImageFix" result="shape"/>
<feGaussianBlur stdDeviation="0.231762" result="effect1_foregroundBlur_1031_272"/>
</filter>
<radialGradient id="paint0_radial_1031_272" cx="0" cy="0" r="1" gradientTransform="matrix(-5.78379 3.06935 9.23165 9.15119 10.0195 2.24774)" gradientUnits="userSpaceOnUse">
<stop stop-color="#DC918C"/>
<stop offset="0.778923" stop-color="#A64846"/>
</radialGradient>
<radialGradient id="paint1_radial_1031_272" cx="0" cy="0" r="1" gradientTransform="matrix(0.163918 4.60729 12.52 0.186627 12.6124 0.851562)" gradientUnits="userSpaceOnUse">
<stop offset="0.328641" stop-color="#A64846"/>
<stop offset="1" stop-color="#DC918C"/>
</radialGradient>
<radialGradient id="paint2_radial_1031_272" cx="0" cy="0" r="1" gradientTransform="matrix(-0.772739 7.11186 7.65359 -0.678795 18.1039 1.71195)" gradientUnits="userSpaceOnUse">
<stop offset="0.297595" stop-color="#A64846"/>
<stop offset="1" stop-color="#DC918C"/>
</radialGradient>
<radialGradient id="paint3_radial_1031_272" cx="0" cy="0" r="1" gradientTransform="matrix(-1.64761 8.01431 8.35744 -0.0864377 23.0406 3.19274)" gradientUnits="userSpaceOnUse">
<stop offset="0.297595" stop-color="#A64846"/>
<stop offset="1" stop-color="#DC918C"/>
</radialGradient>
<radialGradient id="paint4_radial_1031_272" cx="0" cy="0" r="1" gradientTransform="matrix(-0.982627 8.88395 9.30635 -0.888112 26.5678 4.46275)" gradientUnits="userSpaceOnUse">
<stop offset="0.297595" stop-color="#A64846"/>
<stop offset="1" stop-color="#DC918C"/>
</radialGradient>
<radialGradient id="paint5_radial_1031_272" cx="0" cy="0" r="1" gradientUnits="userSpaceOnUse" gradientTransform="translate(34.1981 4.4431) rotate(83.0554) scale(9.57459 21.2351)">
<stop offset="0.297595" stop-color="#A64846"/>
<stop offset="1" stop-color="#DC918C"/>
</radialGradient>
<radialGradient id="paint6_radial_1031_272" cx="0" cy="0" r="1" gradientTransform="matrix(-8.24815 6.00691 13.1651 17.9095 11.1783 3.00907)" gradientUnits="userSpaceOnUse">
<stop stop-color="#DC918C"/>
<stop offset="0.778923" stop-color="#A64846"/>
</radialGradient>
</defs>
</svg>
