<svg width="125" height="132" viewBox="0 0 125 132" fill="none" xmlns="http://www.w3.org/2000/svg">
<path d="M114.569 21.7057C121.718 19.4933 126.201 28.9666 119.987 33.1358C100.033 47.1581 79.9542 60.9935 59.7525 74.6438C75.205 69.6227 90.6897 64.6943 106.208 59.8606C111.814 57.8407 115.859 64.1945 111.772 68.5312C102.295 77.7426 92.7705 86.9088 83.1988 96.0292C78.4965 100.51 73.7831 104.98 69.058 109.439C68.5207 109.945 67.8105 110.244 67.0662 110.253C66.3219 110.261 65.6064 109.98 65.0747 109.469C64.5432 108.958 64.2352 108.254 64.214 107.51C64.1927 106.766 64.4627 106.045 64.9477 105.488C69.2163 100.591 73.4967 95.704 77.7881 90.8282C81.6613 86.4276 85.5446 82.0363 89.4365 77.6535C63.5647 87.5245 37.5987 97.1251 11.5369 106.452C3.21483 109.351 -2.41551 98.0473 4.92026 93.1643C13.4303 87.396 21.9632 81.6609 30.5174 75.9588C46.1178 65.5597 61.7917 55.2702 77.5387 45.0911C66.3427 48.0934 55.1326 51.05 43.907 53.9558C37.6189 55.5834 31.3259 57.1963 25.0285 58.7937C24.3126 58.975 23.5468 58.8908 22.8925 58.5357C22.2384 58.1809 21.7499 57.5881 21.5339 56.883C21.318 56.1778 21.3911 55.4132 21.7344 54.7528C22.0776 54.0924 22.6643 53.5934 23.3589 53.3427C29.4708 51.1397 35.5879 48.9515 41.7091 46.7788C65.9232 38.1839 90.2102 29.8268 114.569 21.7057Z" fill="white"/>
<path d="M77.7171 23.4654C74.7047 24.0859 71.8674 28.8631 69.8989 33.3729C68.3796 36.8536 68.3346 42.4944 72.0423 43.3459C72.6341 43.4818 73.1629 43.2079 73.549 42.2474C75.1977 38.146 80.1805 33.8559 84.6583 32.1404C89.6559 30.2259 82.1423 22.5538 77.7171 23.4654Z" fill="#D88838"/>
<path d="M90.1303 62.3543C87.4882 73.563 76.0061 80.431 64.4843 77.6943C52.9625 74.9577 45.7641 63.6527 48.4063 52.444C51.0484 41.2353 62.5305 34.3674 74.0523 37.104C85.574 39.8407 92.7724 51.1456 90.1303 62.3543Z" fill="white"/>
<path d="M58.5057 48.8124C59.1484 47.2134 60.9731 46.4413 62.5813 47.0877C64.1895 47.7342 64.9721 49.5544 64.3294 51.1533C63.6655 52.8049 63.2777 54.3538 62.9123 56.581C62.6333 58.2819 61.0214 59.43 59.3123 59.1454C57.603 58.8607 56.4438 57.251 56.7228 55.55C57.1337 53.0449 57.6179 51.0209 58.5057 48.8124Z" fill="#222222"/>
<path d="M53.3076 108.156C53.5291 107.73 53.7629 107.312 54.0057 106.909C54.9167 105.395 56.1776 103.71 57.6972 102.745L60.8019 107.576C60.4299 107.812 59.7268 108.56 58.9402 109.867C58.2135 111.074 57.6068 112.439 57.265 113.558C57.2557 114.091 57.1241 114.599 56.8573 115.055C55.6905 117.048 52.3792 117.285 49.4613 115.583C46.5434 113.882 45.1238 110.887 46.2906 108.893C47.4071 106.986 50.4874 106.687 53.3076 108.156Z" fill="#FFEE3E"/>
<path d="M75.8095 115.727C75.6846 115.263 75.5738 114.796 75.4795 114.334C75.1258 112.6 74.9132 110.504 75.3786 108.769L80.9334 110.267C80.8195 110.692 80.808 111.718 81.1134 113.215C81.3956 114.598 81.8724 116.017 82.3781 117.076C82.7322 117.478 82.9793 117.943 83.0914 118.46C83.5816 120.721 81.3042 123.119 78.0049 123.816C74.7055 124.513 71.6335 123.244 71.1434 120.983C70.6744 118.82 72.7396 116.531 75.8095 115.727Z" fill="#FFEE3E"/>
<path d="M104.108 77.2804C107.468 78.9566 107.381 85.9386 103.913 92.8748C96.7702 107.161 83.014 113.967 66.9023 110.141C51.0884 106.384 40.4158 94.2309 43.0643 82.9951C45.7128 71.7593 55.0949 64.0715 70.9088 67.8276C77.0998 69.2981 83.3583 72.3049 88.524 76.0938C92.1642 78.7637 97.3353 77.6639 101.791 76.9723C102.631 76.8419 103.415 76.9351 104.108 77.2804Z" fill="white"/>
<path d="M56.86 61.3459C56.6471 64.5231 52.2286 66.7998 46.9909 66.431C41.7532 66.0622 37.6798 63.1877 37.8927 60.0105C38.1055 56.8334 42.5241 54.5567 47.7618 54.9255C52.9995 55.2942 57.0729 58.1688 56.86 61.3459Z" fill="#FFEE3E"/>
<path d="M61.6663 51.0008C61.2088 52.3184 60.4921 52.5977 59.81 52.3605C59.1279 52.1233 58.7388 51.4593 59.1962 50.1417C59.6537 48.8241 60.3704 48.5447 61.0525 48.782C61.7346 49.0192 62.1238 49.6832 61.6663 51.0008Z" fill="white"/>
<path d="M77.3135 21.5069C79.0359 21.1521 80.814 21.656 82.2624 22.3763C83.749 23.1157 85.1515 24.2103 86.2199 25.4185C87.2441 26.5768 88.1818 28.0928 88.2988 29.7043C88.3612 30.5633 88.1886 31.4791 87.6343 32.3C87.0877 33.1094 86.2836 33.6596 85.3742 34.008C83.6316 34.6756 81.7451 35.8112 80.048 37.2117C89.2767 42.0047 94.529 52.4126 92.0775 62.8131C91.1882 66.5858 89.3896 69.9016 86.966 72.6044C87.907 73.2058 88.8227 73.8322 89.7071 74.4809C91.0357 75.4554 92.74 75.8192 94.828 75.7942C96.9499 75.7687 99.1633 75.3561 101.485 74.9958C102.66 74.8135 103.876 74.9302 105 75.491L105.253 75.6251C107.807 77.0666 108.608 80.1933 108.571 83.1298C108.531 86.3148 107.54 90.091 105.702 93.7687C101.954 101.263 96.4236 106.885 89.6279 110.107C87.5195 111.107 85.3014 111.868 82.9927 112.385C83.0158 112.522 83.0427 112.665 83.0734 112.816C83.3067 113.959 83.6908 115.125 84.0874 116.006C84.5414 116.589 84.8798 117.27 85.0458 118.037C85.4714 120 84.6466 121.81 83.4191 123.102C82.1848 124.402 80.4113 125.351 78.4178 125.772C76.4242 126.193 74.4162 126.042 72.7577 125.358C71.1106 124.678 69.6134 123.366 69.1887 121.407C68.7822 119.53 69.5197 117.788 70.6565 116.514C71.4031 115.677 72.3683 114.978 73.4679 114.458C73.3871 114.038 73.3104 113.587 73.2506 113.116C71.0274 112.976 68.7528 112.636 66.44 112.087C64.5454 111.637 62.718 111.068 60.9695 110.399C60.8685 110.551 60.7624 110.717 60.6535 110.898C60.0527 111.896 59.5497 113.012 59.2478 113.926C59.1894 114.66 58.9787 115.39 58.5834 116.066C57.5693 117.798 55.7355 118.573 53.9587 118.7C52.1696 118.828 50.2149 118.338 48.4534 117.311C46.6922 116.284 45.3044 114.824 44.5365 113.204C43.7736 111.594 43.5497 109.617 44.564 107.883C45.5333 106.227 47.2575 105.443 48.9555 105.269C49.8876 105.173 50.8682 105.25 51.8445 105.484C49.8514 104.03 48.0745 102.421 46.5567 100.693C41.9431 95.4388 39.6057 88.9506 41.1175 82.5365C42.3837 77.1651 45.1188 72.4258 49.3724 69.201C49.2164 68.9529 49.0656 68.7019 48.9192 68.4483C48.2417 68.4806 47.5499 68.4754 46.8505 68.4262C43.9284 68.2204 41.2358 67.3128 39.2449 65.9078C37.2895 64.5279 35.7263 62.4291 35.8974 59.8764C36.0688 57.3206 37.9014 55.4557 40.027 54.3605C41.7822 53.4561 43.9504 52.9418 46.2668 52.8902C46.3251 52.5887 46.3882 52.2862 46.4593 51.9845C48.8121 42.0045 57.5093 35.21 67.3886 34.5563C67.5697 33.8564 67.7979 33.1868 68.0658 32.5731C69.0788 30.2523 70.3476 27.785 71.7981 25.7859C73.1778 23.8846 75.0241 21.9785 77.3135 21.5069Z" stroke="#252525" stroke-width="4"/>
</svg>
