<svg width="22" height="26" viewBox="0 0 22 26" fill="none" xmlns="http://www.w3.org/2000/svg">
<path d="M16.4755 0.503377C17.2894 0.478795 18.11 0.584955 18.8075 0.935958C19.5476 1.30842 20.1044 1.93926 20.32 2.81174C20.5226 3.63166 20.3948 4.54409 20.0611 5.48948C19.846 6.09859 19.1783 6.41802 18.5691 6.20309C17.96 5.98809 17.6407 5.32031 17.8555 4.71114C18.1068 3.99932 18.1008 3.58278 18.049 3.37303C18.0102 3.21604 17.9356 3.11627 17.7558 3.02575C17.5332 2.91381 17.1444 2.82415 16.5464 2.84221C15.9608 2.8599 15.2508 2.97832 14.4497 3.20396C11.1964 4.12036 7.03884 6.6247 4.67934 9.71019C3.71073 10.9769 3.34286 11.8263 3.25289 12.3445C3.17761 12.7782 3.29821 12.9034 3.38693 12.9804C3.55936 13.1301 3.92274 13.2856 4.51865 13.3536C5.08756 13.4185 5.73091 13.3881 6.30609 13.3018C6.945 13.206 7.54074 13.6461 7.63658 14.285C7.73239 14.9239 7.29227 15.5197 6.65337 15.6155C5.92888 15.7242 5.07371 15.7715 4.25362 15.678C3.46079 15.5875 2.54419 15.3481 1.85234 14.7473C1.07678 14.0738 0.748403 13.0925 0.947573 11.9447C1.13218 10.8813 1.76227 9.67369 2.82107 8.28907C5.53068 4.74574 10.1471 1.98523 13.8153 0.951951C14.7445 0.690217 15.6492 0.528366 16.4755 0.503377Z" fill="#565656" stroke="#252525" stroke-linecap="round"/>
<path d="M17.1676 9.77048C17.9802 9.82268 18.7871 10.0057 19.4485 10.4208C20.1502 10.8614 20.645 11.5419 20.7775 12.4308C20.902 13.2661 20.6887 14.1625 20.2675 15.0722C19.996 15.6583 19.3011 15.9134 18.7149 15.6421C18.1287 15.3706 17.8737 14.6758 18.1451 14.0895C18.4622 13.4046 18.4955 12.9893 18.4637 12.7756C18.4399 12.6157 18.3751 12.5093 18.2045 12.4022C17.9935 12.2698 17.6148 12.1439 17.0178 12.1056C16.4331 12.068 15.7151 12.119 14.8964 12.2682C11.5712 12.874 7.19619 14.9755 4.5565 17.825C3.47286 18.9948 3.0266 19.8058 2.88821 20.3132C2.7724 20.7379 2.88067 20.8739 2.96174 20.9589C3.1193 21.1242 3.46641 21.3132 4.05327 21.4371C4.61353 21.5553 5.25689 21.5856 5.83764 21.5539C6.48274 21.5187 7.03436 22.013 7.06958 22.6581C7.10477 23.3032 6.61048 23.8548 5.9654 23.89C5.23388 23.93 4.37807 23.8965 3.57043 23.7261C2.78964 23.5614 1.89968 23.2367 1.26751 22.5734C0.558858 21.8298 0.324388 20.8219 0.630811 19.698C0.914776 18.6567 1.65584 17.5138 2.84038 16.2351C5.87176 12.9628 10.7277 10.6495 14.477 9.96643C15.4267 9.7934 16.3426 9.7175 17.1676 9.77048Z" fill="#565656" stroke="#252525" stroke-linecap="round"/>
</svg>
