<svg width="34" height="43" viewBox="0 0 34 43" fill="none" xmlns="http://www.w3.org/2000/svg">
<path d="M10.8954 1.31201C9.81585 2.02763 9.45754 4.33993 9.39671 6.41128C9.34975 8.00997 10.2182 10.2211 11.8007 9.9715C12.0533 9.93165 12.2168 9.74155 12.2168 9.30559C12.2168 7.44405 13.49 4.9851 14.9703 3.61148C16.6223 2.07842 12.4814 0.260751 10.8954 1.31201Z" fill="#D88838"/>
<path d="M21.854 14.5579C22.5821 19.3526 19.1743 23.8396 14.2424 24.58C9.31055 25.3203 4.7222 22.0336 3.99408 17.2389C3.26595 12.4442 6.67376 7.95718 11.6056 7.21682C16.5375 6.47647 21.1259 9.76316 21.854 14.5579Z" fill="white"/>
<path d="M7.36993 14.2336C7.36993 13.5079 7.96165 12.9196 8.69157 12.9196C9.42149 12.9196 10.0132 13.5079 10.0132 14.2336C10.0132 14.9832 10.1049 15.6494 10.312 16.577C10.4701 17.2855 10.0206 17.9872 9.30807 18.1445C8.59549 18.3017 7.88968 17.8548 7.73153 17.1463C7.49863 16.103 7.36993 15.236 7.36993 14.2336Z" fill="#222222"/>
<path d="M14.6597 38.2381C14.6795 38.037 14.7052 37.837 14.7367 37.6412C14.8549 36.9067 15.0828 36.05 15.525 35.4343L17.497 36.8343C17.3887 36.985 17.2314 37.3877 17.1293 38.0219C17.035 38.6078 17.0123 39.2362 17.0545 39.7271C17.1346 39.937 17.163 40.1563 17.1304 40.3764C16.9875 41.3385 15.7308 41.951 14.3234 41.7445C12.916 41.5379 11.8909 40.5905 12.0337 39.6284C12.1704 38.7077 13.3271 38.1071 14.6597 38.2381Z" fill="#FFEE3E"/>
<path d="M24.6414 37.6622C24.5197 37.5004 24.403 37.3354 24.2936 37.1696C23.8831 36.5478 23.4708 35.7621 23.3801 35.0109L25.7859 34.7239C25.8081 34.9078 25.9649 35.3107 26.3193 35.8476C26.6468 36.3437 27.056 36.8232 27.4199 37.1576C27.6213 37.2589 27.791 37.4019 27.916 37.5864C28.4627 38.3929 27.9494 39.6875 26.7697 40.478C25.5899 41.2684 24.1903 41.2554 23.6437 40.4489C23.1206 39.6771 23.5681 38.4584 24.6414 37.6622Z" fill="#FFEE3E"/>
<path d="M29.6599 18.1947C31.2362 18.3219 32.2989 21.0637 32.0332 24.3187C31.4861 31.0226 27.1801 35.843 20.2835 36.8783C13.5143 37.8944 7.43521 34.8219 6.70532 30.0156C5.97543 25.2093 8.43391 20.7317 15.203 19.7155C17.8531 19.3177 20.7708 19.5096 23.3843 20.1787C25.2261 20.6502 27.0739 19.4083 28.7064 18.4382C29.014 18.2553 29.3352 18.1685 29.6599 18.1947Z" fill="white"/>
<path d="M8.69551 19.3895C9.11136 20.6644 7.74243 22.248 5.63792 22.9266C3.53342 23.6051 1.49027 23.1217 1.07442 21.8468C0.658571 20.572 2.0275 18.9884 4.132 18.3098C6.23651 17.6312 8.27966 18.1146 8.69551 19.3895Z" fill="#FFEE3E"/>
<path d="M8.94865 14.5923C8.97685 15.179 8.74068 15.4007 8.43689 15.4152C8.13311 15.4296 7.87674 15.2313 7.84854 14.6446C7.82035 14.0579 8.05652 13.8362 8.3603 13.8217C8.66409 13.8073 8.92045 14.0056 8.94865 14.5923Z" fill="white"/>
<path d="M12.4727 0.513672C13.1244 0.565467 13.8019 0.760671 14.3711 1.0459C14.9253 1.32365 15.4523 1.7252 15.7031 2.23828C15.8343 2.50674 15.8922 2.81381 15.8232 3.13477C15.7549 3.45225 15.5727 3.73418 15.3105 3.97754C14.6219 4.61654 13.9672 5.52332 13.4863 6.49707C13.4657 6.53883 13.4467 6.58121 13.4268 6.62305C17.8563 6.82019 21.672 10.0278 22.3486 14.4824C22.6065 16.1805 22.3715 17.8387 21.7549 19.3242C22.3499 19.4249 22.9368 19.5479 23.5088 19.6943C24.2819 19.8921 25.0857 19.7396 25.9316 19.3877C26.7857 19.0324 27.6145 18.506 28.4512 18.0088C28.8318 17.7826 29.2551 17.6604 29.7002 17.6963C30.7874 17.784 31.5555 18.7464 32.0039 19.9033C32.4661 21.0961 32.6688 22.6736 32.5312 24.3594C32.2497 27.8094 30.9977 30.7996 28.9062 33.0635C28.1885 33.8404 27.3726 34.5256 26.4697 35.1162C26.5383 35.2479 26.624 35.4022 26.7363 35.5723C27.0331 36.0218 27.4027 36.4542 27.7266 36.7578C27.9627 36.8913 28.1714 37.0716 28.3301 37.3057C28.7229 37.8852 28.7036 38.5958 28.4551 39.2227C28.2056 39.8518 27.7107 40.4495 27.0479 40.8936C26.3851 41.3376 25.6431 41.5688 24.9648 41.5625C24.2895 41.5562 23.6218 41.3083 23.2295 40.7295C22.8539 40.1753 22.8549 39.4996 23.0732 38.8945C23.2435 38.4228 23.5533 37.9675 23.9668 37.5771C23.9366 37.533 23.9053 37.4897 23.876 37.4453C23.7146 37.2009 23.5479 36.9229 23.3965 36.625C22.4452 36.959 21.4308 37.2119 20.3574 37.373C19.4709 37.5061 18.5945 37.5698 17.7383 37.5713C17.6984 37.7174 17.6565 37.8939 17.623 38.1016C17.5376 38.6326 17.5163 39.1996 17.5498 39.6406C17.6336 39.8978 17.6664 40.1711 17.625 40.4502C17.5222 41.1419 17.0266 41.6526 16.4199 41.9482C15.8105 42.2452 15.0411 42.3552 14.251 42.2393C13.4607 42.1233 12.7554 41.7968 12.2578 41.3369C11.7624 40.879 11.4363 40.2469 11.5391 39.5547C11.6373 38.8934 12.0955 38.3965 12.665 38.0967C13.1106 37.8622 13.6488 37.7335 14.2197 37.7227C14.2275 37.6689 14.2346 37.6149 14.2432 37.5615C14.261 37.451 14.2813 37.3363 14.3047 37.2188C13.1134 36.9647 12.0007 36.58 11.0039 36.0762C8.44557 34.783 6.60662 32.696 6.21094 30.0908C5.85493 27.7465 6.22146 25.4415 7.4668 23.5381C7.22091 23.3721 6.9827 23.1958 6.75391 23.0078C6.451 23.1582 6.12953 23.2932 5.79102 23.4023C4.66651 23.7649 3.53575 23.8251 2.60742 23.6055C1.68979 23.3883 0.88142 22.8689 0.598633 22.002C0.31558 21.1341 0.664486 20.2397 1.28027 19.5273C1.83627 18.8843 2.65475 18.3297 3.62402 17.96C3.57605 17.7478 3.53318 17.5329 3.5 17.3145C2.86275 13.1182 5.21534 9.16178 8.97852 7.47168C8.9145 7.1041 8.88646 6.73789 8.89648 6.39648C8.92744 5.34287 9.0349 4.20685 9.2793 3.23145C9.51636 2.28545 9.91285 1.36377 10.6191 0.895508C11.1466 0.545901 11.8318 0.462807 12.4727 0.513672Z" stroke="#252525"/>
</svg>
