<svg width="125" height="132" viewBox="0 0 125 132" fill="none" xmlns="http://www.w3.org/2000/svg">
<path d="M114.569 21.7057C121.718 19.4933 126.201 28.9666 119.987 33.1358C100.033 47.1581 79.9542 60.9935 59.7525 74.6438C75.205 69.6227 90.6897 64.6943 106.208 59.8606C111.814 57.8407 115.859 64.1945 111.772 68.5312C102.295 77.7426 92.7705 86.9088 83.1988 96.0292C78.4965 100.51 73.7831 104.98 69.058 109.439C68.5207 109.945 67.8105 110.244 67.0662 110.253C66.3219 110.261 65.6064 109.98 65.0747 109.469C64.5432 108.958 64.2352 108.254 64.214 107.51C64.1927 106.766 64.4627 106.045 64.9477 105.488C69.2163 100.591 73.4967 95.704 77.7881 90.8282C81.6613 86.4276 85.5446 82.0363 89.4365 77.6535C63.5647 87.5245 37.5987 97.1251 11.5369 106.452C3.21483 109.351 -2.41551 98.0473 4.92026 93.1643C13.4303 87.396 21.9632 81.6609 30.5174 75.9588C46.1178 65.5597 61.7917 55.2702 77.5387 45.0911C66.3427 48.0934 55.1326 51.05 43.907 53.9558C37.6189 55.5834 31.3259 57.1963 25.0285 58.7937C24.3126 58.975 23.5468 58.8908 22.8925 58.5357C22.2384 58.1809 21.7499 57.5881 21.5339 56.883C21.318 56.1778 21.3911 55.4132 21.7344 54.7528C22.0776 54.0924 22.6643 53.5934 23.3589 53.3427C29.4708 51.1397 35.5879 48.9515 41.7091 46.7788C65.9232 38.1839 90.2102 29.8268 114.569 21.7057Z" fill="#E9F8FF"/>
<path d="M77.7171 23.4654C74.7047 24.0859 71.8674 28.8631 69.8989 33.3729C68.3796 36.8536 68.3346 42.4944 72.0423 43.3459C72.6341 43.4818 73.1629 43.2079 73.549 42.2474C75.1977 38.146 80.1805 33.8559 84.6583 32.1404C89.6559 30.2259 82.1423 22.5538 77.7171 23.4654Z" fill="#D88838"/>
<path d="M90.1303 62.3543C87.4882 73.563 76.0061 80.431 64.4843 77.6943C52.9625 74.9577 45.7641 63.6527 48.4063 52.444C51.0484 41.2353 62.5305 34.3674 74.0523 37.104C85.574 39.8407 92.7724 51.1456 90.1303 62.3543Z" fill="white"/>
<path d="M58.5057 48.8124C59.1484 47.2134 60.9731 46.4413 62.5813 47.0877C64.1895 47.7342 64.9721 49.5544 64.3294 51.1533C63.6655 52.8049 63.2777 54.3538 62.9123 56.581C62.6333 58.2819 61.0214 59.43 59.3123 59.1454C57.603 58.8607 56.4438 57.251 56.7228 55.55C57.1337 53.0449 57.6179 51.0209 58.5057 48.8124Z" fill="#222222"/>
<path d="M53.3076 108.156C53.5291 107.73 53.7629 107.312 54.0057 106.909C54.9167 105.395 56.1776 103.71 57.6972 102.745L60.8019 107.576C60.4299 107.812 59.7268 108.56 58.9402 109.867C58.2135 111.074 57.6068 112.439 57.265 113.558C57.2557 114.091 57.1241 114.599 56.8573 115.055C55.6905 117.048 52.3792 117.285 49.4613 115.583C46.5434 113.882 45.1238 110.887 46.2906 108.893C47.4071 106.986 50.4874 106.687 53.3076 108.156Z" fill="#FFEE3E"/>
<path d="M75.8095 115.727C75.6846 115.263 75.5738 114.796 75.4795 114.334C75.1258 112.6 74.9132 110.504 75.3786 108.769L80.9334 110.267C80.8195 110.692 80.808 111.718 81.1134 113.215C81.3956 114.598 81.8724 116.017 82.3781 117.076C82.7322 117.478 82.9793 117.943 83.0914 118.46C83.5816 120.721 81.3042 123.119 78.0049 123.816C74.7055 124.513 71.6335 123.244 71.1434 120.983C70.6744 118.82 72.7396 116.531 75.8095 115.727Z" fill="#FFEE3E"/>
<path d="M104.108 77.2804C107.468 78.9566 107.381 85.9386 103.913 92.8748C96.7702 107.161 83.014 113.967 66.9023 110.141C51.0884 106.384 40.4158 94.2309 43.0643 82.9951C45.7128 71.7593 55.0949 64.0715 70.9088 67.8276C77.0998 69.2981 83.3583 72.3049 88.524 76.0938C92.1642 78.7637 97.3353 77.6639 101.791 76.9723C102.631 76.8419 103.415 76.9351 104.108 77.2804Z" fill="white"/>
<path d="M56.86 61.3459C56.6471 64.5231 52.2286 66.7998 46.9909 66.431C41.7532 66.0622 37.6798 63.1877 37.8927 60.0105C38.1055 56.8334 42.5241 54.5567 47.7618 54.9255C52.9995 55.2942 57.0729 58.1688 56.86 61.3459Z" fill="#FFEE3E"/>
<path d="M61.6663 51.0008C61.2088 52.3184 60.4921 52.5977 59.81 52.3605C59.1279 52.1233 58.7388 51.4593 59.1962 50.1417C59.6537 48.8241 60.3704 48.5447 61.0525 48.782C61.7346 49.0192 62.1238 49.6832 61.6663 51.0008Z" fill="white"/>
<path d="M77.4779 22.3023C78.9498 21.9993 80.5332 22.4244 81.9003 23.1043C83.2901 23.7956 84.6096 24.8244 85.611 25.9568C86.586 27.0596 87.3908 28.4104 87.489 29.7629C87.5404 30.4708 87.3969 31.1986 86.9605 31.845C86.5287 32.4844 85.8771 32.9451 85.0836 33.2492C83.0005 34.0472 80.7561 35.4642 78.8341 37.1837C78.7518 37.2573 78.6707 37.332 78.5898 37.4065C88.1755 41.7635 93.741 52.2122 91.2862 62.6266C90.3505 66.5961 88.3696 70.0449 85.6958 72.7716C86.9154 73.5193 88.0972 74.3079 89.2259 75.1358C90.7543 76.2568 92.6612 76.6324 94.8373 76.6063C97.0336 76.5799 99.3257 76.1538 101.609 75.7993C102.648 75.6381 103.689 75.7445 104.638 76.2178C106.955 77.3739 107.795 80.1737 107.758 83.1199C107.72 86.1575 106.771 89.8135 104.975 93.4061C101.299 100.758 95.8927 106.237 89.2801 109.372C87.0081 110.45 84.6022 111.246 82.087 111.748C82.1218 112.097 82.181 112.508 82.2768 112.978C82.5302 114.219 82.9536 115.488 83.3938 116.441C83.8051 116.949 84.107 117.543 84.2514 118.209C84.6036 119.833 83.9331 121.381 82.8305 122.542C81.7237 123.708 80.1038 124.586 78.25 124.977C76.3961 125.369 74.5562 125.221 73.0671 124.606C71.5849 123.994 70.3348 122.857 69.9831 121.234C69.6465 119.681 70.2464 118.195 71.2632 117.055C72.0561 116.166 73.1409 115.435 74.3977 114.941C74.3704 114.818 74.341 114.695 74.3158 114.572L74.3162 114.571C74.1773 113.89 74.0528 113.131 73.9831 112.341C71.592 112.235 69.1342 111.891 66.6274 111.296C64.5537 110.803 62.5635 110.168 60.6738 109.412C60.457 109.698 60.2144 110.052 59.9577 110.479C59.3059 111.562 58.7611 112.778 58.4428 113.774C58.4036 114.426 58.2263 115.067 57.8821 115.655C57.043 117.089 55.499 117.775 53.9004 117.889C52.2945 118.004 50.5013 117.565 48.8628 116.609C47.2244 115.654 45.96 114.31 45.271 112.856C44.5849 111.409 44.4269 109.728 45.2662 108.294C46.0686 106.923 47.518 106.233 49.039 106.077C50.2282 105.955 51.5276 106.147 52.795 106.628C52.8593 106.517 52.9225 106.406 52.9883 106.297C53.1248 106.07 53.2722 105.837 53.4271 105.6C51.0268 103.985 48.9183 102.149 47.168 100.156C42.6762 95.0413 40.4732 88.8135 41.9087 82.723C43.2 77.2451 46.0471 72.4934 50.4733 69.4025C50.0797 68.8205 49.7149 68.2205 49.378 67.6055C48.5775 67.6685 47.7494 67.6746 46.907 67.6153C44.1083 67.4182 41.5638 66.5495 39.713 65.2434C37.8834 63.9522 36.5633 62.0915 36.7081 59.9308C36.8531 57.7681 38.4113 56.1066 40.3988 55.0825C42.1925 54.1583 44.4864 53.6599 46.9484 53.7031C47.0306 53.1932 47.1299 52.6824 47.2502 52.1719C49.5626 42.362 58.2506 35.7251 68.0388 35.3345C68.2233 34.4695 68.487 33.6399 68.8109 32.8978C69.8122 30.604 71.0532 28.1963 72.4554 26.2638C73.8157 24.3891 75.5067 22.7084 77.4779 22.3023Z" stroke="#252525" stroke-width="2.37457"/>
</svg>
