<svg width="24" height="18" viewBox="0 0 24 18" fill="none" xmlns="http://www.w3.org/2000/svg">
<path d="M4.30959 6.30884C4.17248 6.35831 4.05658 6.45669 3.98884 6.58705C3.92108 6.71738 3.9068 6.86826 3.94943 7.00743C3.99205 7.1466 4.08837 7.26361 4.21748 7.33364C4.34661 7.40372 4.49772 7.42032 4.63902 7.38452C4.63902 7.38452 4.63902 7.38452 4.63902 7.38452C5.88181 7.06928 7.12367 6.75105 8.36463 6.42983C13.2736 5.15916 18.1682 3.84172 23.0485 2.47753L21.9795 0.22173C16.5163 3.67232 11.0972 7.18908 5.72222 10.772C4.03405 11.8973 2.35023 13.0292 0.670755 14.1675C-0.77709 15.1312 0.334031 17.3622 1.97642 16.79C8.46371 14.4683 14.9212 12.0613 21.3488 9.5688L20.2507 7.85759C18.5081 9.79825 16.7749 11.7479 15.051 13.7065C14.2041 14.6687 13.3595 15.6331 12.5171 16.5997C12.4213 16.7096 12.3679 16.8519 12.3721 16.9988C12.3763 17.1456 12.4372 17.2844 12.5422 17.3852C12.6471 17.4861 12.7882 17.5415 12.935 17.5399C13.082 17.5383 13.2221 17.4793 13.3281 17.3793C13.3281 17.3793 13.3281 17.3793 13.3281 17.3793C14.2606 16.4994 15.1909 15.6173 16.1189 14.733C18.0079 12.9331 19.8875 11.1242 21.7578 9.30633C22.5644 8.45049 21.7661 7.19649 20.6597 7.59512C14.0776 9.64539 7.52537 11.7811 1.00295 14.0021L2.30862 16.6246C4.0055 15.5123 5.69802 14.3935 7.38619 13.2682C12.7612 9.68531 18.092 6.03624 23.3788 2.321C24.6052 1.49822 23.7205 -0.371452 22.3097 0.065201C17.5025 1.66788 12.7095 3.31732 7.93087 5.01351C6.72286 5.4423 5.51577 5.87408 4.30959 6.30884Z" fill="#00ABFF"/>
</svg>
