<svg width="40" height="36" viewBox="0 0 40 36" fill="none" xmlns="http://www.w3.org/2000/svg">
<path d="M37.0996 11.1914C36.2385 11.301 34.1688 11.6557 32.3429 12.2503L31.982 12.3715L31.8427 12.4327C31.5322 12.5978 31.3275 12.9174 31.3132 13.2763C31.2875 13.9166 31.4131 14.8813 31.926 15.7156C32.4805 16.6174 33.4606 17.3068 34.9244 17.2645C35.2151 17.2561 35.4876 17.1207 35.6712 16.895C36.0149 16.4726 36.5393 15.7632 37.0251 14.9736C37.4993 14.2029 37.9916 13.2694 38.1974 12.4186C38.2746 12.099 38.19 11.7617 37.971 11.5167C37.7518 11.2717 37.4258 11.1498 37.0996 11.1914Z" fill="#D3CDC6" stroke="white" stroke-width="2" stroke-linejoin="round"/>
<path d="M2.9004 11.1914C3.76147 11.301 5.83117 11.6557 7.65711 12.2503L8.01803 12.3715L8.15729 12.4327C8.46778 12.5978 8.67248 12.9174 8.68684 13.2763C8.71247 13.9166 8.5869 14.8813 8.074 15.7156C7.51947 16.6174 6.53945 17.3068 5.07558 17.2645C4.78488 17.2561 4.51244 17.1207 4.32883 16.895C3.98513 16.4726 3.46066 15.7632 2.97487 14.9736C2.50069 14.2029 2.00837 13.2694 1.80264 12.4186C1.72539 12.099 1.80996 11.7617 2.029 11.5167C2.24821 11.2717 2.57424 11.1498 2.9004 11.1914Z" fill="#D3CDC6" stroke="white" stroke-width="2" stroke-linejoin="round"/>
<path d="M25.1861 1.43941C24.6448 2.1186 23.4072 3.81651 22.5113 5.5164L22.3364 5.85572L22.2792 5.99664C22.1717 6.33132 22.2477 6.70351 22.4871 6.97096C22.9146 7.44829 23.6763 8.05304 24.6252 8.29375C25.6513 8.55402 26.8337 8.36391 27.8537 7.31309C28.056 7.1047 28.1574 6.81845 28.1321 6.52895C28.0846 5.98621 27.9673 5.11086 27.7662 4.2056C27.57 3.32204 27.2729 2.30896 26.8282 1.55507C26.661 1.2718 26.3654 1.08881 26.0376 1.06564C25.7096 1.04253 25.391 1.18226 25.1861 1.43941Z" fill="#D3CDC6" stroke="white" stroke-width="2" stroke-linejoin="round"/>
<path d="M14.81 1.43941C15.3513 2.1186 16.5889 3.81651 17.4848 5.5164L17.6596 5.85572L17.7169 5.99664C17.8244 6.33132 17.7484 6.70351 17.5089 6.97096C17.0815 7.44829 16.3197 8.05304 15.3709 8.29375C14.3448 8.55402 13.1624 8.36391 12.1424 7.31309C11.9401 7.1047 11.8387 6.81845 11.864 6.52895C11.9115 5.98621 12.0288 5.11086 12.2299 4.2056C12.4261 3.32204 12.7232 2.30896 13.1679 1.55507C13.3351 1.2718 13.6307 1.08881 13.9585 1.06564C14.2865 1.04253 14.6051 1.18226 14.81 1.43941Z" fill="#D3CDC6" stroke="white" stroke-width="2" stroke-linejoin="round"/>
<path d="M20.252 6.48926C21.5868 5.31113 24.0116 4.18081 26.9375 5.15723C28.8901 5.80887 29.9085 7.22129 30.3613 8.66113C30.6596 9.6098 30.716 10.5799 30.6592 11.3955C31.5962 11.616 32.6975 12.0345 33.7021 12.7373C35.134 13.7391 36.3886 15.3314 36.6367 17.6895C37.0588 21.7038 34.6124 24.3041 32.8379 25.4492C33.2239 27.0811 33.0658 28.5291 32.457 29.7764C31.7634 31.1972 30.545 32.2383 29.1777 32.9902C26.464 34.4827 22.876 35 20.3945 35C17.9134 35 14.2605 34.4819 11.4805 32.9951C10.0814 32.2468 8.82421 31.2107 8.09961 29.792C7.46183 28.5431 7.28363 27.0894 7.66699 25.4502C5.89247 24.3052 3.44604 21.7042 3.86816 17.6895C4.11624 15.3314 5.37089 13.739 6.80273 12.7373C7.80705 12.0347 8.90787 11.616 9.84473 11.3955C9.78793 10.5799 9.84525 9.60978 10.1436 8.66113C10.5963 7.22128 11.6148 5.80886 13.5674 5.15723C16.4929 4.18093 18.917 5.3113 20.252 6.48926Z" fill="#796A69" stroke="white" stroke-width="2" stroke-linejoin="round"/>
<path fill-rule="evenodd" clip-rule="evenodd" d="M13.8385 24.1701C10.92 26.2954 10.1235 31.8742 20.4719 31.8742C30.8204 31.8742 30.0259 26.2954 27.1074 24.1701C24.994 22.631 23.9228 21.7791 23.3921 20.7165C22.7287 19.3882 21.5343 19.1226 20.4728 19.1226C19.4114 19.1226 18.2173 19.3882 17.5539 20.7165C17.0232 21.7791 15.952 22.631 13.8385 24.1701Z" fill="#FEABAA"/>
<path d="M13.3633 15.9978C14.7034 17.3535 15.4087 19.5777 13.8998 21.0726C12.3909 22.5675 10.1768 21.8383 8.83665 20.4826C7.49654 19.1269 7.42349 17.0239 8.67349 15.7854C9.9235 14.547 12.0232 14.642 13.3633 15.9978Z" fill="#FEABAA"/>
<path d="M26.957 15.9983C25.6169 17.354 24.9116 19.5781 26.4205 21.0731C27.9294 22.568 30.1435 21.8388 31.4837 20.4831C32.8238 19.1274 32.8968 17.0244 31.6468 15.7859C30.3968 14.5475 28.2971 14.6425 26.957 15.9983Z" fill="#FEABAA"/>
<path d="M18.9144 10.3773C19.6169 12.1502 19.3955 14.4732 17.4222 15.2569C15.449 16.0406 13.6972 14.5013 12.9947 12.7283C12.2922 10.9553 13.0478 8.99177 14.6825 8.34256C16.3172 7.69335 18.2119 8.60432 18.9144 10.3773Z" fill="#FEABAA"/>
<path d="M21.4117 10.3773C20.7092 12.1502 20.9307 14.4732 22.9039 15.2569C24.8772 16.0406 26.629 14.5013 27.3315 12.7283C28.034 10.9553 27.2783 8.99177 25.6436 8.34256C24.0089 7.69335 22.1142 8.60432 21.4117 10.3773Z" fill="#FEABAA"/>
</svg>
