<svg width="40" height="40" viewBox="0 0 40 40" fill="none" xmlns="http://www.w3.org/2000/svg">
<path d="M9.59384 2.68807C10.33 1.85798 11.5988 1.06475 13.3338 1.26014C14.6638 1.41005 15.5107 2.17808 15.989 3.02398C16.2293 3.44916 16.379 3.89928 16.4684 4.3168C16.9861 4.36064 17.566 4.47861 18.1333 4.7187C19.1446 5.14673 20.1386 5.97013 20.6024 7.39667C21.3245 9.61744 20.3833 11.4096 19.4974 12.3998C19.841 13.2492 19.9066 14.0828 19.7082 14.8759C19.4606 15.8654 18.8359 16.6625 18.1197 17.2802C16.7055 18.4998 14.6855 19.2371 13.2597 19.5402C11.8341 19.8433 9.65339 19.9992 7.83124 19.4731C6.91046 19.2072 5.99523 18.742 5.348 17.9453C4.8263 17.303 4.53309 16.5115 4.49775 15.5891C3.2856 15.045 1.6968 13.7898 1.4531 11.467C1.29657 9.97512 1.86978 8.81861 2.61954 8.01626C3.03989 7.56644 3.52114 7.22274 3.97604 6.97216C3.88796 6.55433 3.84254 6.08206 3.88918 5.59588C3.98204 4.62869 4.44267 3.58268 5.59646 2.90477C7.10174 2.02054 8.58367 2.22932 9.59384 2.68807Z" fill="#796A69" stroke="white" stroke-width="2" stroke-linejoin="round"/>
<path fill-rule="evenodd" clip-rule="evenodd" d="M8.22254 13.8551C6.84351 15.388 7.06015 18.5964 12.844 17.367C18.6278 16.1376 17.5219 13.1182 15.6387 12.2787C14.2748 11.6708 13.5751 11.3226 13.1524 10.7926C12.624 10.13 11.9249 10.1236 11.3317 10.2497C10.7384 10.3758 10.1026 10.666 9.88939 11.4861C9.71883 12.1423 9.2212 12.745 8.22254 13.8551Z" fill="#FEABAA"/>
<path d="M6.98715 9.35001C7.89699 9.94747 8.55502 11.1051 7.88904 12.1187C7.22305 13.1323 5.89904 12.9884 4.98921 12.3909C4.07937 11.7934 3.78905 10.6284 4.34077 9.78864C4.89249 8.94892 6.07732 8.75254 6.98715 9.35001Z" fill="#FEABAA"/>
<path d="M14.582 7.73597C13.9938 8.65185 13.8635 9.977 14.8842 10.6321C15.9049 11.2872 17.0558 10.6172 17.644 9.70131C18.2322 8.78543 18.0235 7.60301 17.178 7.0603C16.3324 6.51758 15.1701 6.82009 14.582 7.73597Z" fill="#FEABAA"/>
<path d="M9.4164 5.55388C10.0194 6.45997 10.1712 7.7828 9.16129 8.45461C8.15139 9.12643 6.98967 8.4754 6.3867 7.56932C5.78373 6.66324 5.97314 5.47754 6.80977 4.92099C7.6464 4.36445 8.81343 4.6478 9.4164 5.55388Z" fill="#FEABAA"/>
<path d="M10.8168 5.25631C10.6345 6.32931 11.0338 7.59953 12.2296 7.80249C13.4255 8.00546 14.222 6.9382 14.4043 5.8652C14.5866 4.7922 13.9313 3.78606 12.9406 3.61792C11.9499 3.44977 10.9991 4.18331 10.8168 5.25631Z" fill="#FEABAA"/>
<path d="M30.4062 21.276C29.67 20.4459 28.4012 19.6526 26.6662 19.848C25.3362 19.9979 24.4893 20.766 24.011 21.6119C23.7707 22.037 23.621 22.4872 23.5316 22.9047C23.0139 22.9485 22.434 23.0665 21.8667 23.3066C20.8554 23.7346 19.8614 24.558 19.3976 25.9846C18.6755 28.2053 19.6167 29.9975 20.5026 30.9877C20.159 31.8371 20.0934 32.6707 20.2918 33.4638C20.5393 34.4533 21.1641 35.2504 21.8803 35.8681C23.2945 37.0877 25.3145 37.825 26.7403 38.1281C28.1659 38.4312 30.3466 38.5871 32.1688 38.061C33.0895 37.7951 34.0048 37.3299 34.652 36.5331C35.1737 35.8909 35.4669 35.0994 35.5022 34.177C36.7144 33.6328 38.3032 32.3777 38.5469 30.0549C38.7034 28.563 38.1302 27.4065 37.3805 26.6042C36.9601 26.1543 36.4789 25.8106 36.024 25.56C36.112 25.1422 36.1575 24.67 36.1108 24.1838C36.018 23.2166 35.5573 22.1706 34.4035 21.4927C32.8983 20.6084 31.4163 20.8172 30.4062 21.276Z" fill="#796A69" stroke="white" stroke-width="2" stroke-linejoin="round"/>
<path fill-rule="evenodd" clip-rule="evenodd" d="M31.7775 32.443C33.1565 33.9759 32.9399 37.1842 27.156 35.9548C21.3722 34.7254 22.4781 31.7061 24.3613 30.8666C25.7252 30.2587 26.4249 29.9105 26.8476 29.3805C27.376 28.7179 28.0751 28.7115 28.6683 28.8376C29.2616 28.9637 29.8974 29.2539 30.1106 30.074C30.2812 30.7302 30.7788 31.3329 31.7775 32.443Z" fill="#FEABAA"/>
<path d="M33.0148 27.9374C32.105 28.5349 31.4469 29.6925 32.1129 30.7061C32.7789 31.7197 34.1029 31.5758 35.0127 30.9783C35.9226 30.3808 36.2129 29.2158 35.6612 28.376C35.1095 27.5363 33.9246 27.3399 33.0148 27.9374Z" fill="#FEABAA"/>
<path d="M25.418 26.3239C26.0062 27.2397 26.1365 28.5649 25.1158 29.22C24.0951 29.8751 22.9442 29.2051 22.356 28.2892C21.7678 27.3733 21.9765 26.1909 22.822 25.6482C23.6676 25.1055 24.8299 25.408 25.418 26.3239Z" fill="#FEABAA"/>
<path d="M30.5816 24.1423C29.9787 25.0483 29.8269 26.3712 30.8368 27.043C31.8467 27.7148 33.0084 27.0638 33.6113 26.1577C34.2143 25.2516 34.0249 24.0659 33.1883 23.5094C32.3516 22.9528 31.1846 23.2362 30.5816 24.1423Z" fill="#FEABAA"/>
<path d="M29.1832 23.8452C29.3655 24.9182 28.9662 26.1884 27.7704 26.3914C26.5745 26.5943 25.778 25.5271 25.5957 24.4541C25.4134 23.3811 26.0687 22.3749 27.0594 22.2068C28.0501 22.0386 29.0009 22.7722 29.1832 23.8452Z" fill="#FEABAA"/>
</svg>
