<svg width="19" height="18" viewBox="0 0 19 18" fill="none" xmlns="http://www.w3.org/2000/svg">
<path d="M9.43555 2.25586C10.1932 1.73566 11.3242 1.3675 12.6455 1.81543C13.7314 2.1836 14.2982 2.99187 14.543 3.78223C14.6498 4.12723 14.6969 4.47508 14.708 4.79785C15.0833 4.92628 15.4814 5.11504 15.8555 5.38086C16.6104 5.9174 17.2803 6.78174 17.4111 8.0459C17.6064 9.93299 16.6166 11.2218 15.7432 11.9082C15.849 12.6282 15.7547 13.2988 15.4658 13.9004C15.0881 14.6867 14.4356 15.2387 13.7529 15.6201C12.4101 16.3703 10.6784 16.6162 9.5 16.6162C8.32192 16.6162 6.5637 16.3704 5.19336 15.626C4.49837 15.2484 3.82783 14.7011 3.43359 13.917C3.12988 13.3129 3.02417 12.6364 3.12793 11.9092C2.25437 11.2229 1.26464 9.93333 1.45996 8.0459C1.5908 6.78174 2.2607 5.9174 3.01562 5.38086C3.38937 5.11525 3.78704 4.92628 4.16211 4.79785C4.17317 4.47507 4.22133 4.12724 4.32812 3.78223C4.57292 2.99187 5.13973 2.1836 6.22559 1.81543C7.54685 1.3675 8.67788 1.73566 9.43555 2.25586Z" fill="#796A69" stroke="white" stroke-width="2" stroke-linejoin="round"/>
<path fill-rule="evenodd" clip-rule="evenodd" d="M6.52582 11.0862C5.202 12.0655 4.84068 14.6363 9.53474 14.6363C14.2288 14.6363 13.8684 12.0655 12.5446 11.0862C11.5859 10.377 11.1 9.98441 10.8593 9.49474C10.5584 8.88266 10.0166 8.76025 9.53514 8.76025C9.05367 8.76025 8.51203 8.88266 8.21112 9.49474C7.97039 9.98441 7.4845 10.377 6.52582 11.0862Z" fill="#FEABAA"/>
<path d="M6.31021 7.3204C6.91808 7.94512 7.23798 8.97002 6.55355 9.6589C5.86911 10.3478 4.86478 10.0117 4.25691 9.38702C3.64903 8.7623 3.6159 7.79323 4.1829 7.22255C4.7499 6.65187 5.70233 6.69568 6.31021 7.3204Z" fill="#FEABAA"/>
<path d="M12.475 7.3204C11.8671 7.94512 11.5472 8.97002 12.2316 9.6589C12.916 10.3478 13.9204 10.0117 14.5282 9.38702C15.1361 8.7623 15.1693 7.79323 14.6023 7.22255C14.0353 6.65187 13.0828 6.69568 12.475 7.3204Z" fill="#FEABAA"/>
<path d="M8.82664 4.7304C9.1453 5.54739 9.04486 6.61782 8.14979 6.97894C7.25472 7.34006 6.46009 6.63074 6.14143 5.81375C5.82278 4.99677 6.16556 4.09196 6.90706 3.7928C7.64856 3.49364 8.50799 3.91342 8.82664 4.7304Z" fill="#FEABAA"/>
<path d="M9.96047 4.7304C9.64181 5.54739 9.74225 6.61782 10.6373 6.97894C11.5324 7.34006 12.327 6.63074 12.6457 5.81375C12.9643 4.99677 12.6216 4.09196 11.8801 3.7928C11.1386 3.49364 10.2791 3.91342 9.96047 4.7304Z" fill="#FEABAA"/>
</svg>
