<svg width="40" height="28" viewBox="0 0 40 28" fill="none" xmlns="http://www.w3.org/2000/svg">
<g filter="url(#filter0_d_681_82)">
<path d="M13.8372 18.5486C13.4931 18.9687 12.8736 19.0303 12.4536 18.6863L9.65247 16.392C9.23258 16.0481 9.17096 15.4289 9.5152 15.0086C9.85945 14.5884 10.4786 14.5268 10.8985 14.8707L13.6996 17.165C14.1197 17.5091 14.1813 18.1286 13.8372 18.5486ZM14.9612 19.4692C15.8137 18.4284 15.661 16.8935 14.6202 16.041L11.8191 13.7468C10.778 12.8941 9.24359 13.0474 8.39125 14.0881C7.53892 15.1287 7.69085 16.6633 8.73188 17.516L11.533 19.8102C12.5738 20.6627 14.1087 20.5101 14.9612 19.4692Z" fill="white"/>
<path d="M6.24977 11.7325C5.75064 11.9464 5.17264 11.7151 4.9588 11.216L3.53289 7.8878C3.31914 7.38891 3.55026 6.81121 4.04963 6.59726C4.549 6.38331 5.12667 6.6145 5.34042 7.11339L6.76633 10.4415C6.98017 10.9407 6.7489 11.5187 6.24977 11.7325ZM6.82192 13.0679C8.05859 12.5381 8.6316 11.1061 8.10176 9.86938L6.67585 6.54123C6.14591 5.30432 4.71391 4.7321 3.47748 5.26183C2.24105 5.79157 1.66751 7.22304 2.19745 8.45995L3.62336 11.7881C4.1532 13.0248 5.58525 13.5978 6.82192 13.0679Z" fill="white"/>
<path d="M23.4251 21.9219C23.2838 22.4462 22.7442 22.7567 22.2199 22.6154L18.7239 21.6733C18.1998 21.5321 17.8894 20.9928 18.0308 20.4682C18.1721 19.9437 18.7114 19.6334 19.2355 19.7746L22.7315 20.7167C23.2558 20.858 23.5664 21.3975 23.4251 21.9219ZM24.8279 22.2999C25.1779 21.0008 24.4086 19.6639 23.1095 19.3139L19.6135 18.3718C18.3142 18.0217 16.978 18.7914 16.628 20.0902C16.278 21.389 17.0465 22.726 18.3458 23.0761L21.8419 24.0182C23.1409 24.3682 24.4778 23.5989 24.8279 22.2999Z" fill="white"/>
<path d="M33.5344 22.8231C33.5239 23.366 33.0753 23.7977 32.5324 23.7872L28.9124 23.7174C28.3697 23.707 27.9383 23.2586 27.9487 22.7154C27.9592 22.1723 28.4076 21.7409 28.9503 21.7513L32.5703 21.8211C33.1132 21.8316 33.5449 22.2802 33.5344 22.8231ZM34.987 22.8511C35.0129 21.506 33.9435 20.3945 32.5983 20.3686L28.9783 20.2988C27.6328 20.2728 26.5221 21.3426 26.4962 22.6874C26.4702 24.0323 27.5389 25.1441 28.8844 25.17L32.5044 25.2398C33.8496 25.2657 34.961 24.1963 34.987 22.8511Z" fill="white"/>
<path d="M12.166 17.4336C11.9923 17.7955 12.1449 18.2297 12.5068 18.4033L18.8523 21.4486C19.2141 21.6222 19.6483 21.4696 19.8219 21.1078C19.9956 20.7459 19.843 20.3118 19.4812 20.1381L13.1357 17.0929C12.7738 16.9192 12.3397 17.0718 12.166 17.4336Z" fill="white"/>
<path d="M21.5697 21.5937C21.5053 21.9899 21.7743 22.3632 22.1705 22.4276L29.1177 23.557C29.5138 23.6214 29.8872 23.3524 29.9516 22.9562C30.016 22.56 29.7471 22.1866 29.3509 22.1222L22.4037 20.9929C22.0075 20.9285 21.6341 21.1975 21.5697 21.5937Z" fill="white"/>
<path d="M5.1265 9.94646C4.82638 10.213 4.79915 10.6723 5.06568 10.9725L9.73929 16.2352C10.0058 16.5353 10.4652 16.5625 10.7653 16.296C11.0654 16.0295 11.0927 15.5701 10.8261 15.27L6.15251 10.0073C5.88599 9.70716 5.42662 9.67993 5.1265 9.94646Z" fill="white"/>
<path d="M3.44987 2.00892C3.05327 2.07075 2.78189 2.44238 2.84372 2.83898L3.60213 7.70369C3.66396 8.10028 4.03558 8.37166 4.43218 8.30984C4.82878 8.24801 5.10016 7.87638 5.03833 7.47979L4.27992 2.61507C4.21809 2.21848 3.84646 1.9471 3.44987 2.00892Z" fill="white"/>
<path d="M31.5474 22.8016C31.567 23.2025 31.908 23.5115 32.3089 23.4918L37.2264 23.2504C37.6273 23.2308 37.9364 22.8898 37.9167 22.4889C37.897 22.088 37.5561 21.779 37.1552 21.7986L32.2376 22.04C31.8367 22.0597 31.5277 22.4007 31.5474 22.8016Z" fill="white"/>
</g>
<defs>
<filter id="filter0_d_681_82" x="0" y="0" width="39.918" height="27.2402" filterUnits="userSpaceOnUse" color-interpolation-filters="sRGB">
<feFlood flood-opacity="0" result="BackgroundImageFix"/>
<feColorMatrix in="SourceAlpha" type="matrix" values="0 0 0 0 0 0 0 0 0 0 0 0 0 0 0 0 0 0 127 0" result="hardAlpha"/>
<feOffset/>
<feGaussianBlur stdDeviation="1"/>
<feComposite in2="hardAlpha" operator="out"/>
<feColorMatrix type="matrix" values="0 0 0 0 0.00106841 0 0 0 0 0.00106841 0 0 0 0 0.00106841 0 0 0 0.6 0"/>
<feBlend mode="normal" in2="BackgroundImageFix" result="effect1_dropShadow_681_82"/>
<feBlend mode="normal" in="SourceGraphic" in2="effect1_dropShadow_681_82" result="shape"/>
</filter>
</defs>
</svg>
