<svg width="55" height="54" viewBox="0 0 55 54" fill="none" xmlns="http://www.w3.org/2000/svg">
<g filter="url(#filter0_d_681_72)">
<path d="M22.1881 5.50112C22.4218 5.57135 22.642 5.719 22.834 5.87981C23.0349 6.04807 23.2462 6.26536 23.4615 6.5232C23.8925 7.03951 24.3666 7.74931 24.8346 8.63167C25.7718 10.3987 26.7035 12.8935 27.2118 15.9967C27.7197 19.0979 27.6552 21.831 27.2812 23.9459C27.0943 25.0028 26.8281 25.916 26.5109 26.6481C26.1989 27.3678 25.8161 27.962 25.3671 28.3264C24.9001 28.7054 24.2384 28.8401 23.5806 28.8622C22.9022 28.885 22.123 28.7917 21.3236 28.6193C19.7259 28.2746 17.9561 27.5938 16.5984 26.7627C13.0917 24.6162 12.6028 20.2931 15.3792 18.1335C17.5866 16.4165 19.0238 13.9074 19.5395 9.30602C19.6295 8.50234 19.7349 7.8547 19.8612 7.33984C19.9859 6.83122 20.1401 6.41579 20.3467 6.10099C20.5632 5.77118 20.8502 5.5343 21.2199 5.44161C21.5663 5.35484 21.9048 5.41599 22.1881 5.50112Z" fill="url(#paint0_linear_681_72)" stroke="white" stroke-width="1.2" stroke-linejoin="round"/>
<path d="M38.7661 36.6624C38.9601 36.6438 39.1512 36.7207 39.2783 36.8683C39.353 36.9551 39.4251 37.0466 39.4947 37.1424C40.1088 37.9876 40.5384 39.2558 40.3061 41.4458C40.1933 42.5074 39.8354 43.455 39.2382 44.2523C39.0307 44.5293 38.7957 44.7867 38.5345 45.0228C38.3982 45.146 38.2543 45.2634 38.1045 45.3748C37.957 45.4843 37.8021 45.589 37.6402 45.688C36.4002 46.4457 34.7435 46.8834 32.6981 46.9009C30.3438 46.9209 28.4263 47.1911 27.0167 47.5305C26.3126 47.7001 25.7325 47.887 25.2872 48.0702C25.2655 48.0791 25.2434 48.0896 25.2119 48.1036L25.1588 48.1275C24.8622 48.2602 24.5132 48.133 24.3723 47.8401C24.2755 47.6388 24.1635 47.4394 24.0396 47.2404C23.7313 46.7451 23.3342 46.2178 22.8979 45.6277C22.0223 44.444 20.964 42.9749 20.0334 40.8848C19.8401 40.4506 19.6847 40.0341 19.5627 39.6349C19.4914 39.401 19.5686 39.147 19.7587 38.9932C20.2534 38.5928 20.7346 38.0806 21.1939 37.4647C21.4118 37.1726 21.6385 36.8512 21.8665 36.5094L21.9135 36.4481C22.0313 36.3131 22.2044 36.2361 22.3862 36.2425C22.5941 36.2498 22.7835 36.365 22.8865 36.5458C22.9573 36.67 23.0535 36.7697 23.185 36.8282L23.3088 36.8675C23.435 36.8925 23.5661 36.8761 23.6934 36.8332L23.8067 36.7887C23.9205 36.7367 24.0375 36.6634 24.1568 36.5737L24.2115 36.531C24.3434 36.4269 24.4845 36.2984 24.6322 36.1456L24.6845 36.0971C24.8122 35.9931 24.9782 35.9456 25.1435 35.9678C25.3325 35.9933 25.4982 36.107 25.5898 36.2743C25.9491 36.9317 26.4469 37.6028 27.1122 38.2013C28.179 39.1609 29.6952 39.9521 31.8117 40.1909C31.9101 40.202 32.0104 40.2121 32.1117 40.2209C32.3079 40.2377 32.5001 40.2471 32.6875 40.2491C32.9827 40.2524 33.2673 40.2376 33.5414 40.207C35.7181 39.964 37.315 38.6875 38.303 36.9617L38.3426 36.9012C38.4431 36.7663 38.5965 36.6787 38.7661 36.6624Z" fill="url(#paint1_radial_681_72)" stroke="white" stroke-width="1.2" stroke-linejoin="round"/>
<path d="M42.9962 25.7162C44.2141 26.2926 45.4443 27.2163 46.3299 28.8225C46.5647 29.2483 46.7729 29.6509 46.9647 30.0331L47.4981 31.1227L47.797 31.7393C48.0735 32.3029 48.3434 32.8221 48.6467 33.303C48.806 33.5561 48.7547 33.8883 48.5263 34.0814C48.2012 34.3562 47.9145 34.7287 47.6504 35.1875C47.215 35.9443 46.8219 36.9645 46.4025 38.2451C45.9883 39.5099 44.9202 41.8766 43.0787 43.3286C42.4134 43.8532 41.6467 44.2585 40.7688 44.4494C40.5437 44.4983 40.3103 44.414 40.1685 44.2325C40.0267 44.051 40.0008 43.8044 40.1026 43.5978C40.4162 42.9617 40.619 42.2547 40.7005 41.4873C40.9405 39.2252 40.5009 37.8527 39.816 36.9098C39.6013 36.6145 39.3648 36.364 39.1234 36.1445C38.9462 35.9835 38.8816 35.7323 38.9593 35.5058C39.1267 35.0187 39.2553 34.5104 39.3436 33.9919C39.3707 33.8335 39.4597 33.6924 39.5915 33.6005C40.2461 33.1444 40.9721 32.4803 41.5405 31.6374C42.3292 30.4676 42.8223 28.9398 42.3786 27.1397L42.3778 27.1392C42.3225 26.915 42.2542 26.6873 42.1736 26.4568C42.0937 26.2284 42.1587 25.9735 42.3386 25.8117C42.5184 25.6501 42.7776 25.6128 42.9962 25.7162Z" fill="url(#paint2_radial_681_72)" stroke="white" stroke-width="1.2" stroke-linejoin="round"/>
<path d="M35.0743 18.3416C35.27 18.2858 35.4834 18.3321 35.6382 18.4703C36.5722 19.304 37.8454 20.5709 39.0196 22.0124C39.4102 22.4919 39.7856 22.9853 40.1315 23.4835C40.3166 23.7502 40.4936 24.019 40.6606 24.288C40.8631 24.6143 41.0512 24.9416 41.2206 25.268C41.5624 25.9271 41.8331 26.5902 41.9919 27.2344C42.4034 28.9037 41.9515 30.3182 41.2113 31.4162C40.9969 31.7343 40.7592 32.0235 40.5145 32.2826C40.3485 32.4583 40.093 32.5177 39.8668 32.4325C39.6407 32.3473 39.4882 32.1344 39.4793 31.8929C39.4355 30.7088 39.1858 29.5486 38.7324 28.5185C38.6708 28.3786 38.6049 28.2411 38.536 28.1067L38.5363 28.1057C38.4643 27.9654 38.3887 27.8315 38.3102 27.7044C38.1615 27.4633 38.0015 27.2446 37.8318 27.0466C36.6163 25.6283 34.8365 25.1908 33.1213 25.2638L32.7793 25.2854C32.1255 25.3388 31.483 25.4619 30.8845 25.6286C30.6878 25.6833 30.4766 25.6338 30.3242 25.4979C30.1719 25.362 30.0992 25.1581 30.131 24.9565C30.1863 24.6077 30.1983 24.2942 30.1591 24.0217C30.0874 23.525 29.8418 23.1389 29.3747 22.9232L29.3749 22.9223C29.1002 22.7957 28.8443 22.773 28.6074 22.816C28.4242 22.8494 28.2355 22.7958 28.0973 22.6709C27.9592 22.5461 27.887 22.3642 27.9016 22.1787C27.9418 21.6722 27.9655 21.1421 27.9708 20.5914C27.9733 20.3329 28.1415 20.1044 28.3877 20.0253C28.9219 19.8538 29.4691 19.7402 29.9938 19.6994L30.3663 19.6645C32.2248 19.4596 33.9894 18.8244 34.9917 18.3718L35.0743 18.3416Z" fill="url(#paint3_radial_681_72)" stroke="white" stroke-width="1.2" stroke-linejoin="round"/>
<path d="M30.729 31.7526C32.1785 31.7803 33.4697 32.3773 34.1314 33.3859C34.2426 33.5556 34.2606 33.7703 34.1792 33.9561C34.0666 34.2128 33.9164 34.4244 33.7479 34.5973C33.222 35.1369 32.3957 35.4399 31.402 35.5289C29.9662 35.6575 28.2589 35.3339 26.7871 34.7405C26.619 34.6727 26.4907 34.5326 26.4378 34.3592C26.3849 34.1858 26.4133 33.9981 26.5149 33.848C27.5146 32.3723 29.1656 31.7229 30.729 31.7526Z" fill="url(#paint4_radial_681_72)" stroke="white" stroke-width="1.2" stroke-linejoin="round"/>
<path d="M29.7867 27.7366C30.3757 27.8838 31.0064 28.1093 31.6067 28.4396C32.6689 29.024 33.6305 29.9307 34.1067 31.3109C34.1884 31.5478 34.1143 31.8106 33.9209 31.9699C33.7274 32.1291 33.455 32.1516 33.2383 32.0258C32.5065 31.6006 31.6183 31.3737 30.738 31.3569C30.0276 31.3435 29.2901 31.462 28.5954 31.7276C28.3679 31.8145 28.1104 31.7561 27.9437 31.5786C27.7771 31.4012 27.7342 31.1403 27.835 30.9189C27.8792 30.8221 27.9233 30.7241 27.9669 30.6261C28.0327 30.4781 28.0985 30.3307 28.1638 30.1846L28.225 30.049L28.2401 30.0158L28.2403 30.0148L28.4054 29.6453C28.4646 29.5129 28.5233 29.3815 28.5809 29.2514L28.7415 28.8867C28.8615 28.6138 28.9778 28.3459 29.0887 28.0845L29.1399 27.9888C29.2776 27.7791 29.5359 27.6739 29.7867 27.7366Z" fill="url(#paint5_radial_681_72)" stroke="white" stroke-width="1.2" stroke-linejoin="round"/>
<path d="M32.8131 25.6797C34.9013 25.5093 37.0564 26.0824 38.1863 28.2879C39.3393 30.5387 39.3855 33.5711 38.3555 35.9693C37.8474 37.1524 37.079 38.1876 36.0307 38.8936C34.9759 39.6039 33.6718 39.9575 32.1456 39.8265C28.6102 39.5229 26.7206 37.6259 25.8477 35.9218C25.7334 35.6986 25.7702 35.4276 25.9396 35.2428C26.1091 35.0579 26.3757 34.9973 26.608 35.0918C28.1727 35.7285 29.951 36.0568 31.4383 35.9236C32.4804 35.8302 33.4145 35.5083 34.0328 34.874C34.659 34.2313 34.931 33.2991 34.707 32.0573C34.3498 30.0768 33.1454 28.8349 31.7972 28.093C31.2688 27.8023 30.7143 27.5868 30.1737 27.4317C29.9253 27.3603 29.7506 27.1383 29.7399 26.8801C29.7293 26.6218 29.8853 26.3853 30.1271 26.294C30.9188 25.9949 31.8529 25.7581 32.8131 25.6797Z" fill="url(#paint6_radial_681_72)" stroke="white" stroke-width="1.2" stroke-linejoin="round"/>
<path d="M29.2958 23.3273C29.3889 23.3801 29.4968 23.461 29.5874 23.5896C29.6998 23.7491 29.7451 23.9255 29.7672 24.079C29.8245 24.4776 29.7513 25.0022 29.57 25.6438C29.2447 26.7944 28.5977 28.24 27.8716 29.8658C27.7837 30.0626 27.6939 30.2626 27.6035 30.4658C26.7754 32.3264 25.8607 33.9314 25.0536 35.0208C24.7045 35.4919 24.3826 35.8546 24.1054 36.1017C23.9295 36.2585 23.6783 36.2983 23.4629 36.2027C23.2475 36.1069 23.1084 35.8932 23.107 35.6574C23.1049 35.2859 23.1591 34.804 23.2754 34.2294C23.5446 32.9006 24.1247 31.1467 24.9528 29.2861C25.0436 29.0821 25.1326 28.8805 25.2203 28.6826C25.9426 27.054 26.5871 25.5979 27.2262 24.5814C27.5833 24.0136 27.9247 23.6075 28.2575 23.3857L28.3716 23.3168C28.4939 23.25 28.6436 23.194 28.818 23.1927L28.8176 23.1936C28.9934 23.1922 29.13 23.2468 29.2095 23.2835L29.2958 23.3273Z" fill="url(#paint7_linear_681_72)" stroke="white" stroke-width="1.2" stroke-linejoin="round"/>
<path d="M13.9254 25.2742C14.1553 25.2138 14.3995 25.2947 14.5476 25.4806C15.0365 26.0942 15.6538 26.6484 16.3928 27.1008C17.792 27.9573 19.6035 28.6532 21.2399 29.0063C22.0194 29.1745 22.7948 29.2733 23.4901 29.2614L23.5991 29.2687C23.8471 29.3097 24.0481 29.5041 24.092 29.7595C24.1836 30.2921 24.0911 30.9085 23.9207 31.517C23.7468 32.1374 23.475 32.8094 23.1536 33.4788C22.5109 34.8177 21.6438 36.1994 20.8765 37.2281L20.8709 37.2366L20.6856 37.4767L20.6805 37.4833C19.6735 38.7503 18.6199 39.4426 17.6054 39.5958C16.5629 39.7532 15.6702 39.3237 15.0836 38.585C15.0203 38.5053 14.9628 38.423 14.9181 38.3588L14.9183 38.3579C14.7794 38.1583 14.7062 38.0671 14.596 38.002C14.4972 37.9436 14.296 37.8682 13.8501 37.9053C12.8606 37.9876 12.1292 38.6125 10.8885 39.8469L10.74 39.995C10.1035 40.6299 9.25468 41.4791 8.44349 42.0346C8.04126 42.31 7.59247 42.5536 7.14217 42.6356C6.65528 42.7243 6.13874 42.6229 5.74943 42.1803C5.57269 41.9793 5.45016 41.7423 5.41296 41.4745C5.37621 41.2093 5.42916 40.9604 5.5237 40.743C5.7034 40.3301 6.06044 39.9698 6.4324 39.667C7.18857 39.0517 8.2983 38.4482 9.23221 37.9378L9.40305 37.8444L9.6423 37.7032C10.8213 36.9558 11.7633 35.5837 11.9254 34.2156C12.0218 33.4005 12.0155 32.9326 11.8998 32.5193C11.7828 32.1014 11.5381 31.679 11.0271 30.9885C10.3218 30.0351 10.1358 28.819 10.628 27.7125C11.1186 26.6098 12.2332 25.7194 13.9254 25.2742Z" fill="url(#paint8_linear_681_72)" stroke="white" stroke-width="1.2" stroke-linejoin="round"/>
</g>
<defs>
<filter id="filter0_d_681_72" x="0.000781059" y="-0.000195503" width="54.1391" height="53.5805" filterUnits="userSpaceOnUse" color-interpolation-filters="sRGB">
<feFlood flood-opacity="0" result="BackgroundImageFix"/>
<feColorMatrix in="SourceAlpha" type="matrix" values="0 0 0 0 0 0 0 0 0 0 0 0 0 0 0 0 0 0 127 0" result="hardAlpha"/>
<feOffset/>
<feGaussianBlur stdDeviation="2.4"/>
<feComposite in2="hardAlpha" operator="out"/>
<feColorMatrix type="matrix" values="0 0 0 0 1 0 0 0 0 1 0 0 0 0 1 0 0 0 0.5 0"/>
<feBlend mode="normal" in2="BackgroundImageFix" result="effect1_dropShadow_681_72"/>
<feBlend mode="normal" in="SourceGraphic" in2="effect1_dropShadow_681_72" result="shape"/>
</filter>
<linearGradient id="paint0_linear_681_72" x1="24.978" y1="28.1997" x2="12.6508" y2="14.3903" gradientUnits="userSpaceOnUse">
<stop/>
<stop offset="1" stop-color="#666666"/>
</linearGradient>
<radialGradient id="paint1_radial_681_72" cx="0" cy="0" r="1" gradientUnits="userSpaceOnUse" gradientTransform="translate(30.1101 37.9629) rotate(110.868) scale(12.4689 21.2517)">
<stop stop-color="#992D2D"/>
<stop offset="1" stop-color="#FF4C4C"/>
</radialGradient>
<radialGradient id="paint2_radial_681_72" cx="0" cy="0" r="1" gradientUnits="userSpaceOnUse" gradientTransform="translate(40.0279 34.8997) rotate(9.18392) scale(8.629 8.17943)">
<stop stop-color="#992D2D"/>
<stop offset="1" stop-color="#FF4C4C"/>
</radialGradient>
<radialGradient id="paint3_radial_681_72" cx="0" cy="0" r="1" gradientUnits="userSpaceOnUse" gradientTransform="translate(34.72 26.841) rotate(-74.3051) scale(6.41104 10.6338)">
<stop stop-color="#992D2D"/>
<stop offset="1" stop-color="#FF4C4C"/>
</radialGradient>
<radialGradient id="paint4_radial_681_72" cx="0" cy="0" r="1" gradientTransform="matrix(-6.39575 0.775281 -2.80629 -15.7308 33.3941 33.6653)" gradientUnits="userSpaceOnUse">
<stop stop-color="#992D2D"/>
<stop offset="1" stop-color="#FF4C4C"/>
</radialGradient>
<radialGradient id="paint5_radial_681_72" cx="0" cy="0" r="1" gradientTransform="matrix(2.28196 -2.75445 5.55146 4.39783 28.9576 31.9923)" gradientUnits="userSpaceOnUse">
<stop stop-color="#992D2D"/>
<stop offset="1" stop-color="#FF4C4C"/>
</radialGradient>
<radialGradient id="paint6_radial_681_72" cx="0" cy="0" r="1" gradientTransform="matrix(7.3452 3.41756 -4.05985 7.19716 31.61 31.891)" gradientUnits="userSpaceOnUse">
<stop stop-color="#992D2D"/>
<stop offset="1" stop-color="#FF4C4C"/>
</radialGradient>
<linearGradient id="paint7_linear_681_72" x1="24.6491" y1="35.4735" x2="22.2144" y2="33.9755" gradientUnits="userSpaceOnUse">
<stop/>
<stop offset="1" stop-color="#666666"/>
</linearGradient>
<linearGradient id="paint8_linear_681_72" x1="25.018" y1="29.9789" x2="8.63273" y2="30.7079" gradientUnits="userSpaceOnUse">
<stop/>
<stop offset="1" stop-color="#666666"/>
</linearGradient>
</defs>
</svg>
