<svg width="12" height="12" viewBox="0 0 12 12" fill="none" xmlns="http://www.w3.org/2000/svg">
<path d="M9.46906 2.71021L6.88406 1.21521C6.38906 0.930215 5.61406 0.930215 5.11906 1.21521L2.50906 2.72021C1.47406 3.42021 1.41406 3.52521 1.41406 4.64021V7.35521C1.41406 8.47021 1.47406 8.58021 2.52906 9.29021L5.11406 10.7852C5.36406 10.9302 5.68406 11.0002 5.99906 11.0002C6.31406 11.0002 6.63406 10.9302 6.87906 10.7852L9.48906 9.28021C10.5241 8.58021 10.5841 8.47521 10.5841 7.36021V4.64021C10.5841 3.52521 10.5241 3.42021 9.46906 2.71021ZM5.99906 7.62521C5.10406 7.62521 4.37406 6.89521 4.37406 6.00021C4.37406 5.10521 5.10406 4.37521 5.99906 4.37521C6.89406 4.37521 7.62406 5.10521 7.62406 6.00021C7.62406 6.89521 6.89406 7.62521 5.99906 7.62521Z" fill="white"/>
</svg>
