<svg width="41" height="32" viewBox="0 0 41 32" fill="none" xmlns="http://www.w3.org/2000/svg">
<path fill-rule="evenodd" clip-rule="evenodd" d="M7.0863 6.2342C3.49489 11.0039 -1.21858 19.8297 2.5048 22.782C5.69579 25.3122 11.2905 20.554 13.5054 18.6702C15.4065 17.0533 17.4977 17.8506 19.6846 18.4561C21.8714 19.0617 24.0749 19.4535 24.8736 21.818C25.8041 24.5727 28.1546 31.5309 32.1926 31.0024C36.9042 30.3856 37.4016 20.3924 36.775 14.4548C36.1483 8.51716 31.9649 5.96143 28.3434 7.05472C25.539 7.90134 23.639 7.49275 22.7842 7.2619C21.9323 7.02017 20.0928 6.39332 18.1232 4.22481C15.5799 1.42453 10.6777 1.46452 7.0863 6.2342Z" fill="url(#paint0_radial_1034_640)"/>
<path d="M22.7842 7.2619C23.639 7.49275 25.539 7.90134 28.3434 7.05472C31.9649 5.96143 36.1483 8.51716 36.775 14.4548C37.4016 20.3924 36.9042 30.3856 32.1926 31.0024C28.1546 31.5309 25.8041 24.5727 24.8736 21.818C24.0749 19.4535 21.8714 19.0617 19.6846 18.4561C17.4977 17.8506 15.4065 17.0533 13.5054 18.6702C11.2905 20.554 5.69579 25.3122 2.5048 22.782C-1.21858 19.8297 3.49489 11.0039 7.0863 6.2342C10.6777 1.46452 15.5799 1.42453 18.1232 4.22481C20.0928 6.39332 21.9323 7.02017 22.7842 7.2619ZM22.7842 7.2619C22.8022 7.26701 22.8198 7.27195 22.8369 7.27673" stroke="#003A0F"/>
<circle cx="12.9697" cy="7.68884" r="1.3517" transform="rotate(15.477 12.9697 7.68884)" fill="#66AB75" stroke="#003A0F"/>
<circle cx="11.3526" cy="13.5292" r="1.3517" transform="rotate(15.477 11.3526 13.5292)" fill="#66AB75" stroke="#003A0F"/>
<circle cx="15.0803" cy="11.4169" r="1.3517" transform="rotate(105.477 15.0803 11.4169)" fill="#66AB75" stroke="#003A0F"/>
<circle cx="9.24049" cy="9.80019" r="1.3517" transform="rotate(105.477 9.24049 9.80019)" fill="#66AB75" stroke="#003A0F"/>
<path d="M34.5099 16.9715L34.2405 17.9447C34.1653 18.2161 33.8845 18.3749 33.6132 18.2999L32.3153 17.9406C31.5116 17.718 30.6787 18.1897 30.4562 18.9934L30.0968 20.2912C30.0215 20.5624 29.7409 20.7216 29.4695 20.6465L28.4964 20.377C28.2251 20.3019 28.0662 20.021 28.1411 19.7497L28.5005 18.4519C28.723 17.6481 28.2514 16.8153 27.4477 16.5927L26.1498 16.2334C25.8786 16.158 25.7195 15.8774 25.7946 15.6061L26.064 14.6329C26.1392 14.3616 26.42 14.2028 26.6914 14.2777L27.9892 14.637C28.7929 14.8596 29.6258 14.3879 29.8483 13.5842L30.2077 12.2864C30.2829 12.0151 30.5636 11.856 30.835 11.9311L31.8081 12.2006C32.0795 12.2757 32.2384 12.5565 32.1634 12.8279L31.804 14.1257C31.5815 14.9295 32.0531 15.7623 32.8568 15.9848L34.1547 16.3442C34.426 16.4195 34.5851 16.7001 34.5099 16.9715Z" fill="#66AB75" stroke="#003A0F" stroke-linejoin="round"/>
<defs>
<radialGradient id="paint0_radial_1034_640" cx="0" cy="0" r="1" gradientUnits="userSpaceOnUse" gradientTransform="translate(23.4996 7.4458) rotate(107.526) scale(20.6565 31.9269)">
<stop stop-color="#A8BAC4"/>
<stop offset="1" stop-color="#778A94"/>
</radialGradient>
</defs>
</svg>
