<svg width="45" height="45" viewBox="0 0 45 45" fill="none" xmlns="http://www.w3.org/2000/svg">
<path d="M14.6619 9.39469C17.026 8.05104 20.0121 8.16638 22.9917 9.58333C25.9688 10.9992 28.8695 13.691 30.9465 17.345C33.0234 20.999 33.8518 24.8677 33.5453 28.15C33.2385 31.4352 31.8103 34.0606 29.4463 35.4044C27.0822 36.7483 24.095 36.6326 21.1152 35.2154C18.1383 33.7996 15.2379 31.1084 13.1609 27.4546C11.0839 23.8006 10.255 19.9312 10.5616 16.6488C10.8685 13.3635 12.2978 10.7385 14.6619 9.39469Z" fill="url(#paint0_radial_1034_620)" stroke="#003A0F" stroke-width="1.5"/>
<path d="M15.7576 26.313C16.2584 26.0963 16.7581 25.8774 17.2565 25.6563C17.7015 25.4589 18.1455 25.2598 18.5886 25.0589L18.2827 25.0142C19.2747 26.1773 20.2807 27.3264 21.3007 28.4618C21.7164 28.8951 22.3569 28.5156 22.2024 27.9353C21.7877 26.1435 21.3454 24.3596 20.8757 22.5834L19.8907 23.4419C20.6766 23.8031 21.465 24.1586 22.2559 24.5083C22.8764 24.7822 23.4152 24.353 23.2934 23.6858C23.2613 23.5091 23.2288 23.3325 23.1962 23.1559C22.7899 20.9614 22.3422 18.7744 21.8531 16.5952L20.7872 17.1373C22.3684 18.6862 23.9796 20.2066 25.6209 21.6985C25.684 21.7761 25.8173 21.788 25.9103 21.751C26.2975 21.5248 26.684 21.2971 27.0697 21.0679C27.5385 20.7893 28.0062 20.5085 28.4727 20.2254C27.9624 20.4186 27.4531 20.614 26.9449 20.8117C26.5267 20.9744 26.1092 21.1386 25.6925 21.3043L25.9819 21.3568C24.5823 19.6361 23.1526 17.9439 21.6928 16.2801C21.2185 15.7942 20.493 16.1565 20.6269 16.8222C20.9502 19.0321 21.315 21.2344 21.7212 23.429C21.7539 23.6055 21.7869 23.782 21.8201 23.9585L22.8576 23.136C22.0645 22.7912 21.2689 22.4521 20.4708 22.1189C19.8363 21.8505 19.2893 22.3171 19.4858 22.9774C20.0181 24.7358 20.5778 26.4865 21.165 28.2294L22.0668 27.7029C20.9411 26.6722 19.8015 25.6554 18.6479 24.6524C18.5675 24.5825 18.4315 24.5499 18.342 24.6078C17.9337 24.8722 17.5263 25.1383 17.1198 25.4062C16.6645 25.7063 16.2105 26.0086 15.7576 26.313Z" fill="#003A0F"/>
<defs>
<radialGradient id="paint0_radial_1034_620" cx="0" cy="0" r="1" gradientTransform="matrix(-6.96675 18.6505 -18.2015 -14.7898 23.3063 15.0478)" gradientUnits="userSpaceOnUse">
<stop offset="0.543392" stop-color="white"/>
<stop offset="1" stop-color="#999999"/>
</radialGradient>
</defs>
</svg>
