<svg width="26" height="17" viewBox="0 0 26 17" fill="none" xmlns="http://www.w3.org/2000/svg">
<g filter="url(#filter0_d_953_87)">
<rect width="10.593" height="13.8357" rx="0.864733" transform="matrix(0.866025 0.5 -0.866025 0.5 13.0469 2.24854)" fill="white"/>
<path d="M15.293 6.35606C15.293 6.35606 14.0471 7.52043 13.9376 8.18722C13.8281 8.85401 14.4505 9.86903 14.4505 9.86903C14.4505 9.86903 12.6924 9.50969 11.5375 9.57294C10.3826 9.63618 8.36581 10.3554 8.36581 10.3554C8.36581 10.3554 9.61162 9.19107 9.72116 8.52428C9.8307 7.8575 9.2083 6.84247 9.2083 6.84247C9.2083 6.84247 10.9664 7.20181 12.1213 7.13857C13.2762 7.07532 15.293 6.35606 15.293 6.35606Z" fill="#FFC729"/>
</g>
<defs>
<filter id="filter0_d_953_87" x="0.00176167" y="-0.00019145" width="25.2816" height="16.7118" filterUnits="userSpaceOnUse" color-interpolation-filters="sRGB">
<feFlood flood-opacity="0" result="BackgroundImageFix"/>
<feColorMatrix in="SourceAlpha" type="matrix" values="0 0 0 0 0 0 0 0 0 0 0 0 0 0 0 0 0 0 127 0" result="hardAlpha"/>
<feOffset dx="1"/>
<feGaussianBlur stdDeviation="1.25107"/>
<feComposite in2="hardAlpha" operator="out"/>
<feColorMatrix type="matrix" values="0 0 0 0 0 0 0 0 0 0 0 0 0 0 0 0 0 0 0.2 0"/>
<feBlend mode="normal" in2="BackgroundImageFix" result="effect1_dropShadow_953_87"/>
<feBlend mode="normal" in="SourceGraphic" in2="effect1_dropShadow_953_87" result="shape"/>
</filter>
</defs>
</svg>
