<svg width="22" height="47" viewBox="0 0 22 47" fill="none" xmlns="http://www.w3.org/2000/svg">
<g filter="url(#filter0_d_988_63)">
<rect width="13.3839" height="17.481" rx="1.09256" transform="matrix(0.919078 -0.394074 0.295846 0.955236 0.976562 6.18018)" fill="white"/>
<path fill-rule="evenodd" clip-rule="evenodd" d="M8.98458 9.53043C8.19938 7.95977 5.54516 8.40455 5.19556 10.8085C4.84597 13.2125 8.65501 15.2203 10.9282 15.8061C12.3482 13.6368 14.167 9.21587 12.5849 7.64019C11.0027 6.0645 8.72685 7.73361 8.98458 9.53043Z" fill="#FFC729"/>
</g>
<g filter="url(#filter1_d_988_63)">
<rect width="10.9517" height="14.3043" rx="0.894019" transform="matrix(0.882948 0.469472 -0.275637 0.961262 7.99609 24.6802)" fill="white"/>
<path fill-rule="evenodd" clip-rule="evenodd" d="M13.1475 36.3375C12.3088 37.1749 11.1533 36.4753 10.8411 35.5118C10.8087 36.8435 11.1235 37.8874 11.355 38.3504L8.59221 36.8814C8.99271 36.7545 9.74345 36.2776 10.3822 35.2689C9.67288 35.6882 8.47559 35.1362 8.27562 33.7471C8.03034 32.0431 10.5183 30.824 12.0068 30.5261C12.9533 32.1187 14.1758 35.3107 13.1475 36.3375Z" fill="#111C32"/>
</g>
<defs>
<filter id="filter0_d_988_63" x="-0.00107229" y="-9.57251e-05" width="21.9301" height="26.287" filterUnits="userSpaceOnUse" color-interpolation-filters="sRGB">
<feFlood flood-opacity="0" result="BackgroundImageFix"/>
<feColorMatrix in="SourceAlpha" type="matrix" values="0 0 0 0 0 0 0 0 0 0 0 0 0 0 0 0 0 0 127 0" result="hardAlpha"/>
<feOffset dx="1.25107" dy="1.25107"/>
<feGaussianBlur stdDeviation="1.25107"/>
<feComposite in2="hardAlpha" operator="out"/>
<feColorMatrix type="matrix" values="0 0 0 0 0 0 0 0 0 0 0 0 0 0 0 0 0 0 0.2 0"/>
<feBlend mode="normal" in2="BackgroundImageFix" result="effect1_dropShadow_988_63"/>
<feBlend mode="normal" in="SourceGraphic" in2="effect1_dropShadow_988_63" result="shape"/>
</filter>
<filter id="filter1_d_988_63" x="3.01065" y="23.7514" width="18.1996" height="23.2514" filterUnits="userSpaceOnUse" color-interpolation-filters="sRGB">
<feFlood flood-opacity="0" result="BackgroundImageFix"/>
<feColorMatrix in="SourceAlpha" type="matrix" values="0 0 0 0 0 0 0 0 0 0 0 0 0 0 0 0 0 0 127 0" result="hardAlpha"/>
<feOffset dx="1.25107" dy="1.25107"/>
<feGaussianBlur stdDeviation="1.25107"/>
<feComposite in2="hardAlpha" operator="out"/>
<feColorMatrix type="matrix" values="0 0 0 0 0 0 0 0 0 0 0 0 0 0 0 0 0 0 0.2 0"/>
<feBlend mode="normal" in2="BackgroundImageFix" result="effect1_dropShadow_988_63"/>
<feBlend mode="normal" in="SourceGraphic" in2="effect1_dropShadow_988_63" result="shape"/>
</filter>
</defs>
</svg>
