<svg width="37" height="58" viewBox="0 0 37 58" fill="none" xmlns="http://www.w3.org/2000/svg">
<g filter="url(#filter0_d_984_62)">
<rect width="13.3839" height="17.481" rx="1.09256" transform="matrix(0.919078 -0.394074 0.295846 0.955236 0.976562 6.18018)" fill="white"/>
<path fill-rule="evenodd" clip-rule="evenodd" d="M8.98458 9.53043C8.19938 7.95977 5.54516 8.40455 5.19556 10.8085C4.84597 13.2125 8.65501 15.2203 10.9282 15.8061C12.3482 13.6368 14.167 9.21587 12.5849 7.64019C11.0027 6.0645 8.72685 7.73361 8.98458 9.53043Z" fill="#FFC729"/>
</g>
<g filter="url(#filter1_d_984_62)">
<rect width="10.9517" height="14.3043" rx="0.894019" transform="matrix(0.882948 0.469472 -0.275637 0.961262 7.99609 24.6802)" fill="white"/>
<path fill-rule="evenodd" clip-rule="evenodd" d="M13.1475 36.3375C12.3088 37.1749 11.1533 36.4753 10.8411 35.5118C10.8087 36.8435 11.1235 37.8874 11.355 38.3504L8.59221 36.8814C8.99271 36.7545 9.74345 36.2776 10.3822 35.2689C9.67288 35.6882 8.47559 35.1362 8.27562 33.7471C8.03034 32.0431 10.5183 30.824 12.0068 30.5261C12.9533 32.1187 14.1758 35.3107 13.1475 36.3375Z" fill="#111C32"/>
</g>
<g filter="url(#filter2_d_984_62)">
<rect width="10.593" height="13.8357" rx="0.864733" transform="matrix(0.866025 0.5 -0.866025 0.5 24.6406 43.1455)" fill="white"/>
<path d="M26.8867 47.253C26.8867 47.253 25.6409 48.4174 25.5314 49.0842C25.4218 49.751 26.0442 50.766 26.0442 50.766C26.0442 50.766 24.2861 50.4067 23.1312 50.4699C21.9763 50.5332 19.9596 51.2524 19.9596 51.2524C19.9596 51.2524 21.2054 50.088 21.3149 49.4213C21.4244 48.7545 20.8021 47.7394 20.8021 47.7394C20.8021 47.7394 22.5601 48.0988 23.715 48.0355C24.87 47.9723 26.8867 47.253 26.8867 47.253Z" fill="#FFC729"/>
</g>
<defs>
<filter id="filter0_d_984_62" x="-0.00107229" y="-9.57251e-05" width="21.9301" height="26.287" filterUnits="userSpaceOnUse" color-interpolation-filters="sRGB">
<feFlood flood-opacity="0" result="BackgroundImageFix"/>
<feColorMatrix in="SourceAlpha" type="matrix" values="0 0 0 0 0 0 0 0 0 0 0 0 0 0 0 0 0 0 127 0" result="hardAlpha"/>
<feOffset dx="1.25107" dy="1.25107"/>
<feGaussianBlur stdDeviation="1.25107"/>
<feComposite in2="hardAlpha" operator="out"/>
<feColorMatrix type="matrix" values="0 0 0 0 0 0 0 0 0 0 0 0 0 0 0 0 0 0 0.2 0"/>
<feBlend mode="normal" in2="BackgroundImageFix" result="effect1_dropShadow_984_62"/>
<feBlend mode="normal" in="SourceGraphic" in2="effect1_dropShadow_984_62" result="shape"/>
</filter>
<filter id="filter1_d_984_62" x="3.01065" y="23.7514" width="18.1996" height="23.2514" filterUnits="userSpaceOnUse" color-interpolation-filters="sRGB">
<feFlood flood-opacity="0" result="BackgroundImageFix"/>
<feColorMatrix in="SourceAlpha" type="matrix" values="0 0 0 0 0 0 0 0 0 0 0 0 0 0 0 0 0 0 127 0" result="hardAlpha"/>
<feOffset dx="1.25107" dy="1.25107"/>
<feGaussianBlur stdDeviation="1.25107"/>
<feComposite in2="hardAlpha" operator="out"/>
<feColorMatrix type="matrix" values="0 0 0 0 0 0 0 0 0 0 0 0 0 0 0 0 0 0 0.2 0"/>
<feBlend mode="normal" in2="BackgroundImageFix" result="effect1_dropShadow_984_62"/>
<feBlend mode="normal" in="SourceGraphic" in2="effect1_dropShadow_984_62" result="shape"/>
</filter>
<filter id="filter2_d_984_62" x="11.5955" y="40.8968" width="25.2816" height="16.7118" filterUnits="userSpaceOnUse" color-interpolation-filters="sRGB">
<feFlood flood-opacity="0" result="BackgroundImageFix"/>
<feColorMatrix in="SourceAlpha" type="matrix" values="0 0 0 0 0 0 0 0 0 0 0 0 0 0 0 0 0 0 127 0" result="hardAlpha"/>
<feOffset dx="1"/>
<feGaussianBlur stdDeviation="1.25107"/>
<feComposite in2="hardAlpha" operator="out"/>
<feColorMatrix type="matrix" values="0 0 0 0 0 0 0 0 0 0 0 0 0 0 0 0 0 0 0.2 0"/>
<feBlend mode="normal" in2="BackgroundImageFix" result="effect1_dropShadow_984_62"/>
<feBlend mode="normal" in="SourceGraphic" in2="effect1_dropShadow_984_62" result="shape"/>
</filter>
</defs>
</svg>
