<svg width="43" height="45" viewBox="0 0 43 45" fill="none" xmlns="http://www.w3.org/2000/svg">
<g filter="url(#filter0_d_953_90)">
<path d="M12.1494 4.9397C9.30763 7.99201 8.7726 12.1758 8.86031 13.8861L11.8868 15.3333C13.8164 14.1931 17.8336 10.8338 18.4651 6.51848C19.2545 1.1243 15.7017 1.1243 12.1494 4.9397Z" fill="white" stroke="#929AAD" stroke-width="0.5"/>
<path d="M18.4687 6.38716C15.2059 8.0712 12.9868 12.0006 12.2852 13.7548C12.3729 15.7721 13.5745 19.4647 17.6793 18.0964C22.8104 16.3861 25.1786 11.6498 25.8364 7.96595C26.4942 4.28212 22.5473 4.28212 18.4687 6.38716Z" fill="white" stroke="#929AAD" stroke-width="0.5"/>
<path d="M34.7803 30.7266C34.1225 30.5951 33.8594 31.3845 33.7278 31.516C33.1577 32.8317 32.0701 35.5683 32.2806 35.9893C32.5437 36.5156 34.7803 35.9893 35.175 35.463C35.4908 35.042 35.3066 34.4105 35.175 34.1474C35.4381 33.7965 35.9644 32.9633 35.9644 32.437C35.9644 31.9108 35.4381 31.9546 35.175 32.0423C35.2627 31.6476 35.3066 30.8319 34.7803 30.7266Z" fill="white" stroke="#929AAD" stroke-width="0.5" stroke-linejoin="round"/>
<path d="M11.7531 34.542C8.06932 32.4369 7.58691 28.8408 7.80619 27.3059C9.73572 26.1656 14.2263 23.28 16.7524 20.8592C19.9099 17.8332 26.0935 18.0963 30.8298 22.1748C35.5662 26.2534 34.2505 34.542 32.2771 36.5154C30.3036 38.4889 25.1725 38.3574 22.015 38.3574C19.4889 38.3574 18.9451 37.3925 18.989 36.9101C17.5154 39.0152 15.7437 38.4012 15.042 37.8311C12.016 39.5415 9.3847 38.4889 9.12157 37.6995C8.85844 36.9101 10.1741 35.9892 10.5688 35.3314C10.8845 34.8051 11.4899 34.5858 11.7531 34.542Z" fill="white" stroke="#929AAD" stroke-width="0.5" stroke-linejoin="round"/>
<path d="M3.33682 25.8585C5.24406 27.9119 10.3098 28.7529 12.8095 28.7529C17.546 28.7529 19.3877 23.885 19.2561 20.7274C19.1246 17.5698 16.2301 12.8335 9.25718 12.8335C3.67881 12.8335 2.63511 18.8855 2.81056 21.9115C2.32816 22.2623 1.62609 24.0165 3.33682 25.8585Z" fill="white"/>
<path d="M17.3276 26.6479C18.7487 24.9502 19.3322 22.553 19.2562 20.7274C19.216 19.7623 18.9176 18.6496 18.3236 17.5698M9.38848 28.4103C7.07853 27.9924 4.55911 27.1744 3.33686 25.8585C1.62613 24.0166 2.32819 22.2623 2.8106 21.9115C2.63515 18.8855 3.67884 12.8335 9.25721 12.8335C10.5307 12.8335 11.6682 12.9915 12.6776 13.269" stroke="#929AAD" stroke-width="0.5" stroke-linecap="round" stroke-linejoin="round"/>
<path d="M4.91605 23.4913C4.47048 23.3389 4.46202 22.5569 4.55512 22.4638C4.95004 22.0689 6.02606 22.4958 6.02606 22.8907C6.02606 23.0223 5.51756 23.697 4.91605 23.4913Z" fill="#929AAD"/>
<path d="M18.0703 35.1999C18.8158 35.2876 20.2017 35.3841 21.3594 35.0684" stroke="#929AAD" stroke-width="0.5" stroke-linecap="round"/>
<path d="M23.2064 34.6736C22.2855 34.3228 20.6537 33.0159 21.4957 30.0688" stroke="#929AAD" stroke-width="0.5" stroke-linecap="round"/>
<path d="M18.9922 36.9105C19.6062 35.7702 21.9129 33.8318 26.2283 35.2001" stroke="#929AAD" stroke-width="0.5" stroke-linecap="round"/>
<path d="M15.0469 37.8312C15.7047 37.3488 17.2835 36.0682 18.336 34.8052" stroke="#929AAD" stroke-width="0.5" stroke-linecap="round"/>
<path d="M3.86328 24.9379C4.21412 25.1572 4.9158 24.9379 5.04737 23.4907C4.98597 24.4117 4.94212 25.9115 6.09989 25.5958" stroke="#929AAD" stroke-width="0.5" stroke-linecap="round" stroke-linejoin="round"/>
<ellipse cx="11.4927" cy="21.6488" rx="1.18409" ry="1.71035" fill="#929AAD"/>
<path d="M15.3086 14.1497C16.7558 10.3343 19.1071 7.1304 23.0997 6.24316" stroke="#929AAD" stroke-width="0.5" stroke-linecap="round" stroke-linejoin="round"/>
<path d="M16.7539 15.5972C17.2802 15.4218 18.4906 14.9393 19.1221 14.4131" stroke="#929AAD" stroke-width="0.5" stroke-linecap="round" stroke-linejoin="round"/>
</g>
<defs>
<filter id="filter0_d_953_90" x="0" y="0" width="42.2148" height="45.001" filterUnits="userSpaceOnUse" color-interpolation-filters="sRGB">
<feFlood flood-opacity="0" result="BackgroundImageFix"/>
<feColorMatrix in="SourceAlpha" type="matrix" values="0 0 0 0 0 0 0 0 0 0 0 0 0 0 0 0 0 0 127 0" result="hardAlpha"/>
<feOffset dx="2" dy="2"/>
<feGaussianBlur stdDeviation="2"/>
<feComposite in2="hardAlpha" operator="out"/>
<feColorMatrix type="matrix" values="0 0 0 0 0.321569 0 0 0 0 0.356863 0 0 0 0 0.423529 0 0 0 0.25 0"/>
<feBlend mode="normal" in2="BackgroundImageFix" result="effect1_dropShadow_953_90"/>
<feBlend mode="normal" in="SourceGraphic" in2="effect1_dropShadow_953_90" result="shape"/>
</filter>
</defs>
</svg>
