<svg width="50" height="24" viewBox="0 0 50 24" fill="none" xmlns="http://www.w3.org/2000/svg">
<path d="M2.45459 11.1432C5.97653 13.5921 5.77975 16.2451 5.38842 17.2655C4.21557 20.3266 4.21443 24 6.56241 24C9.30338 24 9.49738 20.9389 8.91039 18.49C8.21797 15.6012 9.30338 14.1606 11.6367 13.5652C13.97 12.9698 15.3673 14.8166 17.7153 15.4288C21.1367 16.3209 24.0439 11.6405 26.4706 9.91879C31.2538 6.52527 37.0861 6.24543 40.0211 8.69434C42.9561 11.1432 40.5497 12.9799 41.1367 16.6533C41.7237 20.3266 45.891 19.7144 46.478 16.6533C47.065 13.5921 45.891 12.9799 45.891 9.91879C45.891 6.85766 50 6.24543 50 3.79652C50 1.34762 47.065 0.735389 40.6081 1.34762C34.1511 1.95984 31.8032 0.735454 28.8682 0.123227C25.9332 -0.489 24.1722 1.34755 18.3023 1.95978C12.4324 2.572 9.49852 0.123096 4.21557 0.735322C-1.06738 1.34755 -1.06737 8.69425 2.45459 11.1432Z" fill="#FF8A9C"/>
<path d="M3.05965 2.35347C1.05965 3.46651 0.638618 6.60846 1.63744 7.99977C2.13867 3.6519 6.472 1.73885 9.39315 2.35347C8.13867 1.56494 5.05965 1.24042 3.05965 2.35347Z" fill="white"/>
<path d="M5.63864 22.609C4.97198 21.9133 5.17908 19.9772 5.47197 19.1307C5.90304 17.885 5.63867 20.174 6.472 21.3916C7.20971 22.4694 6.47197 23.4785 5.63864 22.609Z" fill="white"/>
<path d="M42.2461 17.7515C41.5794 17.0559 41.7865 15.1197 42.0794 14.2733C42.5105 13.0275 42.2461 15.3166 43.0794 16.5342C43.8171 17.612 43.0794 18.6211 42.2461 17.7515Z" fill="white"/>
</svg>
