<svg width="51" height="24" viewBox="0 0 51 24" fill="none" xmlns="http://www.w3.org/2000/svg">
<path d="M2.50368 10.8924C6.09606 13.2863 5.89535 15.8796 5.49619 16.877C4.29989 19.8692 4.29872 23.46 6.69366 23.46C9.48945 23.46 9.68733 20.4677 9.0886 18.0739C8.38233 15.2502 9.48945 13.842 11.8694 13.26C14.2494 12.678 15.6747 14.4832 18.0696 15.0817C21.5594 15.9537 24.5248 11.3785 27 9.69561C31.8788 6.37845 37.8278 6.1049 40.8215 8.49871C43.8152 10.8925 41.3607 12.6879 41.9595 16.2786C42.5582 19.8693 46.8089 19.2708 47.4076 16.2786C48.0063 13.2863 46.8089 12.6879 46.8089 9.69561C46.8089 6.70335 51 6.1049 51 3.7111C51 1.31729 48.0063 0.718843 41.4203 1.31729C34.8342 1.91575 32.4392 0.718906 29.4456 0.120454C26.4519 -0.477997 24.6557 1.31723 18.6683 1.91568C12.681 2.51413 9.68849 0.120326 4.29988 0.718777C-1.08872 1.31723 -1.08871 8.49863 2.50368 10.8924Z" fill="#E46870"/>
<path d="M3.11998 2.30069C1.07998 3.38868 0.650531 6.45994 1.66933 7.81994C2.18059 3.5699 6.60058 1.6999 9.58016 2.30069C8.30058 1.5299 5.15998 1.21269 3.11998 2.30069Z" fill="white"/>
<path d="M5.75102 22.1002C5.07102 21.4202 5.28227 19.5277 5.58102 18.7002C6.02071 17.4825 5.75105 19.7201 6.60105 20.9102C7.35351 21.9638 6.60102 22.9502 5.75102 22.1002Z" fill="white"/>
<path d="M43.0909 17.3522C42.4109 16.6722 42.6221 14.7796 42.9209 13.9522C43.3606 12.7345 43.0909 14.972 43.9409 16.1622C44.6934 17.2158 43.9409 18.2022 43.0909 17.3522Z" fill="white"/>
</svg>
