<svg width="65" height="31" viewBox="0 0 65 31" fill="none" xmlns="http://www.w3.org/2000/svg">
<path d="M0 0C2.73701 4.10551 9.35424 12.8961 13.9268 15.2148C19.6424 18.1129 16.503 13.8469 15.9395 13.4443C17.1739 14.0079 20.2549 16.0204 22.7021 19.5625C22.7826 19.2674 23.1366 18.5484 23.9092 18.0332C24.8752 17.3892 26.405 15.2953 26.083 12.0752L30.752 19.8037C29.5175 18.4889 26.6951 16.3427 25.2783 18.2744C23.5074 20.6894 24.7142 22.058 26.7266 23.1045C28.739 24.151 30.6719 25.9217 31.3965 28.0146C30.7256 27.0218 29.0133 24.8923 27.5322 24.3125C26.0511 23.7329 24.9295 23.0506 24.5537 22.7822C25.1709 24.3118 26.2926 27.9834 25.8418 30.4307C25.5198 28.3377 23.8775 23.6518 19.8848 21.6553C14.8938 19.1598 14.33 21.6552 15.1348 23.9092C15.9396 26.1632 18.2746 27.7735 21.5752 26.6465C20.2335 27.5588 17.0022 28.7558 14.8125 26.2441C12.0755 23.1046 12.8808 20.2872 14.5713 19.1602C16.2618 18.0331 20.2868 19.5627 21.0918 20.4482C20.8771 19.7237 20.2063 18.1451 19.2402 17.6299C18.0329 16.986 17.9521 17.3087 17.9521 18.0332C17.9502 18.7565 12.075 16.1807 9.82129 14.249C7.56744 12.3171 6.03831 10.3854 5.63574 11.4316C5.23323 12.4782 6.03806 18.4357 8.45312 20.4482C7.24559 19.509 4.41129 16.0847 3.38086 10.8682C2.44266 6.11857 1.69039 3.54209 0 0ZM64.7227 0C63.0323 3.54209 62.28 6.11857 61.3418 10.8682C60.3114 16.0847 57.4771 19.509 56.2695 20.4482C58.6846 18.4357 59.4894 12.4782 59.0869 11.4316C58.6843 10.3854 57.1552 12.3171 54.9014 14.249C52.6477 16.1807 46.7725 18.7565 46.7705 18.0332C46.7705 17.3087 46.6898 16.986 45.4824 17.6299C44.5164 18.1451 43.8455 19.7237 43.6309 20.4482C44.4359 19.5627 48.4608 18.0331 50.1514 19.1602C51.8419 20.2872 52.6472 23.1046 49.9102 26.2441C47.7205 28.7558 44.4892 27.5588 43.1475 26.6465C46.4481 27.7735 48.783 26.1632 49.5879 23.9092C50.3926 21.6552 49.8288 19.1598 44.8379 21.6553C40.8452 23.6518 39.2029 28.3377 38.8809 30.4307C38.43 27.9834 39.5518 24.3118 40.1689 22.7822C39.7932 23.0506 38.6716 23.7329 37.1904 24.3125C35.7093 24.8923 33.997 27.0218 33.3262 28.0146C34.0508 25.9217 35.9836 24.151 37.9961 23.1045C40.0085 22.058 41.2153 20.6894 39.4443 18.2744C38.0275 16.3427 35.2051 18.4889 33.9707 19.8037L38.6396 12.0752C38.3176 15.2953 39.8475 17.3892 40.8135 18.0332C41.5861 18.5484 41.94 19.2674 42.0205 19.5625C44.4678 16.0204 47.5488 14.0079 48.7832 13.4443C48.2197 13.8469 45.0803 18.1129 50.7959 15.2148C55.3684 12.8961 61.9856 4.10551 64.7227 0ZM32.3662 21.8164C32.7688 21.1193 34.3793 20.6092 34.8623 21.5752C35.3451 22.5411 34.9421 23.2659 34.0566 24.1514C33.3484 24.8596 32.6346 25.8948 32.3662 26.3242C32.0978 25.8947 31.384 24.8596 30.6758 24.1514C29.7903 23.2658 29.3881 22.5412 29.8711 21.5752C30.3541 20.6093 31.9636 21.1193 32.3662 21.8164Z" fill="white" fill-opacity="0.3"/>
</svg>
