<svg width="67" height="48" viewBox="0 0 67 48" fill="none" xmlns="http://www.w3.org/2000/svg">
<path d="M1 1C3.73701 5.10551 10.3542 13.8961 14.9268 16.2148C20.6424 19.1129 17.503 14.8469 16.9395 14.4443C18.1739 15.0079 21.2549 17.0204 23.7021 20.5625C23.7826 20.2674 24.1366 19.5484 24.9092 19.0332C25.8752 18.3892 27.405 16.2953 27.083 13.0752L31.752 20.8037C30.5175 19.4889 27.6951 17.3427 26.2783 19.2744C24.5074 21.6894 25.7142 23.058 27.7266 24.1045C29.739 25.151 31.6719 26.9217 32.3965 29.0146C31.7256 28.0218 30.0133 25.8923 28.5322 25.3125C27.0511 24.7329 25.9295 24.0506 25.5537 23.7822C26.1709 25.3118 27.2926 28.9834 26.8418 31.4307C26.5198 29.3377 24.8775 24.6518 20.8848 22.6553C15.8938 20.1598 15.33 22.6552 16.1348 24.9092C16.9396 27.1632 19.2746 28.7735 22.5752 27.6465C21.2335 28.5588 18.0022 29.7558 15.8125 27.2441C13.0755 24.1046 13.8808 21.2872 15.5713 20.1602C17.2618 19.0331 21.2868 20.5627 22.0918 21.4482C21.8771 20.7237 21.2063 19.1451 20.2402 18.6299C19.0329 17.986 18.9521 18.3087 18.9521 19.0332C18.9502 19.7565 13.075 17.1808 10.8213 15.249C8.56744 13.3171 7.03831 11.3854 6.63574 12.4316C6.23323 13.4782 7.03806 19.4357 9.45312 21.4482C8.24559 20.509 5.41129 17.0847 4.38086 11.8682C3.44266 7.11857 2.69039 4.54209 1 1ZM65.7227 1C64.0323 4.54209 63.28 7.11857 62.3418 11.8682C61.3114 17.0847 58.4771 20.509 57.2695 21.4482C59.6846 19.4357 60.4894 13.4782 60.0869 12.4316C59.6843 11.3854 58.1552 13.3171 55.9014 15.249C53.6477 17.1808 47.7725 19.7565 47.7705 19.0332C47.7705 18.3087 47.6898 17.986 46.4824 18.6299C45.5164 19.1451 44.8455 20.7237 44.6309 21.4482C45.4359 20.5627 49.4608 19.0331 51.1514 20.1602C52.8419 21.2872 53.6472 24.1046 50.9102 27.2441C48.7205 29.7558 45.4892 28.5588 44.1475 27.6465C47.4481 28.7735 49.783 27.1632 50.5879 24.9092C51.3926 22.6552 50.8288 20.1598 45.8379 22.6553C41.8452 24.6518 40.2029 29.3377 39.8809 31.4307C39.43 28.9834 40.5518 25.3118 41.1689 23.7822C40.7932 24.0506 39.6716 24.7329 38.1904 25.3125C36.7093 25.8923 34.997 28.0218 34.3262 29.0146C35.0508 26.9217 36.9836 25.151 38.9961 24.1045C41.0085 23.058 42.2153 21.6894 40.4443 19.2744C39.0275 17.3427 36.2051 19.4889 34.9707 20.8037L39.6396 13.0752C39.3176 16.2953 40.8474 18.3892 41.8135 19.0332C42.5861 19.5484 42.94 20.2674 43.0205 20.5625C45.4678 17.0204 48.5488 15.0079 49.7832 14.4443C49.2197 14.8469 46.0803 19.1129 51.7959 16.2148C56.3684 13.8961 62.9856 5.10551 65.7227 1ZM33.3662 22.8164C33.7688 22.1193 35.3793 21.6092 35.8623 22.5752C36.3451 23.5411 35.9421 24.2659 35.0566 25.1514C34.3484 25.8596 33.6346 26.8948 33.3662 27.3242C33.0978 26.8947 32.384 25.8596 31.6758 25.1514C30.7903 24.2658 30.3881 23.5412 30.8711 22.5752C31.3541 21.6093 32.9636 22.1193 33.3662 22.8164Z" fill="white" fill-opacity="0.3"/>
</svg>
