<svg width="13" height="11" viewBox="0 0 13 11" fill="none" xmlns="http://www.w3.org/2000/svg">
<path fill-rule="evenodd" clip-rule="evenodd" d="M6.32747 1.0824C6.78663 1.61865 7.11874 2.41053 7.2001 3.52065C8.00698 3.66742 8.48955 4.11147 8.64557 4.35446C12.0692 4.35446 12.7357 7.09947 12.6398 8.47211C11.9522 8.47211 11.3103 8.29059 10.7642 8.04472C10.042 7.71901 9.487 7.2807 9.21618 7.00152C9.44465 8.41323 7.59908 9.74652 6.64844 10.2368C5.69779 9.74652 3.85223 8.41323 4.08069 7.00152C3.80542 7.2853 3.23704 7.73308 2.49814 8.05994C1.95985 8.29805 1.33017 8.47211 0.657033 8.47211C0.561188 7.09947 1.22764 4.35446 4.6513 4.35446C4.8051 4.11549 5.27318 3.68265 6.05554 3.52841C5.97975 2.6676 5.72565 2.15691 5.47155 1.86193C5.16507 1.50405 4.82182 1.41329 4.6513 1.41329C4.51645 1.41329 4.39274 1.36532 4.29579 1.28547C4.16428 1.17776 4.08069 1.01146 4.08069 0.825052C4.08069 0.643526 4.16093 0.480957 4.28576 0.372961C4.38494 0.287942 4.51199 0.236816 4.6513 0.236816C4.75829 0.236816 4.87308 0.247731 4.99233 0.271283C5.11158 0.294548 5.23529 0.330164 5.36011 0.379567C5.47155 0.423512 5.58412 0.478659 5.69556 0.545583C5.914 0.67627 6.13021 0.852625 6.32747 1.0824Z" fill="#00AE6B"/>
</svg>
