<svg width="40" height="36" viewBox="0 0 40 36" fill="none" xmlns="http://www.w3.org/2000/svg">
<path d="M12.8149 17.3494C15.9935 19.7251 14.5124 22.823 13.4487 24.1373C12.4086 25.4226 11.6831 27.3105 13.9023 28.2406C16.4913 29.3256 16.7414 27.6913 17.5164 25.842C18.2914 23.9927 20.1162 21.7136 24.1248 22.5239C28.1333 23.3342 26.8933 26.2931 28.2178 27.2829C29.5422 28.2728 31.5818 26.5186 29.3979 23.4293C27.6508 20.9579 24.6215 20.9928 23.3252 21.3192C25.7346 19.72 27.5839 20.495 28.9084 21.4849C30.2328 22.4748 33.0366 24.0846 34.9212 22.7004C36.8058 21.3161 39.0357 17.0328 31.8534 14.4576C26.1076 12.3975 22.2381 14.9211 21.0216 16.4404C22.142 11.6921 26.4605 11.7629 28.4049 11.2733C30.3494 10.7837 30.6348 6.99003 25.8512 8.02901C22.0243 8.86019 19.2076 13.5063 18.2776 15.7254C18.7546 13.8962 19.2167 9.33602 17.2493 5.72865C14.79 1.21945 10.687 1.67404 11.2364 4.51319C11.7858 7.35235 14.6848 7.69765 16.3438 11.0018C17.671 13.6451 17.28 16.0321 16.9186 16.8952C12.9315 5.65826 4.47392 8.20122 4.71333 11.7801C4.95274 15.359 8.84162 14.3798 12.8149 17.3494Z" fill="url(#paint0_linear_1065_65)" stroke="url(#paint1_linear_1065_65)" stroke-width="0.5" stroke-linejoin="round"/>
<defs>
<linearGradient id="paint0_linear_1065_65" x1="24.6074" y1="6.37549" x2="15.2137" y2="28.7901" gradientUnits="userSpaceOnUse">
<stop offset="0.149038" stop-color="#D5F8FF"/>
<stop offset="0.778928" stop-color="#A9E2ED"/>
<stop offset="1" stop-color="#A9E2ED" stop-opacity="0"/>
</linearGradient>
<linearGradient id="paint1_linear_1065_65" x1="24.6074" y1="6.37549" x2="15.2137" y2="28.7901" gradientUnits="userSpaceOnUse">
<stop offset="0.110577" stop-color="#AAECF8"/>
<stop offset="0.754062" stop-color="#64BACA"/>
<stop offset="1" stop-color="#64BACA" stop-opacity="0"/>
</linearGradient>
</defs>
</svg>
