<svg width="61" height="51" viewBox="0 0 61 51" fill="none" xmlns="http://www.w3.org/2000/svg">
<g filter="url(#filter0_f_822_83)">
<path d="M-64.8443 53.6592C-62.2374 60.0112 -53.9964 56.6255 -51.7777 53.6592C-43.209 59.563 -35.7285 56.1191 -33.0592 53.6592C-24.9583 66.145 -10.9082 60.9739 -4.89573 56.8276C3.33261 67.207 13.3704 61.1523 17.3608 56.8276C24.871 63.6628 30.7569 58.8318 32.761 55.5618C37.4866 57.3339 40.0744 54.8235 40.7776 53.3467C48.0558 57.1441 60.0807 55.9838 56.1779 47.1233C53.0556 40.035 46.4384 41.9899 43.5201 43.8534C41.4949 38.7059 37.8945 39.5287 36.3474 40.5835C38.1406 37.5949 40.3979 30.6472 35.0816 26.7655C29.7654 22.8837 23.3472 27.0491 20.8026 29.6171C24.5946 23.3554 23.6398 9.17412 10.4849 5.27648C-6.69207 0.187163 -13.857 11.5648 -15.1812 17.4869C-34.3129 14.2304 -38.4174 27.324 -38.0782 34.2779C-52.2438 30.533 -55.0399 39.5701 -54.6672 44.5568C-60.0179 41.871 -68.368 45.0731 -64.8443 53.6592Z" fill="#BC5EFD"/>
</g>
<defs>
<filter id="filter0_f_822_83" x="-69.6855" y="0" width="130.625" height="66.5586" filterUnits="userSpaceOnUse" color-interpolation-filters="sRGB">
<feFlood flood-opacity="0" result="BackgroundImageFix"/>
<feBlend mode="normal" in="SourceGraphic" in2="BackgroundImageFix" result="shape"/>
<feGaussianBlur stdDeviation="2" result="effect1_foregroundBlur_822_83"/>
</filter>
</defs>
</svg>
