<svg width="76" height="44" viewBox="0 0 76 44" fill="none" xmlns="http://www.w3.org/2000/svg">
<g filter="url(#filter0_f_822_44)">
<path d="M4.84128 53.6592C7.44815 60.0112 15.6892 56.6255 17.9078 53.6592C26.4765 59.563 33.9571 56.1191 36.6263 53.6592C44.7273 66.145 58.7774 60.9739 64.7898 56.8276C73.0182 67.207 83.0559 61.1523 87.0463 56.8276C94.5566 63.6628 100.442 58.8318 102.447 55.5618C107.172 57.3339 109.76 54.8235 110.463 53.3467C117.741 57.1441 129.766 55.9838 125.863 47.1233C122.741 40.035 116.124 41.9899 113.206 43.8534C111.18 38.7059 107.58 39.5287 106.033 40.5835C107.826 37.5949 110.083 30.6472 104.767 26.7655C99.4509 22.8837 93.0327 27.0491 90.4882 29.6171C94.2802 23.3554 93.3254 9.17412 80.1704 5.27648C62.9935 0.187163 55.8285 11.5648 54.5044 17.4869C35.3727 14.2304 31.2681 27.324 31.6074 34.2779C17.4417 30.533 14.6457 39.5701 15.0183 44.5568C9.66764 41.871 1.31754 45.0731 4.84128 53.6592Z" fill="#4A89DD"/>
</g>
<defs>
<filter id="filter0_f_822_44" x="0" y="0" width="130.625" height="66.5586" filterUnits="userSpaceOnUse" color-interpolation-filters="sRGB">
<feFlood flood-opacity="0" result="BackgroundImageFix"/>
<feBlend mode="normal" in="SourceGraphic" in2="BackgroundImageFix" result="shape"/>
<feGaussianBlur stdDeviation="2" result="effect1_foregroundBlur_822_44"/>
</filter>
</defs>
</svg>
