<svg width="37" height="50" viewBox="0 0 37 50" fill="none" xmlns="http://www.w3.org/2000/svg">
<g filter="url(#filter0_d_995_78)">
<path d="M18.5 26V14" stroke="#D1A723" stroke-width="2" stroke-linecap="round" stroke-dasharray="4 4"/>
</g>
<g filter="url(#filter1_d_995_78)">
<path d="M18.5 21.5C18.5 21.5 18.8071 25.6536 19.9855 26.9743C21.1639 28.295 24 29 24 29C24 29 21.1639 29.705 19.9855 31.0257C18.8071 32.3464 18.5 36.5 18.5 36.5C18.5 36.5 18.1929 32.3464 17.0145 31.0257C15.8361 29.705 13 29 13 29C13 29 15.8361 28.295 17.0145 26.9743C18.1929 25.6536 18.5 21.5 18.5 21.5Z" fill="#D1A723"/>
<path d="M18.5 24.7295C18.5813 25.0662 18.6744 25.4027 18.7822 25.7217C18.9834 26.3165 19.2498 26.9014 19.6123 27.3076C20.2841 28.0604 21.3825 28.6019 22.249 28.9473C22.2951 28.9656 22.3415 28.9826 22.3867 29C22.3415 29.0174 22.2951 29.0344 22.249 29.0527C21.3825 29.3981 20.2841 29.9396 19.6123 30.6924C19.2498 31.0986 18.9834 31.6835 18.7822 32.2783C18.6745 32.597 18.5813 32.9332 18.5 33.2695C18.4187 32.9332 18.3255 32.597 18.2178 32.2783C18.0166 31.6835 17.7502 31.0986 17.3877 30.6924C16.7159 29.9396 15.6175 29.3981 14.751 29.0527C14.7046 29.0342 14.6578 29.0176 14.6123 29C14.6578 28.9824 14.7046 28.9658 14.751 28.9473C15.6175 28.6019 16.7159 28.0604 17.3877 27.3076C17.7502 26.9014 18.0166 26.3165 18.2178 25.7217C18.3256 25.4027 18.4187 25.0662 18.5 24.7295Z" stroke="#D1A723"/>
</g>
<defs>
<filter id="filter0_d_995_78" x="4.5" y="0" width="28" height="40" filterUnits="userSpaceOnUse" color-interpolation-filters="sRGB">
<feFlood flood-opacity="0" result="BackgroundImageFix"/>
<feColorMatrix in="SourceAlpha" type="matrix" values="0 0 0 0 0 0 0 0 0 0 0 0 0 0 0 0 0 0 127 0" result="hardAlpha"/>
<feMorphology radius="1" operator="dilate" in="SourceAlpha" result="effect1_dropShadow_995_78"/>
<feOffset/>
<feGaussianBlur stdDeviation="6"/>
<feComposite in2="hardAlpha" operator="out"/>
<feColorMatrix type="matrix" values="0 0 0 0 0.819608 0 0 0 0 0.654902 0 0 0 0 0.137255 0 0 0 1 0"/>
<feBlend mode="normal" in2="BackgroundImageFix" result="effect1_dropShadow_995_78"/>
<feBlend mode="normal" in="SourceGraphic" in2="effect1_dropShadow_995_78" result="shape"/>
</filter>
<filter id="filter1_d_995_78" x="0" y="8.5" width="37" height="41" filterUnits="userSpaceOnUse" color-interpolation-filters="sRGB">
<feFlood flood-opacity="0" result="BackgroundImageFix"/>
<feColorMatrix in="SourceAlpha" type="matrix" values="0 0 0 0 0 0 0 0 0 0 0 0 0 0 0 0 0 0 127 0" result="hardAlpha"/>
<feMorphology radius="1" operator="dilate" in="SourceAlpha" result="effect1_dropShadow_995_78"/>
<feOffset/>
<feGaussianBlur stdDeviation="6"/>
<feComposite in2="hardAlpha" operator="out"/>
<feColorMatrix type="matrix" values="0 0 0 0 0.819608 0 0 0 0 0.654902 0 0 0 0 0.137255 0 0 0 1 0"/>
<feBlend mode="normal" in2="BackgroundImageFix" result="effect1_dropShadow_995_78"/>
<feBlend mode="normal" in="SourceGraphic" in2="effect1_dropShadow_995_78" result="shape"/>
</filter>
</defs>
</svg>
