<svg width="72" height="68" viewBox="0 0 72 68" fill="none" xmlns="http://www.w3.org/2000/svg">
<path d="M18.8954 12.2751C18.2341 12.7784 18.0387 17.3628 18.3162 18.7198C24.5545 49.2178 54.8614 45.4714 63.7219 34.8131C69.2583 24.5926 62.5797 20.2766 60.4949 19.2525C58.4101 18.2284 57.7517 20.4926 59.4708 21.3373C61.1385 22.1567 64.6936 25.4558 62.4477 31.0815C60.2017 36.7072 55.4249 36.9488 53.3474 36.9635C51.2699 36.9781 52.3029 35.9325 50.4012 31.375C48.4994 26.8175 41.6305 24.9961 38.9239 24.1842C36.2173 23.3723 34.1326 22.3481 34.3301 20.8923C34.5277 19.4365 32.4282 16.335 32.4209 15.2962C32.4137 14.2574 32.1797 10.5192 31.5579 10.7314C30.9361 10.9435 29.7144 14.4843 28.2587 14.2868C26.8029 14.0893 24.5207 14.5208 23.2771 14.9452C22.0335 15.3695 19.722 11.646 18.8954 12.2751Z" fill="#001F3E"/>
<path d="M15.4585 13.3181C16.3764 12.1577 18.1546 13.0464 18.141 14.526C18.0489 24.5659 23.5971 34.2543 33.2103 38.9766C42.8225 43.6983 53.8797 42.1683 61.7694 35.9606C62.9322 35.0456 64.7226 35.91 64.3652 37.3458C63.8948 39.236 63.2179 41.1054 62.3243 42.9247C55.5364 56.7424 38.8331 62.4417 25.0165 55.6545C11.1998 48.8674 5.50159 32.1637 12.2892 18.3458C13.1833 16.5258 14.2495 14.8465 15.4585 13.3181Z" fill="#ECECEC"/>
<ellipse cx="33.2735" cy="47.287" rx="5.57459" ry="5.57504" transform="rotate(26.1618 33.2735 47.287)" fill="#D9D9D9"/>
<ellipse cx="25.9332" cy="37.988" rx="2.32274" ry="2.32293" transform="rotate(26.1618 25.9332 37.988)" fill="#D9D9D9"/>
<ellipse cx="13.6195" cy="30.3881" rx="1.8582" ry="1.85835" transform="rotate(26.1618 13.6195 30.3881)" fill="#D9D9D9"/>
<ellipse cx="54.4711" cy="48.3837" rx="1.8582" ry="1.85835" transform="rotate(26.1618 54.4711 48.3837)" fill="#D9D9D9"/>
<path d="M20.2379 34.4082C21.1807 30.2997 23.7867 29.0084 24.9718 28.8762C27.9866 28.2143 28.3899 32.9847 26.9343 32.7871C24.4602 32.4511 24.4757 33.5776 23.6277 35.3039C22.4971 37.6055 19.6488 36.9757 20.2379 34.4082Z" fill="#001F3E"/>
<path d="M24.7585 21.024C24.7222 20.5985 24.3476 20.2829 23.9221 20.3192C23.4966 20.3556 23.181 20.7301 23.2173 21.1557C23.2318 21.3261 23.1056 21.4759 22.9351 21.4904C22.7647 21.505 22.6149 21.3788 22.6004 21.2083C22.535 20.442 23.1031 19.7678 23.8695 19.7023C24.6359 19.6368 25.31 20.205 25.3754 20.9713C25.39 21.1418 25.2637 21.2916 25.0933 21.3061C24.9229 21.3206 24.7731 21.1944 24.7585 21.024Z" fill="#79BCFF"/>
<path d="M30.5705 19.6973C30.4901 19.2778 30.0848 19.0028 29.6654 19.0832C29.246 19.1636 28.971 19.569 29.0513 19.9885C29.0835 20.1564 28.9735 20.3186 28.8055 20.3508C28.6375 20.383 28.4754 20.273 28.4432 20.105C28.2985 19.3496 28.7935 18.62 29.5489 18.4752C30.3043 18.3304 31.0338 18.8253 31.1786 19.5807C31.2108 19.7487 31.1008 19.9108 30.9328 19.943C30.7648 19.9752 30.6027 19.8652 30.5705 19.6973Z" fill="#79BCFF"/>
</svg>
