<svg width="64" height="69" viewBox="0 0 64 69" fill="none" xmlns="http://www.w3.org/2000/svg">
<path fill-rule="evenodd" clip-rule="evenodd" d="M11.1276 58.4556L11.139 58.4544L11.1276 58.4556ZM11.1708 58.4521C11.1664 58.4526 11.1621 58.4539 11.1577 58.4541C11.1699 58.4538 11.1818 58.4533 11.1935 58.4526C11.2013 58.4521 11.215 58.4512 11.2227 58.4506C11.2284 58.4501 11.2342 58.4496 11.2399 58.449C11.203 58.453 11.1655 58.4552 11.1276 58.4556M11.1708 58.4521L11.139 58.4544L11.1708 58.4521Z" fill="#496D8F"/>
<path d="M18.9721 29.4327L19.0584 29.3325C19.9192 28.2793 19.8116 26.7246 18.7919 25.8013C17.7723 24.8781 16.2146 24.9249 15.2518 25.8857L15.1605 25.9815L12.0928 29.3696C11.1398 30.4221 11.2204 32.048 12.273 33.001C13.3255 33.954 14.9514 33.8733 15.9044 32.8208L18.9721 29.4327ZM17.6415 27.0719C17.9924 27.3895 18.0193 27.9315 17.7016 28.2823L14.6339 31.6704C14.3162 32.0212 13.7742 32.0481 13.4234 31.7305C13.0725 31.4128 13.0456 30.8708 13.3633 30.52L16.4311 27.1319C16.7487 26.7811 17.2907 26.7542 17.6415 27.0719Z" fill="#FEFFFF"/>
<path d="M18.5881 26.0236C17.6893 25.2097 16.3165 25.2487 15.4657 26.0921L15.3745 26.1885L12.3122 29.5706C11.4703 30.5004 11.5416 31.9371 12.4714 32.779C13.4012 33.6209 14.8379 33.5496 15.6798 32.6198L18.7421 29.2377L18.8282 29.1367C19.5833 28.2067 19.4869 26.8374 18.5881 26.0236ZM17.4375 27.2944C17.2093 27.0878 16.8571 27.1053 16.6505 27.3334L13.583 30.7213C13.3764 30.9494 13.3939 31.3016 13.622 31.5082C13.8502 31.7147 14.2024 31.6973 14.409 31.4691L17.4765 28.0813C17.6831 27.8532 17.6655 27.5009 17.4375 27.2944ZM17.8402 26.8495C18.3137 27.2783 18.3494 28.0099 17.9206 28.4834L14.8531 31.8712C14.4243 32.3448 13.6928 32.3817 13.2193 31.953C12.7457 31.5242 12.7094 30.7921 13.1382 30.3185L16.2057 26.9307C16.6345 26.4571 17.3667 26.4208 17.8402 26.8495ZM18.9902 25.5795C20.1288 26.6104 20.2487 28.3461 19.2874 29.5222L19.2835 29.5279L19.1966 29.6283L16.1239 33.0219C15.0598 34.1971 13.2446 34.2872 12.0693 33.2231C10.894 32.1589 10.804 30.3438 11.8681 29.1685L14.9409 25.7749L15.0321 25.6785L15.0374 25.6741C16.1126 24.6011 17.8516 24.5485 18.9902 25.5795Z" fill="#496D8F"/>
<path d="M7.15236 47.075L7.18266 46.9462C7.46066 45.6148 6.64818 44.2849 5.31761 43.936C3.98705 43.5871 2.62655 44.3471 2.21541 45.6437L2.17863 45.7707L1.01931 50.1918C0.659151 51.5653 1.4806 52.9707 2.85405 53.3308C4.22751 53.691 5.63289 52.8695 5.99304 51.4961L7.15236 47.075ZM4.88287 45.5939C5.34069 45.714 5.6145 46.1824 5.49445 46.6402L4.33513 51.0613C4.21508 51.5192 3.74662 51.793 3.2888 51.6729C2.83098 51.5529 2.55717 51.0844 2.67722 50.6266L3.83654 46.2055C3.95659 45.7477 4.42505 45.4739 4.88287 45.5939Z" fill="#FEFFFF"/>
<path d="M5.24018 44.2261C4.06729 43.9185 2.86723 44.5862 2.50136 45.727L2.46487 45.8546L1.30761 50.2679C0.989444 51.4812 1.7153 52.723 2.92863 53.0412C4.14194 53.3593 5.3838 52.6335 5.70196 51.4202L6.85922 47.0069L6.88911 46.8776C7.13008 45.7041 6.41302 44.5336 5.24018 44.2261ZM4.80534 45.8843C4.50765 45.8063 4.20318 45.9842 4.12511 46.2819L2.96587 50.7027C2.88781 51.0004 3.06578 51.3049 3.36347 51.3829C3.66114 51.461 3.96564 51.283 4.0437 50.9853L5.20294 46.5646C5.281 46.2669 5.103 45.9624 4.80534 45.8843ZM4.95755 45.3039C5.57546 45.4659 5.94447 46.0986 5.78243 46.7165L4.6232 51.1373C4.46116 51.7552 3.82919 52.1254 3.21126 51.9634C2.59332 51.8013 2.22339 51.1684 2.38543 50.5505L3.54467 46.1297C3.70672 45.5118 4.3396 45.1418 4.95755 45.3039ZM5.39214 43.6466C6.87788 44.0362 7.78475 45.5209 7.4743 47.0078L7.47351 47.0147L7.44268 47.1438L6.28146 51.5721C5.87932 53.1057 4.31024 54.0228 2.77667 53.6207C1.24309 53.2185 0.325969 51.6495 0.728113 50.1159L1.88933 45.6876L1.92582 45.56L1.9285 45.5536C2.38765 44.1056 3.90636 43.257 5.39214 43.6466Z" fill="#496D8F"/>
<path d="M20.4076 20.7235L20.3089 20.8116C19.3177 21.7431 19.2207 23.2984 20.1107 24.3473C21.0007 25.3961 22.5511 25.5536 23.6315 24.7271L23.7344 24.6441L27.2194 21.6869C28.302 20.7682 28.4349 19.1458 27.5162 18.0632C26.5976 16.9805 24.9752 16.8476 23.8925 17.7663L20.4076 20.7235ZM21.4176 23.2383C21.1113 22.8774 21.1556 22.3366 21.5165 22.0304L25.0015 19.0732C25.3624 18.7669 25.9032 18.8112 26.2094 19.1721C26.5156 19.533 26.4713 20.0738 26.1104 20.38L22.6255 23.3373C22.2646 23.6435 21.7238 23.5992 21.4176 23.2383Z" fill="#FEFFFF"/>
<path d="M20.335 24.1534C21.1195 25.0779 22.4856 25.219 23.4395 24.4942L23.5426 24.4106L27.0213 21.4586C27.9777 20.647 28.0952 19.2134 27.2836 18.257C26.472 17.3006 25.0384 17.1832 24.082 17.9947L20.6032 20.9467L20.5046 21.0355C19.6342 21.8588 19.5505 23.2288 20.335 24.1534ZM21.6421 23.0442C21.8413 23.2788 22.1927 23.3076 22.4274 23.1085L25.9121 20.1515C26.1468 19.9523 26.1756 19.6009 25.9764 19.3662C25.7773 19.1316 25.4258 19.1028 25.1912 19.3019L21.7065 22.2589C21.4718 22.458 21.4431 22.8095 21.6421 23.0442ZM21.1846 23.4324C20.7713 22.9453 20.8318 22.2154 21.3188 21.8021L24.8035 18.8451C25.2906 18.4318 26.0206 18.4909 26.434 18.9779C26.8473 19.465 26.7875 20.1957 26.3004 20.609L22.8157 23.566C22.3286 23.9794 21.5979 23.9195 21.1846 23.4324ZM19.8782 24.541C18.8844 23.3698 18.9928 21.6334 20.0998 20.5933L20.1044 20.5881L20.2037 20.5L23.6943 17.5379C24.9032 16.5122 26.7146 16.6606 27.7404 17.8694C28.7662 19.0782 28.6178 20.8896 27.4089 21.9154L23.9183 24.8775L23.8152 24.9611L23.8094 24.9648C22.6029 25.8877 20.872 25.7122 19.8782 24.541Z" fill="#496D8F"/>
<path d="M12.3817 37.4672L12.4422 37.3496C13.0331 36.1245 12.5653 34.6379 11.3582 33.9784C10.1511 33.3189 8.64743 33.7283 7.93572 34.8875L7.86938 35.0019L5.67798 39.0129C4.9972 40.2589 5.45543 41.8209 6.70148 42.5017C7.94753 43.1825 9.50954 42.7243 10.1903 41.4782L12.3817 37.4672ZM10.5364 35.4825C10.9518 35.7094 11.1045 36.2301 10.8776 36.6455L8.6862 40.6564C8.45928 41.0718 7.93861 41.2245 7.52326 40.9976C7.10791 40.7707 6.95516 40.25 7.18209 39.8346L9.3735 35.8237C9.60042 35.4083 10.1211 35.2556 10.5364 35.4825Z" fill="#FEFFFF"/>
<path d="M11.2148 34.2409C10.1507 33.6595 8.82502 34.0181 8.19481 35.037L8.12862 35.152L5.94111 39.1558C5.3397 40.2566 5.74462 41.6369 6.84539 42.2383C7.94616 42.8396 9.32642 42.4347 9.92782 41.334L12.1153 37.3302L12.1755 37.2118C12.6924 36.1311 12.2788 34.8223 11.2148 34.2409ZM10.3928 35.7453C10.1228 35.5978 9.78435 35.697 9.6368 35.9671L7.44555 39.9778C7.29799 40.2479 7.39727 40.5863 7.66735 40.7338C7.93741 40.8814 8.27584 40.7821 8.42339 40.512L10.6146 36.5014C10.7622 36.2313 10.6629 35.8929 10.3928 35.7453ZM10.6805 35.2187C11.2411 35.525 11.4467 36.228 11.1404 36.7886L8.94913 40.7993C8.64284 41.3599 7.94025 41.5667 7.37964 41.2604C6.81902 40.9541 6.61266 40.2507 6.91895 39.6901L9.1102 35.6794C9.4165 35.1188 10.1199 34.9124 10.6805 35.2187ZM11.502 33.7151C12.8499 34.4516 13.3719 36.1112 12.712 37.4794L12.7096 37.4858L12.6486 37.6037L10.4536 41.6212C9.69342 43.0125 7.94947 43.5241 6.55815 42.764C5.16683 42.0039 4.65522 40.2599 5.41538 38.8686L7.61037 34.8511L7.67656 34.736L7.68069 34.7305C8.47551 33.436 10.1541 32.9787 11.502 33.7151Z" fill="#496D8F"/>
<path d="M4.0953 47.3413C3.67376 47.1261 3.50649 46.6099 3.7217 46.1884L7.35859 39.0646C7.5738 38.643 8.08999 38.4758 8.51153 38.691C8.93307 38.9062 9.10034 39.4224 8.88513 39.8439L5.24823 46.9677C5.03303 47.3893 4.51684 47.5565 4.0953 47.3413Z" fill="#FEFFFF"/>
<path d="M8.37561 38.9576C8.10158 38.8179 7.76599 38.9265 7.62607 39.2005L3.98899 46.3247C3.84931 46.5986 3.95806 46.9342 4.23188 47.0742C4.50589 47.2141 4.84139 47.1052 4.98141 46.8313L8.61849 39.7071C8.75836 39.433 8.64968 39.0975 8.37561 38.9576ZM8.64801 38.424C9.21696 38.7145 9.44334 39.411 9.15293 39.98L5.51586 47.1042C5.22529 47.6729 4.52836 47.8982 3.95947 47.6078C3.39078 47.3172 3.1652 46.6211 3.45542 46.0522L7.0925 38.9281C7.38296 38.3592 8.07911 38.1337 8.64801 38.424Z" fill="#496D8F"/>
<path d="M29.5718 13.862L29.457 13.9276C28.2931 14.6316 27.8737 16.1325 28.5252 17.344C29.1766 18.5554 30.66 19.0331 31.8891 18.4503L32.0071 18.3906L36.0326 16.2259C37.2831 15.5535 37.7517 13.9945 37.0792 12.744C36.4068 11.4934 34.8478 11.0248 33.5973 11.6973L29.5718 13.862ZM30.0347 16.5322C29.8105 16.1153 29.9667 15.5957 30.3836 15.3715L34.409 13.2069C34.8259 12.9827 35.3455 13.1389 35.5697 13.5557C35.7939 13.9726 35.6376 14.4922 35.2208 14.7164L31.1954 16.8811C30.7785 17.1052 30.2589 16.949 30.0347 16.5322Z" fill="#FEFFFF"/>
<path d="M28.7897 17.2021C29.364 18.27 30.6705 18.6931 31.7547 18.1834L31.8729 18.1231L35.8912 15.9623C36.996 15.3682 37.41 13.9907 36.816 12.8859C36.2219 11.7812 34.8443 11.3671 33.7396 11.9612L29.7213 14.122L29.6063 14.1883C28.5833 14.8117 28.2155 16.1342 28.7897 17.2021ZM30.2996 16.3901C30.4453 16.6612 30.7831 16.7627 31.0541 16.6169L35.0793 14.4524C35.3503 14.3066 35.4518 13.9689 35.3061 13.6979C35.1603 13.4268 34.8226 13.3253 34.5515 13.471L30.5264 15.6356C30.2553 15.7813 30.1538 16.1191 30.2996 16.3901ZM29.7711 16.6743C29.4685 16.1117 29.68 15.4105 30.2426 15.1079L34.2678 12.9434C34.8304 12.6408 35.532 12.851 35.8346 13.4137C36.1371 13.9763 35.9261 14.6783 35.3635 14.9809L31.3383 17.1454C30.7757 17.448 30.0736 17.237 29.7711 16.6743ZM28.2621 17.4858C27.5346 16.133 28.0031 14.4575 29.3028 13.6713L29.3083 13.6672L29.4238 13.6018L33.4559 11.4335C34.8522 10.6827 36.5927 11.2059 37.3436 12.6022C38.0945 13.9985 37.5713 15.739 36.1749 16.4899L32.1429 18.6581L32.0246 18.7184L32.0182 18.7208C30.6456 19.3716 28.9895 18.8386 28.2621 17.4858Z" fill="#496D8F"/>
<path d="M40.9459 8.53782L40.817 8.56787C39.5007 8.91028 38.6702 10.229 38.9486 11.576C39.2271 12.9231 40.5124 13.8043 41.8567 13.5967L41.9868 13.5732L46.4628 12.6479C47.8533 12.3605 48.7474 11.0002 48.46 9.60973C48.1725 8.21924 46.8123 7.32505 45.4218 7.61251L40.9459 8.53782ZM40.6271 11.229C40.5313 10.7655 40.8294 10.3121 41.2928 10.2163L45.7688 9.29098C46.2323 9.19516 46.6857 9.49323 46.7815 9.95672C46.8773 10.4202 46.5793 10.8736 46.1158 10.9695L41.6398 11.8948C41.1763 11.9906 40.7229 11.6925 40.6271 11.229Z" fill="#FEFFFF"/>
<path d="M39.2437 11.515C39.4891 12.7024 40.6205 13.481 41.805 13.302L41.9356 13.278L46.4035 12.3543C47.6319 12.1004 48.4221 10.8984 48.1681 9.67004C47.9141 8.44169 46.7122 7.65153 45.4838 7.90547L41.0159 8.82913L40.8867 8.85982C39.7283 9.16523 38.9982 10.3276 39.2437 11.515ZM40.9225 11.1679C40.9848 11.4693 41.2795 11.663 41.5809 11.6007L46.0565 10.6755C46.3579 10.6132 46.5516 10.3185 46.4893 10.0171C46.427 9.71575 46.1323 9.522 45.8309 9.5843L41.3553 10.5095C41.0539 10.5718 40.8602 10.8666 40.9225 11.1679ZM40.3348 11.2894C40.2055 10.6638 40.6084 10.0522 41.234 9.92286L45.7096 8.99762C46.3352 8.86829 46.9476 9.27004 47.0769 9.89562C47.2063 10.5212 46.8036 11.1338 46.178 11.2631L41.7024 12.1884C41.0767 12.3177 40.4642 11.915 40.3348 11.2894ZM38.657 11.6363C38.346 10.1321 39.2734 8.66007 40.7434 8.27768L40.7499 8.27534L40.8793 8.24561L45.3625 7.31879C46.9151 6.99782 48.4338 7.99618 48.7548 9.54875C49.0758 11.1014 48.0774 12.62 46.5248 12.941L42.0416 13.8678L41.911 13.8918L41.9041 13.8923C40.4029 14.1241 38.9679 13.1405 38.657 11.6363Z" fill="#496D8F"/>
<path fill-rule="evenodd" clip-rule="evenodd" d="M54.1906 7.86985L54.3171 7.90871L58.6506 9.36144C59.9969 9.81273 60.7224 11.27 60.2711 12.6162C60.0493 13.2779 59.5844 13.7897 59.0092 14.0854L56.565 14.0854L52.6827 12.784L52.5584 12.7387C51.2923 12.2417 50.6251 10.8334 51.0623 9.52917C51.4995 8.22494 52.8807 7.50333 54.1906 7.86985ZM53.7723 9.53379C53.3235 9.38334 52.8378 9.62518 52.6874 10.0739C52.5369 10.5227 52.7787 11.0084 53.2275 11.1589L57.5611 12.6116C58.0098 12.762 58.4955 12.5202 58.646 12.0715C58.7964 11.6227 58.5546 11.1369 58.1058 10.9865L53.7723 9.53379Z" fill="#FEFFFF"/>
<path fill-rule="evenodd" clip-rule="evenodd" d="M52.6586 12.4576C51.5449 12.0162 50.959 10.7741 51.3444 9.62442C51.7298 8.47481 52.9457 7.83773 54.1004 8.15673L54.2275 8.1952L58.5533 9.64535C59.7426 10.044 60.3836 11.3317 59.985 12.521C59.5863 13.7103 58.2987 14.3514 57.1093 13.9527L52.7835 12.5025L52.6586 12.4576ZM53.321 10.8746C53.0292 10.7768 52.872 10.4611 52.9698 10.1693C53.0677 9.87756 53.3834 9.72034 53.6752 9.81814L58.0084 11.2708C58.3002 11.3686 58.4574 11.6843 58.3596 11.9761C58.2618 12.2679 57.9461 12.4251 57.6543 12.3273L53.321 10.8746ZM53.8656 9.25013C53.2599 9.04709 52.604 9.37291 52.4009 9.97859C52.1978 10.5843 52.5246 11.2405 53.1303 11.4436L57.4635 12.8962C58.0692 13.0993 58.7255 12.7725 58.9285 12.1668C59.1315 11.5611 58.8045 10.9058 58.1988 10.7028L53.8656 9.25013ZM54.2695 7.58158C52.8067 7.17227 51.2646 7.97769 50.7764 9.434C50.2882 10.8904 51.0394 12.4656 52.4534 13.0207L52.5783 13.0656L55.6205 14.0854L59.5016 14.0854L59.5674 14.0854C60.0115 13.7489 60.3625 13.2797 60.553 12.7114C61.0569 11.2082 60.2469 9.58124 58.7437 9.07733L54.4031 7.62222L54.2695 7.58158Z" fill="#496D8F"/>
<path d="M9.1183 37.6807C8.74231 37.3932 8.67054 36.8554 8.95801 36.4794L13.8161 30.1252C14.1035 29.7492 14.6414 29.6774 15.0174 29.9649C15.3934 30.2524 15.4652 30.7902 15.1777 31.1662L10.3196 37.5204C10.0321 37.8964 9.4943 37.9681 9.1183 37.6807Z" fill="#FEFFFF"/>
<path d="M14.8331 30.203C14.5887 30.0163 14.239 30.0629 14.0521 30.3072L9.19381 36.6617C9.00716 36.9061 9.05382 37.2557 9.29802 37.4426C9.54242 37.6295 9.89203 37.5827 10.079 37.3384L14.9373 30.984C15.1242 30.7395 15.0776 30.3899 14.8331 30.203ZM15.197 29.7271C15.7045 30.1151 15.802 30.8409 15.414 31.3484L10.5557 37.7029C10.1676 38.2102 9.44157 38.3065 8.93415 37.9186C8.42693 37.5306 8.33015 36.8052 8.71788 36.2978L13.5762 29.9433C13.9642 29.436 14.6895 29.3393 15.197 29.7271Z" fill="#496D8F"/>
<path d="M16.3108 28.355C15.9644 28.0325 15.9451 27.4902 16.2676 27.1438L21.7181 21.2899C22.0407 20.9436 22.5829 20.9242 22.9293 21.2467C23.2757 21.5693 23.295 22.1115 22.9725 22.4579L17.522 28.3118C17.1994 28.6582 16.6572 28.6775 16.3108 28.355Z" fill="#FEFFFF"/>
<path d="M22.7224 21.4659C22.4972 21.2565 22.1446 21.2689 21.935 21.494L16.4842 27.3482C16.2747 27.5733 16.2873 27.9259 16.5123 28.1356C16.7374 28.3452 17.0899 28.3325 17.2997 28.1075L22.7505 22.2533C22.9601 22.0281 22.9476 21.6756 22.7224 21.4659ZM23.1306 21.0275C23.5982 21.4628 23.6249 22.1947 23.1897 22.6623L17.7388 28.5164C17.3035 28.9837 16.5715 29.0093 16.104 28.574C15.6368 28.1387 15.6107 27.4074 16.0457 26.9399L21.4965 21.0858C21.9318 20.6184 22.6631 20.5924 23.1306 21.0275Z" fill="#496D8F"/>
<path fill-rule="evenodd" clip-rule="evenodd" d="M11.1266 59.5682L11.1266 59.8677L6.57244 59.9166L6.44017 59.9147C5.08106 59.8604 3.98881 58.7488 3.97405 57.3734C3.9593 55.9979 5.02746 54.8632 6.38511 54.7798L6.51728 54.775L11.0876 54.726L11.1266 54.7259L11.1266 55.0253L11.1266 55.7043L11.1266 56.0899L11.1266 56.1406L11.1266 56.4399L11.106 56.4399L6.53567 56.4889C6.06239 56.494 5.68283 56.8817 5.68793 57.355C5.69299 57.8283 6.08077 58.2078 6.55406 58.2027L11.1244 58.1537L11.1266 58.4563L11.1379 58.4551L11.1709 58.4527L11.1567 58.4547C11.1688 58.4544 11.1807 58.4539 11.1924 58.4533C11.2082 58.4524 11.2236 58.4512 11.2388 58.4496C11.2019 58.4536 11.1645 58.4558 11.1266 58.4563L11.1266 59.5682Z" fill="#FEFFFF"/>
<path fill-rule="evenodd" clip-rule="evenodd" d="M11.1298 54.4255L11.1298 55.0246L11.094 55.0247L6.5318 55.0737L6.39917 55.079C5.20368 55.1564 4.26406 56.157 4.27705 57.3695C4.29004 58.5819 5.25091 59.5631 6.44783 59.6148L6.58053 59.6163L11.1298 59.5675L11.1298 60.1667L6.57135 60.2156L6.43862 60.2141C4.92084 60.1535 3.69446 58.9118 3.67799 57.3759C3.66153 55.84 4.85416 54.5733 6.37029 54.4802L6.50976 54.4748L11.0876 54.4257C11.1017 54.4255 11.1158 54.4255 11.1298 54.4255ZM11.1298 58.4532L6.56077 58.5022C5.92198 58.5091 5.39809 57.9963 5.39123 57.3575C5.38443 56.7187 5.89719 56.1958 6.53595 56.1889L11.106 56.1399L11.1298 56.1399L11.1298 56.4749L11.1288 56.739L11.1124 56.739L6.54239 56.788C6.23467 56.7913 5.988 57.0434 5.99126 57.3511C5.99458 57.6588 6.24659 57.9055 6.55434 57.9022L11.1243 57.8532L11.1298 58.1528L11.1298 58.4532Z" fill="#496D8F"/>
<path d="M45.3438 9.94361C45.3847 9.47209 45.8002 9.12307 46.2717 9.16406L54.2402 9.85677C54.7117 9.89776 55.0607 10.3132 55.0197 10.7848C54.9787 11.2563 54.5633 11.6053 54.0917 11.5643L46.1233 10.8716C45.6518 10.8306 45.3028 10.4151 45.3438 9.94361Z" fill="#FEFFFF"/>
<path d="M54.7202 10.7581C54.7466 10.4517 54.5198 10.1815 54.2134 10.1549L46.2445 9.46211C45.9382 9.43564 45.668 9.66255 45.6412 9.9689C45.6146 10.2754 45.8416 10.5454 46.148 10.5722L54.1169 11.2649C54.4234 11.2915 54.6935 11.0647 54.7202 10.7581ZM55.317 10.81C55.2617 11.4464 54.7013 11.918 54.0649 11.8627L46.0961 11.17C45.4598 11.1145 44.9891 10.5534 45.0444 9.91701C45.0999 9.28083 45.6602 8.81013 46.2964 8.86527L54.2653 9.55801C54.9015 9.61338 55.3721 10.1737 55.317 10.81Z" fill="#496D8F"/>
<path fill-rule="evenodd" clip-rule="evenodd" d="M57.485 10.5294C57.0791 10.2861 56.5527 10.418 56.3094 10.8239C56.0661 11.2299 56.198 11.7562 56.6039 11.9996L60.0839 14.0853L63.4178 14.0853L57.485 10.5294Z" fill="#FEFFFF"/>
<path fill-rule="evenodd" clip-rule="evenodd" d="M60.6653 14.0856L60.0814 14.0856L59.498 14.0856L56.447 12.2569C55.8992 11.9284 55.7218 11.2178 56.0501 10.67C56.3786 10.1223 57.0884 9.94448 57.6363 10.2726L63.998 14.0856L63.4153 14.0856L62.8327 14.0856L57.3283 10.7865C57.0644 10.6285 56.7222 10.7143 56.564 10.9779C56.4058 11.2418 56.4917 11.584 56.7554 11.7422L60.6653 14.0856Z" fill="#496D8F"/>
<path fill-rule="evenodd" clip-rule="evenodd" d="M11.1283 58.1529C10.834 58.202 10.5224 58.0957 10.321 57.8473C10.0229 57.4797 10.0793 56.94 10.4469 56.6419L11.1283 56.0894L11.1283 56.475L11.1283 57.8463L11.1283 58.1529Z" fill="#FEFFFF"/>
<path fill-rule="evenodd" clip-rule="evenodd" d="M11.1278 58.4558C10.7454 58.5025 10.3481 58.3571 10.0876 58.0358C9.6855 57.5397 9.76155 56.8118 10.2575 56.4095L11.1278 55.7038L11.1278 56.4751L10.6348 56.8748C10.396 57.0686 10.3594 57.4195 10.5529 57.6585C10.6953 57.8341 10.9225 57.9004 11.1278 57.8463L11.1278 58.4558Z" fill="#496D8F"/>
<path d="M33.654 13.9007C33.4784 13.4613 33.6922 12.9626 34.1317 12.7869L41.5588 9.81808C41.9983 9.6424 42.497 9.85626 42.6727 10.2958C42.8483 10.7352 42.6345 11.2339 42.195 11.4096L34.7679 14.3784C34.3284 14.5541 33.8297 14.3402 33.654 13.9007Z" fill="#FEFFFF"/>
<path d="M42.3929 10.4067C42.2786 10.1211 41.9545 9.98203 41.6688 10.0962L34.2413 13.0651C33.9558 13.1794 33.8168 13.5036 33.9308 13.7892C34.045 14.0749 34.3692 14.2138 34.6549 14.0998L42.0824 11.1308C42.3681 11.0166 42.5071 10.6924 42.3929 10.4067ZM42.9492 10.1843C43.1863 10.7775 42.8983 11.4509 42.3051 11.688L34.8776 14.657C34.2845 14.8939 33.6116 14.6047 33.3745 14.0116C33.1376 13.4186 33.426 12.746 34.0189 12.5088L41.4464 9.53987C42.0395 9.30285 42.712 9.59135 42.9492 10.1843Z" fill="#496D8F"/>
<path d="M24.2808 20.5393C24.0092 20.1516 24.1033 19.6173 24.4909 19.3457L31.0419 14.7565C31.4295 14.4849 31.9639 14.579 32.2355 14.9666C32.5071 15.3543 32.4129 15.8887 32.0253 16.1602L25.4744 20.7495C25.0867 21.021 24.5523 20.9269 24.2808 20.5393Z" fill="#FEFFFF"/>
<path d="M31.989 15.1386C31.8124 14.8868 31.4651 14.8255 31.2131 15.002L24.6618 19.5914C24.41 19.768 24.3489 20.1154 24.5252 20.3674C24.7017 20.6194 25.0491 20.6804 25.3011 20.504L31.8524 15.9146C32.1044 15.738 32.1656 15.3906 31.989 15.1386ZM32.4797 14.7949C32.8462 15.3181 32.7199 16.0395 32.1967 16.406L25.6454 20.9955C25.1222 21.3618 24.401 21.2343 24.0345 20.7111C23.6682 20.188 23.7951 19.4673 24.3181 19.1008L30.8693 14.5113C31.3925 14.1449 32.1131 14.2719 32.4797 14.7949Z" fill="#496D8F"/>
<path d="M7.39897 58.4629C6.9672 58.6568 6.46002 58.4639 6.26614 58.0322L2.98968 50.7356C2.7958 50.3038 2.98865 49.7966 3.42041 49.6027C3.85218 49.4088 4.35936 49.6017 4.55324 50.0335L7.8297 57.3301C8.02358 57.7619 7.83074 58.269 7.39897 58.4629Z" fill="#FEFFFF"/>
<path d="M3.54113 49.8768C3.26061 50.003 3.13515 50.3326 3.26111 50.6133L6.53773 57.9103C6.66385 58.1907 6.9936 58.3161 7.2742 58.1903C7.55486 58.0643 7.68008 57.7345 7.55422 57.4538L4.2776 50.1568C4.1515 49.8762 3.82186 49.7508 3.54113 49.8768ZM3.29573 49.3303C3.87848 49.0686 4.56329 49.3283 4.82501 49.911L8.10163 57.208C8.36311 57.7908 8.10229 58.4752 7.51961 58.7368C6.93698 58.9983 6.25296 58.7382 5.99122 58.1557L2.71459 50.8587C2.45301 50.276 2.71317 49.5921 3.29573 49.3303Z" fill="#496D8F"/>
<path fill-rule="evenodd" clip-rule="evenodd" d="M11.1246 58.4561C11.1266 58.4561 11.1226 58.4564 11.1246 58.4561L11.1359 58.4549L11.1546 58.4546C11.1668 58.4543 11.1787 58.4538 11.1904 58.4532C11.2061 58.4523 11.2216 58.4511 11.2368 58.4495C11.1999 58.4535 11.1625 58.4557 11.1246 58.4561ZM11.1546 58.4546C11.1546 58.4546 11.1385 58.4546 11.1359 58.4549L11.1689 58.4526C11.1628 58.4529 11.16 58.4543 11.1546 58.4546ZM11.2833 58.4427L11.2991 58.4405C11.3119 58.4386 11.3247 58.4364 11.3374 58.434C11.3195 58.4374 11.3015 58.4403 11.2833 58.4427Z" fill="#496D8F"/>
<path fill-rule="evenodd" clip-rule="evenodd" d="M11.1276 58.4556L11.139 58.4544L11.1708 58.4521C11.1664 58.4526 11.1621 58.4539 11.1577 58.4541C11.1699 58.4538 11.1818 58.4533 11.1935 58.4526C11.2013 58.4521 11.215 58.4512 11.2227 58.4506C11.2284 58.4501 11.2342 58.4496 11.2399 58.449C11.203 58.453 11.1655 58.4552 11.1276 58.4556Z" fill="#496D8F"/>
</svg>
