<svg width="23" height="25" viewBox="0 0 23 25" fill="none" xmlns="http://www.w3.org/2000/svg">
<path d="M4.98183 11.8925L6.57603 13.1233L5.61951 13.7387L3.06878 12.8156L1.79342 13.7387L4.34415 14.9694L1.15574 15.8925L0.199219 18.6617H2.4311L4.98183 16.2002L3.70647 19.5848L5.30067 18.6617L5.93835 15.2771L7.53255 13.7387V16.5079L9.4456 14.9694L9.12676 16.2002L5.93835 19.2771V20.8156L9.12676 17.7387V19.2771L7.53255 21.1233L9.12676 24.2002L11.6775 20.8156L10.4021 19.2771V18.0464L13.9094 20.5079L13.5905 18.6617L11.0398 16.5079V14.9694L13.2717 15.8925L13.9094 13.7387L14.547 17.7387L16.1412 19.2771V14.6617L18.0543 17.1233L22.1992 16.5079L20.605 13.431H16.4601L20.605 10.9694L19.6485 10.354L14.547 12.5079L16.7789 10.354L14.547 9.12327L19.9673 9.43096L21.2427 8.2002L17.4166 7.8925L21.2427 6.66173L22.1992 3.8925H18.692L16.4601 6.66173L16.7789 3.27712L15.1847 4.2002L14.547 7.27712L13.5905 7.8925L13.9094 6.35404L11.9963 6.96943V6.35404L14.547 4.2002V2.66173L11.9963 4.81558L13.2717 2.04635L11.6775 0.200195L9.76444 3.27712L10.4021 5.12327L7.85139 4.2002V5.43096L10.0833 6.96943L10.4021 7.8925L8.17023 6.96943L7.85139 9.43096L6.89487 8.81558V5.73866H5.93835V8.2002L4.66299 6.96943L1.79342 7.58481L2.4311 9.43096H5.30067L2.4311 11.2771L3.70647 11.8925L6.25719 10.0463L7.85139 10.354L4.98183 11.8925Z" fill="#E4ECF9" stroke="#86A7D9" stroke-width="0.4" stroke-linejoin="round"/>
</svg>
