<svg width="19" height="19" viewBox="0 0 19 19" fill="none" xmlns="http://www.w3.org/2000/svg">
<mask id="path-1-outside-1_589_41" maskUnits="userSpaceOnUse" x="0" y="0" width="19" height="19" fill="black">
<rect fill="white" width="19" height="19"/>
<path d="M9.16602 2C11.6425 2 11.9785 4.44498 11.4248 6.55762C13.3277 5.59153 15.6794 5.41866 16.2412 7.76855C16.7666 9.96644 14.8973 10.9022 12.9072 11.0137C14.5705 12.4915 15.6957 14.798 13.5664 16.1621C11.4371 17.5263 9.81238 15.5399 9.16504 13.4111C8.51767 15.5397 6.8938 17.5261 4.76465 16.1621C2.63558 14.7981 3.75984 12.4915 5.42285 11.0137C3.43302 10.902 1.56453 9.96616 2.08984 7.76855C2.65179 5.41816 5.00409 5.59191 6.90723 6.55859C6.3532 4.44583 6.68937 2.00013 9.16602 2ZM9.16504 10.0322C9.15515 10.0424 9.14604 10.0534 9.13574 10.0635C9.1459 10.0783 9.15536 10.0938 9.16504 10.1094C9.17486 10.0936 9.18403 10.0776 9.19434 10.0625C9.18422 10.0526 9.17476 10.0422 9.16504 10.0322Z"/>
</mask>
<path d="M9.16602 2C11.6425 2 11.9785 4.44498 11.4248 6.55762C13.3277 5.59153 15.6794 5.41866 16.2412 7.76855C16.7666 9.96644 14.8973 10.9022 12.9072 11.0137C14.5705 12.4915 15.6957 14.798 13.5664 16.1621C11.4371 17.5263 9.81238 15.5399 9.16504 13.4111C8.51767 15.5397 6.8938 17.5261 4.76465 16.1621C2.63558 14.7981 3.75984 12.4915 5.42285 11.0137C3.43302 10.902 1.56453 9.96616 2.08984 7.76855C2.65179 5.41816 5.00409 5.59191 6.90723 6.55859C6.3532 4.44583 6.68937 2.00013 9.16602 2ZM9.16504 10.0322C9.15515 10.0424 9.14604 10.0534 9.13574 10.0635C9.1459 10.0783 9.15536 10.0938 9.16504 10.1094C9.17486 10.0936 9.18403 10.0776 9.19434 10.0625C9.18422 10.0526 9.17476 10.0422 9.16504 10.0322Z" fill="#FAABB9"/>
<path d="M9.16602 2L9.16602 -2.84177e-09L9.16591 2.83995e-09L9.16602 2ZM11.4248 6.55762L9.49016 6.05053L8.36174 10.3557L12.3302 8.34095L11.4248 6.55762ZM16.2412 7.76855L18.1864 7.30358L18.1864 7.30351L16.2412 7.76855ZM12.9072 11.0137L12.7954 9.0168L7.95388 9.28791L11.5788 12.5088L12.9072 11.0137ZM13.5664 16.1621L14.6453 17.8461L14.6453 17.8461L13.5664 16.1621ZM9.16504 13.4111L11.0785 12.8293L9.16514 6.53721L7.25157 12.8292L9.16504 13.4111ZM4.76465 16.1621L3.68574 17.8461L3.68582 17.8462L4.76465 16.1621ZM5.42285 11.0137L6.75139 12.5087L10.3751 9.28837L5.53488 9.01681L5.42285 11.0137ZM2.08984 7.76855L0.144667 7.30349L0.144645 7.30358L2.08984 7.76855ZM6.90723 6.55859L6.00149 8.34175L9.97118 10.3581L8.84182 6.05129L6.90723 6.55859ZM9.16504 10.0322L10.5998 8.63891L9.16553 7.16188L7.73071 8.63842L9.16504 10.0322ZM9.13574 10.0635L7.73929 8.63172L6.53675 9.80461L7.48431 11.1917L9.13574 10.0635ZM9.16504 10.1094L7.46718 11.1664L9.16562 13.8945L10.8632 11.1659L9.16504 10.1094ZM9.19434 10.0625L10.8454 11.1912L11.793 9.80505L10.5919 8.6318L9.19434 10.0625ZM9.16602 2V4C9.44659 4 9.51027 4.06455 9.48745 4.04842C9.46881 4.03525 9.50643 4.04673 9.55637 4.18149C9.68232 4.52139 9.71271 5.20144 9.49016 6.05053L11.4248 6.55762L13.3595 7.0647C13.6906 5.80115 13.8299 4.20239 13.3071 2.79165C13.0327 2.05108 12.5566 1.31928 11.7958 0.781657C11.0307 0.241076 10.1237 0 9.16602 0V2ZM11.4248 6.55762L12.3302 8.34095C13.093 7.95366 13.723 7.85169 14.0493 7.89895C14.1154 7.90852 14.1511 7.92177 14.165 7.92792C14.172 7.931 14.1749 7.93288 14.1751 7.93299C14.1753 7.93311 14.1751 7.93303 14.1748 7.93279C14.1747 7.93268 14.1745 7.93256 14.1744 7.93246C14.1743 7.93241 14.1743 7.93237 14.1743 7.93234C14.1742 7.93233 14.1742 7.93231 14.1742 7.93231C14.1749 7.93288 14.1736 7.93172 14.1742 7.9323C14.1749 7.93288 14.1736 7.93171 14.1742 7.93229C14.1748 7.93288 14.1736 7.93171 14.1742 7.9323C14.1749 7.93289 14.1736 7.93171 14.1742 7.93231C14.1742 7.93232 14.1742 7.93233 14.1743 7.93236C14.1743 7.9324 14.1744 7.93247 14.1745 7.93256C14.1747 7.93276 14.175 7.93309 14.1755 7.9336C14.1764 7.93457 14.178 7.93642 14.1804 7.93937C14.1849 7.94508 14.1933 7.95673 14.2045 7.97669C14.2266 8.0164 14.2631 8.09591 14.296 8.2336L16.2412 7.76855L18.1864 7.30351C17.9694 6.39567 17.5406 5.58651 16.8643 4.97196C16.1899 4.35912 15.3925 4.05174 14.6226 3.94024C13.1569 3.72798 11.6595 4.19549 10.5194 4.77428L11.4248 6.55762ZM16.2412 7.76855L14.296 8.23353C14.3268 8.36238 14.3318 8.44717 14.3308 8.4945C14.3303 8.51823 14.3284 8.53396 14.3269 8.54289C14.3254 8.55174 14.324 8.55584 14.3239 8.5564C14.3237 8.55694 14.3239 8.55635 14.3243 8.5555C14.3247 8.55471 14.3243 8.55567 14.3221 8.55868C14.318 8.56433 14.3026 8.58413 14.2648 8.61447C14.0713 8.76993 13.582 8.97275 12.7954 9.0168L12.9072 11.0137L13.019 13.0105C14.2226 12.9431 15.6629 12.6224 16.7703 11.7326C17.3518 11.2653 17.8495 10.6311 18.1197 9.81793C18.3891 9.00728 18.3889 8.15065 18.1864 7.30358L16.2412 7.76855ZM12.9072 11.0137L11.5788 12.5088C12.2479 13.1033 12.6228 13.7154 12.7139 14.0961C12.7508 14.2501 12.7234 14.286 12.732 14.264C12.7433 14.235 12.728 14.324 12.4875 14.4781L13.5664 16.1621L14.6453 17.8461C15.4694 17.3181 16.112 16.6073 16.4592 15.7159C16.8036 14.8317 16.7902 13.9428 16.6041 13.165C16.2491 11.6819 15.2298 10.4019 14.2357 9.51859L12.9072 11.0137ZM13.5664 16.1621L12.4875 14.4781C12.247 14.6322 12.1597 14.6088 12.1909 14.6107C12.2145 14.6121 12.1706 14.622 12.0461 14.5242C11.7383 14.2823 11.339 13.6857 11.0785 12.8293L9.16504 13.4111L7.25156 13.993C7.63845 15.2653 8.37512 16.7263 9.57393 17.6688C10.2027 18.1631 11.0046 18.5469 11.9519 18.6036C12.9068 18.6607 13.8212 18.3741 14.6453 17.8461L13.5664 16.1621ZM9.16504 13.4111L7.25157 12.8292C6.99104 13.6859 6.59178 14.2824 6.28423 14.5242C6.15983 14.622 6.11603 14.612 6.13978 14.6106C6.17114 14.6087 6.08401 14.6321 5.84348 14.478L4.76465 16.1621L3.68582 17.8462C4.50986 18.3741 5.42415 18.6607 6.37904 18.6034C7.32632 18.5467 8.12817 18.1628 8.75679 17.6685C9.95531 16.726 10.6917 15.265 11.0785 13.9931L9.16504 13.4111ZM4.76465 16.1621L5.84356 14.4781C5.60308 14.324 5.58767 14.2349 5.59893 14.2638C5.60742 14.2856 5.58006 14.2497 5.61689 14.0957C5.70789 13.7151 6.08256 13.103 6.75139 12.5087L5.42285 11.0137L4.09431 9.51869C3.10013 10.4022 2.08116 11.6823 1.72655 13.1655C1.54056 13.9433 1.52741 14.8322 1.87193 15.7162C2.21922 16.6074 2.86169 17.3182 3.68574 17.8461L4.76465 16.1621ZM5.42285 11.0137L5.53488 9.01681C4.74847 8.97269 4.25944 8.76986 4.06617 8.61451C4.02845 8.58419 4.013 8.56442 4.00892 8.55878C4.00674 8.55578 4.00635 8.55482 4.00676 8.55561C4.0072 8.55646 4.00738 8.55704 4.0072 8.55649C4.00701 8.55593 4.00566 8.55182 4.00417 8.54296C4.00267 8.53401 4.0007 8.51827 4.00023 8.49453C3.99928 8.44718 4.00424 8.36238 4.03504 8.23353L2.08984 7.76855L0.144645 7.30358C-0.0578029 8.15051 -0.0580869 9.00699 0.211182 9.81754C0.481284 10.6306 0.978715 11.2648 1.56017 11.7322C2.66728 12.6221 4.10741 12.943 5.31082 13.0105L5.42285 11.0137ZM2.08984 7.76855L4.03502 8.23362C4.0989 7.96643 4.17476 7.91605 4.1568 7.93237C4.14072 7.94697 4.15554 7.91734 4.28167 7.89911C4.60817 7.85192 5.23839 7.95414 6.00149 8.34175L6.90723 6.55859L7.81296 4.77544C6.67293 4.19637 5.17543 3.72837 3.70951 3.94024C2.93943 4.05153 2.14186 4.35874 1.46721 4.97161C0.790669 5.58618 0.36176 6.39548 0.144667 7.30349L2.08984 7.76855ZM6.90723 6.55859L8.84182 6.05129C8.61919 5.20231 8.64953 4.52202 8.77555 4.18187C8.82553 4.04696 8.86324 4.03536 8.84469 4.04847C8.82192 4.06456 8.88561 4.00001 9.16612 4L9.16602 2L9.16591 2.83995e-09C8.2081 5.10537e-05 7.30102 0.241268 6.53598 0.781987C5.77516 1.31973 5.29908 2.05162 5.02469 2.79225C4.50197 4.20317 4.64124 5.80211 4.97263 7.0659L6.90723 6.55859ZM9.16504 10.0322L7.73071 8.63842C7.72009 8.64935 7.7108 8.65913 7.7031 8.66734C7.69543 8.67551 7.68891 8.68257 7.68402 8.6879C7.67922 8.69313 7.67523 8.69752 7.67311 8.69986C7.67208 8.70099 7.67102 8.70216 7.67065 8.70257C7.6701 8.70318 7.67006 8.70322 7.67017 8.7031C7.67036 8.7029 7.67231 8.70074 7.67514 8.69767C7.67805 8.69451 7.68252 8.68967 7.68813 8.68372C7.69917 8.67202 7.71675 8.65371 7.73929 8.63172L9.13574 10.0635L10.5322 11.4952C10.5599 11.4682 10.5825 11.4448 10.5984 11.4279C10.6139 11.4115 10.6263 11.3978 10.6309 11.3927C10.6322 11.3913 10.6334 11.39 10.634 11.3893C10.6349 11.3884 10.635 11.3882 10.6352 11.388C10.6354 11.3877 10.6339 11.3895 10.6315 11.3921C10.6269 11.3971 10.6152 11.4097 10.5994 11.426L9.16504 10.0322ZM9.13574 10.0635L7.48431 11.1917C7.47074 11.1718 7.46158 11.1573 7.45947 11.154C7.45831 11.1521 7.45795 11.1515 7.45942 11.1539C7.46018 11.1551 7.46093 11.1563 7.46233 11.1586C7.46356 11.1606 7.4653 11.1634 7.46718 11.1664L9.16504 10.1094L10.8629 9.05236C10.8596 9.04704 10.8621 9.051 10.8562 9.04157C10.8528 9.03619 10.8477 9.02789 10.8417 9.01838C10.8299 8.99969 10.8109 8.97004 10.7872 8.9353L9.13574 10.0635ZM9.16504 10.1094L10.8632 11.1659C10.8716 11.1523 10.8787 11.1408 10.882 11.1353C10.8829 11.1338 10.8837 11.1324 10.8843 11.1315C10.885 11.1304 10.8853 11.1298 10.8857 11.1292C10.8864 11.128 10.8862 11.1283 10.8856 11.1293C10.8846 11.131 10.8802 11.1381 10.8739 11.148C10.8675 11.1581 10.8578 11.1731 10.8454 11.1912L9.19434 10.0625L7.54325 8.93383C7.50953 8.98314 7.48403 9.02464 7.47336 9.04208C7.47039 9.04694 7.46782 9.05118 7.46612 9.05398C7.4618 9.0611 7.46571 9.05465 7.46264 9.05972C7.46116 9.06215 7.46334 9.05853 7.46686 9.05288L9.16504 10.1094ZM9.19434 10.0625L10.5919 8.6318C10.6029 8.64262 10.6117 8.6515 10.6174 8.65734C10.623 8.66303 10.6268 8.66702 10.6271 8.6674C10.6274 8.66762 10.6273 8.66753 10.6262 8.66639C10.6255 8.66565 10.6234 8.6634 10.6214 8.6613C10.6172 8.65693 10.6093 8.64868 10.5998 8.63891L9.16504 10.0322L7.73023 11.4255C7.72561 11.4208 7.72257 11.4176 7.72324 11.4183C7.72365 11.4187 7.72393 11.419 7.72564 11.4208C7.72697 11.4222 7.7293 11.4247 7.73193 11.4274C7.74137 11.4373 7.76582 11.4629 7.79681 11.4932L9.19434 10.0625Z" fill="#FFFAFB" mask="url(#path-1-outside-1_589_41)"/>
<path d="M9.16602 2C11.6425 2 11.9785 4.44498 11.4248 6.55762C13.3277 5.59153 15.6794 5.41866 16.2412 7.76855C16.7666 9.96644 14.8973 10.9022 12.9072 11.0137C14.5705 12.4915 15.6957 14.798 13.5664 16.1621C11.4371 17.5263 9.81238 15.5399 9.16504 13.4111C8.51767 15.5397 6.8938 17.5261 4.76465 16.1621C2.63558 14.7981 3.75984 12.4915 5.42285 11.0137C3.43302 10.902 1.56453 9.96616 2.08984 7.76855C2.65179 5.41816 5.00409 5.59191 6.90723 6.55859C6.3532 4.44583 6.68937 2.00013 9.16602 2ZM9.16504 10.0322C9.15515 10.0424 9.14604 10.0534 9.13574 10.0635C9.1459 10.0783 9.15536 10.0938 9.16504 10.1094C9.17486 10.0936 9.18403 10.0776 9.19434 10.0625C9.18422 10.0526 9.17476 10.0422 9.16504 10.0322Z" fill="#FAABB9"/>
<path d="M9.16602 2L9.16602 1.5L9.16599 1.5L9.16602 2ZM11.4248 6.55762L10.9411 6.43085L10.659 7.50714L11.6511 7.00345L11.4248 6.55762ZM16.2412 7.76855L16.7275 7.65231L16.7275 7.65229L16.2412 7.76855ZM12.9072 11.0137L12.8793 10.5145L11.6689 10.5822L12.5751 11.3874L12.9072 11.0137ZM13.5664 16.1621L13.8361 16.5831L13.8361 16.5831L13.5664 16.1621ZM9.16504 13.4111L9.64341 13.2657L9.16506 11.6927L8.68667 13.2656L9.16504 13.4111ZM4.76465 16.1621L4.49492 16.5831L4.49494 16.5831L4.76465 16.1621ZM5.42285 11.0137L5.75499 11.3874L6.66092 10.5823L5.45086 10.5145L5.42285 11.0137ZM2.08984 7.76855L1.60355 7.65229L1.60354 7.65231L2.08984 7.76855ZM6.90723 6.55859L6.68079 7.00438L7.67322 7.50848L7.39087 6.43177L6.90723 6.55859ZM9.16504 10.0322L9.52374 9.6839L9.16516 9.31464L8.80646 9.68377L9.16504 10.0322ZM9.13574 10.0635L8.78663 9.70554L8.486 9.99876L8.72289 10.3455L9.13574 10.0635ZM9.16504 10.1094L8.74057 10.3736L9.16518 11.0557L9.58958 10.3735L9.16504 10.1094ZM9.19434 10.0625L9.60711 10.3447L9.84399 9.99814L9.54372 9.70482L9.19434 10.0625ZM9.16602 2V2.5C9.70051 2.5 10.0804 2.63074 10.3531 2.82338C10.6267 3.01676 10.8288 3.29836 10.9629 3.6603C11.2377 4.40177 11.2044 5.42633 10.9411 6.43085L11.4248 6.55762L11.9085 6.68439C12.1989 5.57626 12.2746 4.32202 11.9006 3.31284C11.7104 2.79945 11.3987 2.33777 10.9301 2.00669C10.4605 1.67488 9.86978 1.5 9.16602 1.5V2ZM11.4248 6.55762L11.6511 7.00345C12.5555 6.54435 13.5107 6.3053 14.2643 6.41443C14.6318 6.46766 14.9401 6.60144 15.183 6.82217C15.4254 7.04247 15.6336 7.37744 15.7549 7.88481L16.2412 7.76855L16.7275 7.65229C16.5679 6.98473 16.2715 6.46009 15.8555 6.08209C15.44 5.70451 14.9361 5.50129 14.4076 5.42476C13.3691 5.27437 12.1971 5.6048 11.1985 6.11178L11.4248 6.55762ZM16.2412 7.76855L15.7549 7.8848C15.8685 8.35987 15.8455 8.73395 15.7473 9.02947C15.6493 9.32437 15.4655 9.57396 15.2043 9.78377C14.6682 10.2146 13.8222 10.4617 12.8793 10.5145L12.9072 11.0137L12.9352 11.5129C13.9824 11.4543 15.0661 11.1777 15.8307 10.5633C16.22 10.2505 16.5294 9.84706 16.6963 9.34486C16.863 8.84328 16.8766 8.27618 16.7275 7.65231L16.2412 7.76855ZM12.9072 11.0137L12.5751 11.3874C13.3661 12.0903 13.9827 12.9529 14.1727 13.7469C14.2656 14.1349 14.2535 14.4906 14.1297 14.8085C14.0065 15.1246 13.756 15.4468 13.2967 15.7411L13.5664 16.1621L13.8361 16.5831C14.4414 16.1953 14.8487 15.7177 15.0615 15.1715C15.2736 14.627 15.2755 14.058 15.1453 13.5141C14.8892 12.4445 14.1116 11.4149 13.2393 10.6399L12.9072 11.0137ZM13.5664 16.1621L13.2967 15.7411C12.8373 16.0354 12.4399 16.1283 12.1013 16.108C11.7608 16.0876 11.4326 15.9499 11.119 15.7034C10.4771 15.1988 9.95127 14.2781 9.64341 13.2657L9.16504 13.4111L8.68667 13.5566C9.02615 14.673 9.63632 15.8098 10.501 16.4895C10.9406 16.8352 11.4583 17.0713 12.0415 17.1062C12.6267 17.1413 13.2309 16.9709 13.8361 16.5831L13.5664 16.1621ZM9.16504 13.4111L8.68667 13.2656C8.37878 14.278 7.8531 15.1987 7.21144 15.7033C6.89795 15.9498 6.56989 16.0875 6.2295 16.1079C5.89102 16.1282 5.49371 16.0354 5.03436 15.7411L4.76465 16.1621L4.49494 16.5831C5.10017 16.9708 5.70427 17.1412 6.28932 17.1061C6.87246 17.0712 7.39004 16.835 7.82958 16.4894C8.69399 15.8096 9.30393 14.6728 9.64341 13.5566L9.16504 13.4111ZM4.76465 16.1621L5.03438 15.7411C4.57505 15.4468 4.3245 15.1246 4.2013 14.8085C4.07741 14.4906 4.06525 14.1348 4.15801 13.7468C4.34787 12.9528 4.96415 12.0902 5.75499 11.3874L5.42285 11.0137L5.09072 10.6399C4.21854 11.415 3.44118 12.4446 3.18542 13.5143C3.05538 14.0582 3.05741 14.6272 3.26955 15.1716C3.48239 15.7177 3.88971 16.1954 4.49492 16.5831L4.76465 16.1621ZM5.42285 11.0137L5.45086 10.5145C4.50807 10.4616 3.66238 10.2144 3.12642 9.78364C2.86542 9.57384 2.68166 9.32427 2.58369 9.02939C2.48552 8.73387 2.4626 8.35982 2.57614 7.8848L2.08984 7.76855L1.60354 7.65231C1.45444 8.27609 1.46808 8.84312 1.63469 9.34465C1.80151 9.84681 2.11074 10.2502 2.49992 10.5631C3.26434 11.1775 4.3478 11.4541 5.39484 11.5129L5.42285 11.0137ZM2.08984 7.76855L2.57614 7.88482C2.69747 7.37733 2.90573 7.04235 3.1482 6.82208C3.39115 6.60138 3.6995 6.46766 4.06711 6.41453C4.82089 6.30559 5.77634 6.54498 6.68079 7.00438L6.90723 6.55859L7.13366 6.11281C6.13498 5.60553 4.96271 5.2747 3.92407 5.42481C3.39547 5.50121 2.89143 5.70433 2.4758 6.08189C2.0597 6.45988 1.76319 6.98459 1.60355 7.65229L2.08984 7.76855ZM6.90723 6.55859L7.39087 6.43177C7.12746 5.42723 7.09419 4.40245 7.36898 3.66076C7.50311 3.29871 7.70521 3.017 7.97892 2.82354C8.25158 2.63082 8.63154 2.50003 9.16604 2.5L9.16602 2L9.16599 1.5C8.46217 1.50004 7.87136 1.675 7.40175 2.00692C6.93319 2.33809 6.6215 2.79987 6.43126 3.31336C6.05731 4.32274 6.13297 5.57719 6.42358 6.68542L6.90723 6.55859ZM9.16504 10.0322L8.80646 9.68377C8.79941 9.69103 8.79346 9.69744 8.78931 9.70197C8.78721 9.70426 8.78531 9.70634 8.78388 9.70792C8.78191 9.71009 8.78177 9.71025 8.78045 9.7117C8.77861 9.71372 8.77869 9.71361 8.77949 9.71277C8.7804 9.7118 8.78292 9.70915 8.78663 9.70554L9.13574 10.0635L9.48486 10.4214C9.5017 10.405 9.51529 10.39 9.52064 10.3841C9.5246 10.3797 9.52485 10.3794 9.52617 10.378C9.52683 10.3773 9.52573 10.3785 9.52362 10.3807L9.16504 10.0322ZM9.13574 10.0635L8.72289 10.3455C8.72541 10.3492 8.72755 10.3527 8.74057 10.3736L9.16504 10.1094L9.5895 9.84512C9.58316 9.83493 9.56639 9.80748 9.5486 9.78143L9.13574 10.0635ZM9.16504 10.1094L9.58958 10.3735C9.59353 10.3672 9.59709 10.3613 9.59973 10.357C9.60279 10.3519 9.60422 10.3495 9.60604 10.3466C9.60938 10.3411 9.60909 10.3418 9.60711 10.3447L9.19434 10.0625L8.78156 9.78033C8.76927 9.79832 8.75924 9.81452 8.75297 9.82478C8.74395 9.83952 8.7446 9.83865 8.74049 9.84525L9.16504 10.1094ZM9.19434 10.0625L9.54372 9.70482C9.54514 9.70621 9.54513 9.70628 9.54144 9.70241C9.54058 9.70151 9.53966 9.70053 9.53848 9.6993C9.5374 9.69816 9.53596 9.69664 9.53456 9.69517C9.53171 9.69217 9.52793 9.68822 9.52374 9.6839L9.16504 10.0322L8.80634 10.3806C8.80911 10.3834 8.80965 10.384 8.81764 10.3924C8.82363 10.3987 8.83341 10.4089 8.84495 10.4202L9.19434 10.0625Z" fill="#C57784"/>
<circle cx="9.16558" cy="9.70659" r="2.50738" fill="#EEDF50" stroke="#C57784"/>
</svg>
