<svg width="17" height="16" viewBox="0 0 17 16" fill="none" xmlns="http://www.w3.org/2000/svg">
<path d="M10.1582 1.31445C10.8935 1.01144 11.7521 0.888831 12.6289 1.12012C13.5139 1.35369 14.3222 1.92337 14.9893 2.83691C15.7535 3.88357 15.8759 5.16631 15.6738 6.37402C15.4713 7.58391 14.9311 8.81792 14.2266 9.91309C13.5201 11.0111 12.6165 12.0199 11.6357 12.7637C10.6719 13.4945 9.53584 14.0419 8.38086 14.042C7.22569 14.042 6.08895 13.4947 5.125 12.7637C4.14421 12.0199 3.24062 11.0111 2.53418 9.91309C1.82961 8.81791 1.28944 7.58392 1.08691 6.37402C0.884812 5.16633 1.00729 3.88356 1.77148 2.83691C2.43603 1.92679 3.23646 1.35608 4.11621 1.12207C4.98934 0.889846 5.84154 1.01561 6.57129 1.32031C7.27383 1.61367 7.88769 2.08195 8.3584 2.6123C8.82937 2.07579 9.4498 1.60649 10.1582 1.31445Z" fill="#FFCCD3" stroke="#FFFAFB" stroke-width="2" stroke-linecap="round" stroke-linejoin="round"/>
<path fill-rule="evenodd" clip-rule="evenodd" d="M2.57885 3.42635C0.363774 6.46002 4.9832 13.0424 8.38046 13.0424C11.7777 13.0424 16.3971 6.46002 14.1821 3.42635C11.967 0.392672 8.61592 2.85926 8.38046 4.73288C8.0495 2.86812 4.79395 0.392672 2.57885 3.42635Z" fill="#FFCCD3" stroke="#C57784" stroke-linecap="round" stroke-linejoin="round"/>
</svg>
