<svg width="41" height="43" viewBox="0 0 41 43" fill="none" xmlns="http://www.w3.org/2000/svg">
<path d="M24.1592 3.78418C25.8584 2.28194 27.9856 1.2581 29.9883 1.54883C32.0536 1.84864 33.42 3.3466 34.1885 5.12207C34.9534 6.88926 35.2285 9.11658 35.0859 11.4229C34.9454 13.6951 33.9109 16.3428 32.8564 18.4961C36.2935 21.2634 38.5762 25.1949 38.5762 29.2334C38.5761 33.1264 36.4542 36.1584 33.2783 38.1494C30.1382 40.1179 25.9186 41.1201 21.3896 41.1201C16.8604 41.1201 12.6402 40.1181 9.5 38.1494C6.32409 36.1584 4.20221 33.1264 4.20215 29.2334C4.20215 26.7384 5.07908 24.2854 6.53906 22.1367C6.50836 22.108 6.47678 22.0759 6.44141 22.043C6.0242 21.6544 5.30869 21.0024 4.82129 20.1475C4.40468 19.4166 4.14543 18.5259 4.27539 17.5127C2.24832 14.8412 0.903794 11.3612 2.56934 7.69727C3.30696 6.07462 4.61503 5.06272 6.16602 4.61426C7.67264 4.17869 9.3601 4.28228 10.9883 4.73145C13.7769 5.50085 16.688 7.36397 18.8115 9.99707C19.2787 9.70778 19.7891 9.48694 20.3281 9.375C21.2222 7.0788 22.6111 5.15287 24.1592 3.78418Z" fill="#FAABB9" stroke="#FFFAFB" stroke-width="3"/>
<path d="M3.93299 8.3173C1.13963 14.4621 8.57387 20.3765 12.6248 22.5198C15.7104 23.9095 20.4679 25.0634 20.4679 18.6335C20.4679 8.31732 6.75965 2.09923 3.93299 8.3173Z" fill="#FAABB9" stroke="#C57784" stroke-linecap="round"/>
<path d="M21.4287 10.7529C22.9812 5.85813 27.0196 2.63388 29.7705 3.0332C32.5213 3.4327 33.852 7.02644 33.5859 11.3301C33.4406 13.6799 32.1565 16.6589 30.9424 18.9395C34.671 21.5146 37.075 25.409 37.0752 29.2324C37.0752 35.7691 30.0514 39.6201 21.3877 39.6201C12.7241 39.6201 5.70117 35.769 5.70117 29.2324C5.70145 22.9142 12.263 16.3989 20.5254 15.9707C20.481 14.4809 20.7985 12.7401 21.4287 10.7529Z" fill="#FAABB9"/>
<path d="M21.4287 10.7529L20.9521 10.6018L20.9521 10.6018L21.4287 10.7529ZM29.7705 3.0332L29.8424 2.53839L29.8423 2.53839L29.7705 3.0332ZM33.5859 11.3301L34.085 11.3609L34.085 11.3609L33.5859 11.3301ZM30.9424 18.9395L30.501 18.7045L30.2917 19.0977L30.6582 19.3509L30.9424 18.9395ZM37.0752 29.2324L37.5752 29.2324L37.5752 29.2324L37.0752 29.2324ZM21.3877 39.6201L21.3877 40.1201H21.3877V39.6201ZM5.70117 29.2324L5.20117 29.2324V29.2324H5.70117ZM20.5254 15.9707L20.5513 16.47L21.0398 16.4447L21.0252 15.9558L20.5254 15.9707ZM21.4287 10.7529L21.9053 10.9041C22.6543 8.54258 24.002 6.59017 25.4814 5.28239C26.9783 3.95912 28.5323 3.3587 29.6987 3.52802L29.7705 3.0332L29.8423 2.53839C28.2578 2.30838 26.4172 3.12043 24.8191 4.53316C23.2034 5.96137 21.7556 8.06848 20.9521 10.6018L21.4287 10.7529ZM29.7705 3.0332L29.6986 3.52801C30.8441 3.69436 31.7491 4.52623 32.3507 5.91618C32.9534 7.30889 33.2167 9.19888 33.0869 11.2992L33.5859 11.3301L34.085 11.3609C34.2212 9.15763 33.9522 7.09894 33.2684 5.51899C32.5834 3.93629 31.4477 2.77154 29.8424 2.53839L29.7705 3.0332ZM33.5859 11.3301L33.0869 11.2992C32.9487 13.5334 31.7118 16.4303 30.501 18.7045L30.9424 18.9395L31.3837 19.1744C32.6012 16.8875 33.9325 13.8264 34.085 11.3609L33.5859 11.3301ZM30.9424 18.9395L30.6582 19.3509C34.2899 21.859 36.575 25.6149 36.5752 29.2324L37.0752 29.2324L37.5752 29.2324C37.575 25.2032 35.052 21.1701 31.2265 18.528L30.9424 18.9395ZM37.0752 29.2324H36.5752C36.5752 32.2925 34.9413 34.7445 32.2147 36.4539C29.4763 38.1707 25.6537 39.1201 21.3877 39.1201V39.6201V40.1201C25.7853 40.1201 29.8065 39.144 32.7459 37.3011C35.6972 35.4508 37.5752 32.709 37.5752 29.2324H37.0752ZM21.3877 39.6201L21.3877 39.1201C17.1217 39.1201 13.2994 38.1707 10.5612 36.4539C7.8349 34.7445 6.20117 32.2925 6.20117 29.2324H5.70117H5.20117C5.20117 32.709 7.07891 35.4508 10.03 37.3011C12.9691 39.1439 16.9901 40.1201 21.3877 40.1201L21.3877 39.6201ZM5.70117 29.2324L6.20117 29.2324C6.2013 26.2449 7.75727 23.1617 10.3545 20.7599C12.947 18.3624 16.5436 16.6777 20.5513 16.47L20.5254 15.9707L20.4995 15.4714C16.2448 15.6919 12.4295 17.4789 9.67551 20.0257C6.92626 22.5682 5.20132 25.9017 5.20117 29.2324L5.70117 29.2324ZM20.5254 15.9707L21.0252 15.9558C20.983 14.5435 21.2842 12.8625 21.9053 10.9041L21.4287 10.7529L20.9521 10.6018C20.3128 12.6177 19.9789 14.4183 20.0256 15.9856L20.5254 15.9707Z" fill="#C57784"/>
<path d="M33.7525 31.5355C33.7525 35.4267 28.8542 38.2002 22.8183 38.2002C16.7823 38.2002 11.8945 35.4267 11.8945 31.5355C11.8945 27.6443 16.7823 24.1089 22.8183 24.1089C28.8542 24.1089 33.7525 27.6443 33.7525 31.5355Z" fill="#FFFAFB" stroke="#C57784"/>
<path d="M21.793 34.6689C22.5036 35.2568 24.3802 36.1408 26.2014 34.9737" stroke="#C57784" stroke-linecap="round"/>
<ellipse cx="16.6087" cy="30.9449" rx="1.43485" ry="1.82139" fill="#C57784"/>
<ellipse cx="29.4745" cy="30.5916" rx="1.38267" ry="1.75516" fill="#C57784"/>
<ellipse cx="24.1818" cy="32.5014" rx="1.23645" ry="0.993573" fill="#EEDF50" stroke="#C57784"/>
<path d="M24.2676 20.5809C22.3539 22.7299 18.2931 21.0417 16.9788 19.163C15.4158 14.7705 19.3617 9.72713 21.9763 10.9908C24.5908 12.2545 23.3109 15.1685 23.4973 16.1123C23.6838 17.0561 26.1163 18.5047 24.2676 20.5809Z" fill="#FAABB9" stroke="#C57784"/>
<path d="M10.434 25.6099C13.2809 26.0284 15.3098 22.1266 15.1109 19.8425C13.4884 15.4716 7.22496 14.1393 6.03218 16.787C4.8394 19.4346 7.69179 20.8465 8.15492 21.6897C8.61805 22.5329 7.68358 25.2055 10.434 25.6099Z" fill="#FAABB9" stroke="#C57784"/>
<path d="M19.4832 17.5602C19.8773 18.6445 17.8078 18.8823 16.9271 18.9198C16.7888 18.7717 16.5575 18.6264 16.6958 18.2825C16.8686 17.8526 18.9588 16.1176 19.4832 17.5602Z" fill="#FFFAFB" stroke="#C57784"/>
<path d="M12.1615 20.2217C12.5557 21.3061 14.2949 20.1594 14.994 19.6226C15.005 19.4203 15.0889 19.1604 14.7621 18.9855C14.3536 18.767 11.6372 18.7792 12.1615 20.2217Z" fill="#FFFAFB" stroke="#C57784"/>
<ellipse cx="15.7109" cy="18.5898" rx="2.32498" ry="2.85982" transform="rotate(-19.9761 15.7109 18.5898)" fill="#FAABB9" stroke="#C57784"/>
</svg>
