<svg width="25" height="28" viewBox="0 0 25 28" fill="none" xmlns="http://www.w3.org/2000/svg">
<path d="M16.6494 2.71631C17.8395 1.87049 19.2776 1.35495 20.5508 1.68018C21.8648 2.01603 22.6426 3.07773 23.0146 4.27002C23.3849 5.45672 23.4084 6.90317 23.1602 8.36865C22.9052 9.87357 22.0018 11.5718 21.1475 12.9058C22.5592 14.5111 23.4453 16.482 23.4453 18.4985C23.4452 21.0118 22.0744 22.9678 20.0283 24.2505C18.0061 25.5181 15.2915 26.1626 12.3809 26.1626C9.47019 26.1626 6.75564 25.5182 4.7334 24.2505C2.68736 22.9678 1.31648 21.0118 1.31641 18.4985C1.31641 16.4822 2.20083 14.51 3.6123 12.9048C2.75828 11.571 1.85542 9.87305 1.60059 8.36865C1.35237 6.90321 1.37587 5.45669 1.74609 4.27002C2.11816 3.07771 2.89593 2.01608 4.20996 1.68018C5.4833 1.35471 6.92204 1.87033 8.1123 2.71631C9.34067 3.5894 10.4859 4.93322 11.2197 6.60693C11.4211 7.06634 11.595 7.51445 11.7412 7.94971C11.9401 7.888 12.1529 7.85303 12.377 7.85303C12.6034 7.85306 12.8178 7.88964 13.0186 7.95264C13.1649 7.51649 13.3392 7.06737 13.541 6.60693H13.542C14.2758 4.93318 15.421 3.5894 16.6494 2.71631Z" fill="#FAABB9" stroke="#FFFAFB" stroke-width="2"/>
<path d="M22.1737 8.20216C21.804 10.3843 19.7836 13.2631 18.8195 14.4297C17.9116 14.5334 15.7988 14.4629 14.6117 13.3517C13.1278 11.9627 13.2095 9.85318 14.4566 7.00849C15.7795 3.99099 18.5749 2.20792 20.3028 2.64956C22.0307 3.09119 22.6358 5.47451 22.1737 8.20216Z" fill="#FAABB9" stroke="#C57784" stroke-linecap="round"/>
<path d="M2.58609 8.20217C2.95577 10.3843 4.97622 13.2631 5.94023 14.4297C6.84821 14.5334 8.96094 14.4629 10.1481 13.3517C11.632 11.9627 11.5503 9.85318 10.3031 7.00849C8.98023 3.99099 6.18488 2.20792 4.45697 2.64956C2.72907 3.09119 2.124 5.47451 2.58609 8.20217Z" fill="#FAABB9" stroke="#C57784" stroke-linecap="round"/>
<path d="M22.4455 18.4985C22.4455 22.6923 17.9394 25.1628 12.3809 25.1628C6.82245 25.1628 2.31641 22.6923 2.31641 18.4985C2.31641 14.3047 6.82245 9.97559 12.3809 9.97559C17.9394 9.97559 22.4455 14.3047 22.4455 18.4985Z" fill="#FAABB9" stroke="#C57784"/>
<path d="M19.3929 19.6266C19.3929 22.1232 16.2502 23.9026 12.3777 23.9026C8.5051 23.9026 5.36914 22.1232 5.36914 19.6266C5.36914 17.1301 8.5051 14.8618 12.3777 14.8618C16.2502 14.8618 19.3929 17.1301 19.3929 19.6266Z" fill="#FFFAFB" stroke="#C57784"/>
<path d="M10.9668 21.6372C11.4227 22.0144 12.6267 22.5815 13.7952 21.8327" stroke="#C57784" stroke-linecap="round"/>
<ellipse cx="8.47917" cy="18.9567" rx="0.92058" ry="1.16858" fill="#C57784"/>
<ellipse cx="16.5182" cy="18.9567" rx="0.92058" ry="1.16858" fill="#C57784"/>
<ellipse cx="12.4984" cy="20.2473" rx="0.793287" ry="0.637463" fill="#EEDF50" stroke="#C57784"/>
<path d="M16.7628 13.4099C15.255 14.2231 13.3263 12.4526 12.973 11.1342C12.9919 8.35871 16.2254 6.33947 17.4312 7.57824C18.637 8.817 17.3283 10.1871 17.2406 10.753C17.153 11.319 18.2194 12.6243 16.7628 13.4099Z" fill="#FAABB9" stroke="#C57784"/>
<path d="M7.997 13.4099C9.50475 14.2231 11.4334 12.4526 11.7867 11.1342C11.7679 8.35871 8.53441 6.33947 7.32858 7.57824C6.12275 8.81701 7.43151 10.1871 7.51914 10.753C7.60678 11.319 6.54039 12.6243 7.997 13.4099Z" fill="#FAABB9" stroke="#C57784"/>
<path d="M14.6975 10.7467C14.6975 11.4334 13.4915 11.1456 12.9912 10.9875C12.944 10.8765 12.8441 10.7482 12.9914 10.5839C13.1755 10.3786 14.6975 9.83308 14.6975 10.7467Z" fill="#FFFAFB" stroke="#C57784"/>
<path d="M10.0603 10.7467C10.0603 11.4334 11.2663 11.1456 11.7666 10.9875C11.8139 10.8765 11.9137 10.7482 11.7664 10.5839C11.5823 10.3786 10.0603 9.83308 10.0603 10.7467Z" fill="#FFFAFB" stroke="#C57784"/>
<ellipse cx="12.378" cy="10.5552" rx="1.38385" ry="1.7022" fill="#FAABB9" stroke="#C57784"/>
</svg>
