<svg width="25" height="17" viewBox="0 0 25 17" fill="none" xmlns="http://www.w3.org/2000/svg">
<path d="M17.4346 2.46484C18.9461 1.77043 20.8585 1.57474 22.1299 2.88086C23.1616 3.94077 23.4138 5.10857 23.2744 6.18457C23.1448 7.18416 22.6763 8.08093 22.3809 8.65918C22.2755 8.86541 22.1957 9.0232 22.1357 9.1582C22.092 9.25681 22.0738 9.31088 22.0674 9.33203C22.0689 9.34981 22.0742 9.39293 22.0908 9.46875C22.1213 9.60744 22.1716 9.7718 22.2422 10.002C22.4017 10.5219 22.6788 11.3758 22.5742 12.2539C22.456 13.2464 21.8831 14.1293 20.707 14.7637C19.2106 15.5707 17.6102 15.2686 16.3252 14.5859C15.3778 14.0826 14.5231 13.3375 13.8604 12.5186C13.447 12.7264 12.9845 12.8486 12.4883 12.8486C11.9917 12.8486 11.5289 12.7268 11.1152 12.5186C10.4526 13.3373 9.59851 14.0827 8.65137 14.5859C7.36636 15.2687 5.76599 15.5708 4.26953 14.7637C3.09334 14.1293 2.52061 13.2464 2.40234 12.2539C2.29772 11.3758 2.57488 10.5219 2.73438 10.002C2.80499 9.77179 2.85526 9.60744 2.88574 9.46875C2.90238 9.39302 2.90664 9.34985 2.9082 9.33203C2.90175 9.31074 2.88445 9.2565 2.84082 9.1582C2.78086 9.02312 2.70019 8.86559 2.59473 8.65918C2.29927 8.08091 1.83075 7.18419 1.70117 6.18457C1.56174 5.10853 1.81491 3.9408 2.84668 2.88086C4.11814 1.57466 6.03037 1.7703 7.54199 2.46484C8.7765 3.03208 9.98567 4.01893 10.8945 5.28418C11.3606 5.00176 11.8995 4.8321 12.4883 4.83203C13.0765 4.83203 13.6153 5.00135 14.0811 5.2832C14.9899 4.01801 16.2001 3.03202 17.4346 2.46484Z" fill="#FAABB9" stroke="#FFFAFB" stroke-width="2"/>
<path d="M20.232 13.8397C17.5677 15.2766 14.1595 12.1481 13.5352 9.81833C13.5685 4.91383 19.2823 1.34567 21.4131 3.53467C23.5439 5.72368 21.2313 8.14471 21.0764 9.14481C20.9216 10.1449 22.8059 12.4514 20.232 13.8397Z" fill="#FAABB9" stroke="#C57784"/>
<path d="M4.74457 13.8397C7.40888 15.2766 10.817 12.1481 11.4413 9.81833C11.408 4.91383 5.69422 1.34567 3.56342 3.53467C1.43262 5.72368 3.7453 8.14471 3.90016 9.14481C4.05501 10.1449 2.17063 12.4514 4.74457 13.8397Z" fill="#FAABB9" stroke="#C57784"/>
<path d="M16.5857 9.13348C16.5857 10.3472 14.4541 9.83855 13.5699 9.55906C13.4864 9.36299 13.31 9.13617 13.5703 8.84585C13.8956 8.48294 16.5857 7.51877 16.5857 9.13348Z" fill="#FAABB9" stroke="#C57784"/>
<path d="M8.39086 9.13348C8.39086 10.3472 10.5225 9.83855 11.4066 9.55906C11.4901 9.36299 11.6666 9.13617 11.4063 8.84585C11.0809 8.48294 8.39086 7.51877 8.39086 9.13348Z" fill="#FAABB9" stroke="#C57784"/>
<ellipse cx="12.4888" cy="8.79655" rx="2.44581" ry="3.00846" fill="#FAABB9" stroke="#C57784"/>
</svg>
