<svg width="14" height="26" viewBox="0 0 14 26" fill="none" xmlns="http://www.w3.org/2000/svg">
<path d="M0.829311 5.51437C1.37326 5.42002 1.89096 5.78486 1.98556 6.32882L3.98556 17.8288C4.07991 18.3728 3.71507 18.8905 3.17111 18.9851C2.62716 19.0794 2.10946 18.7146 2.01486 18.1706L0.0148581 6.67062C-0.0794899 6.12667 0.285345 5.60897 0.829311 5.51437Z" fill="white"/>
<path d="M4.83173 0.0143511C5.37611 -0.0783082 5.89227 0.287414 5.98505 0.831734L9.98505 24.3317C10.0777 24.8761 9.71199 25.3923 9.16767 25.4851C8.6233 25.5777 8.10714 25.212 8.01435 24.6677L4.01435 1.16767C3.92169 0.623298 4.28741 0.107136 4.83173 0.0143511Z" fill="white"/>
<path d="M10.336 4.01321C10.8806 3.92261 11.3956 4.29082 11.4864 4.83548L13.4864 16.8355C13.577 17.3801 13.2088 17.8951 12.6641 17.9859C12.1194 18.0765 11.6045 17.7083 11.5137 17.1636L9.5137 5.16361C9.4231 4.61895 9.7913 4.10399 10.336 4.01321Z" fill="white"/>
</svg>
