<svg width="58" height="39" viewBox="0 0 58 39" fill="none" xmlns="http://www.w3.org/2000/svg">
<path d="M42.6002 13.6036C46.3338 14.4271 49.5998 17.1619 50.5782 21.0496C50.713 21.5851 50.388 22.1287 49.8524 22.2635C49.3168 22.3983 48.7732 22.0733 48.6384 21.5377C47.8705 18.4864 45.2716 16.2409 42.1694 15.5566C41.6301 15.4377 41.2894 14.904 41.4083 14.3647C41.5273 13.8254 42.0609 13.4846 42.6002 13.6036Z" fill="#A33552"/>
<path d="M46.1389 19.5192C49.8092 22.9322 45.9943 32.8985 43.628 37.4551C20.172 43.3404 -14.738 19.4715 6.67774 4.29363C23.8103 -7.84865 33.0938 8.6236 35.5939 18.3775C37.5796 17.336 42.4686 16.1062 46.1389 19.5192Z" fill="#A33552"/>
<path d="M55.0055 22.1344C55.6647 21.6986 56.5094 22.1784 56.4725 22.9678L56.4168 24.161C56.4026 24.4655 56.5275 24.7548 56.755 24.9443L57.6468 25.6871C58.2368 26.1784 58.0237 27.1611 57.2768 27.3938L56.1477 27.7455C55.8597 27.8352 55.6244 28.0548 55.5108 28.34L55.0655 29.4578C54.7709 30.1973 53.7946 30.3248 53.3699 29.6792L52.7278 28.7033C52.564 28.4543 52.2936 28.3008 51.9959 28.2875L50.8289 28.2356C50.0569 28.2012 49.6665 27.2973 50.1509 26.6657L50.8832 25.7109C51.07 25.4673 51.1382 25.1528 51.0678 24.8594L50.7918 23.7095C50.6093 22.9487 51.3443 22.2626 52.0685 22.5178L53.1631 22.9036C53.4424 23.002 53.7549 22.9612 54.0091 22.7932L55.0055 22.1344Z" fill="#A33552"/>
<path d="M39.9923 6.16221C40.6849 5.78176 41.4875 6.32909 41.3862 7.11281L41.2331 8.2975C41.194 8.59973 41.2949 8.89829 41.5062 9.10575L42.3343 9.91897C42.8821 10.457 42.5894 11.4189 41.8259 11.5897L40.6719 11.8479C40.3775 11.9138 40.125 12.1134 39.9885 12.3884L39.4533 13.466C39.0992 14.179 38.1157 14.2262 37.7452 13.548L37.1851 12.5229C37.0422 12.2614 36.7853 12.0862 36.4896 12.0487L35.3308 11.9015C34.5642 11.8041 34.249 10.8713 34.7835 10.2814L35.5913 9.38966C35.7974 9.16217 35.8911 8.85427 35.8449 8.55613L35.6639 7.38748C35.5442 6.61437 36.3329 5.99066 37.0337 6.30422L38.0932 6.77821C38.3634 6.89914 38.6782 6.88403 38.9453 6.73731L39.9923 6.16221Z" fill="#A33552"/>
</svg>
