<svg width="50" height="32" viewBox="0 0 50 32" fill="none" xmlns="http://www.w3.org/2000/svg">
<path d="M15.7632 13.4579C4.65389 14.6589 0.625523 7.95326 0 4.45033C0 -0.80406 22.5188 -0.428746 35.6548 0.697194C48.7908 1.82313 57.7983 24.7173 39.0326 28.0951C24.0201 30.7973 17.2644 19.4629 15.7632 13.4579Z" fill="#A33552"/>
<path d="M14.6292 19.0716C15.1419 18.8667 15.724 19.1165 15.929 19.6292C17.1895 22.7802 21.7172 29.2549 29.595 30.0052C30.1448 30.0576 30.5478 30.5453 30.4954 31.095C30.4431 31.6448 29.9554 32.0478 29.4056 31.9954C20.4837 31.1457 15.4779 23.8872 14.0716 20.3714C13.8667 19.8587 14.1165 19.2767 14.6292 19.0716Z" fill="#A33552"/>
</svg>
