<svg width="56" height="44" viewBox="0 0 56 44" fill="none" xmlns="http://www.w3.org/2000/svg">
<path d="M35.4314 35.4373C33.5865 35.4373 27.3138 34.3304 31.3726 38.3892C33.9525 40.969 39.2929 42.3481 44.2145 40.6468C44.8384 40.4311 45.4557 40.166 46.0597 39.8474C48.1867 38.7257 50.15 36.9424 51.6664 34.3304C56.8578 25.3884 51.4514 19.8289 47.9629 16.2416C46.9889 15.2401 46.1645 14.3923 45.7619 13.6676C44.8348 11.9989 45.7036 9.46646 46.9047 7.38698C47.249 6.79091 47.6205 6.23205 47.985 5.74143C48.3166 5.295 47.9504 4.61772 47.409 4.74456C39.2358 6.65918 32.1799 14.7334 33.2166 19.5712C34.0583 23.4994 36.607 24.4405 38.1043 26.2884C38.5761 26.8706 38.9434 27.5428 39.1202 28.4267C39.658 31.1155 38.4329 33.6083 37.0147 34.763C36.4867 35.1929 35.9319 35.4373 35.4314 35.4373Z" fill="#8E1330"/>
<path d="M47.0716 3.30823C48.0964 3.06816 48.9319 3.63301 49.31 4.3049C49.6754 4.95444 49.7265 5.8718 49.1694 6.62183C48.8375 7.0687 48.497 7.58064 48.1821 8.12585C47.626 9.0887 47.1812 10.1003 46.9736 11.0099C46.7608 11.9422 46.8392 12.5694 47.0514 12.9514C47.3352 13.4622 47.9828 14.146 49.0203 15.2128C50.7362 16.9774 53.1825 19.4678 54.4461 22.7481C55.7553 26.1465 55.7484 30.2384 52.9421 35.0721C51.2889 37.9195 49.1239 39.9 46.748 41.153C46.0759 41.5075 45.3893 41.8028 44.6963 42.0423C39.3056 43.9057 33.3541 42.4585 30.3285 39.4328C29.776 38.8804 29.3377 38.3561 29.0378 37.8524C28.7482 37.3662 28.4986 36.7509 28.5657 36.0709C28.6412 35.3063 29.0817 34.7652 29.5725 34.4408C30.0155 34.1481 30.518 34.0117 30.928 33.9385C31.7559 33.7907 32.7364 33.8137 33.5239 33.8542C34.4215 33.9004 35.0125 33.9615 35.4307 33.9616V35.4375C33.5856 35.4374 27.3138 34.3309 31.372 38.3893C33.8712 40.8886 38.9614 42.2611 43.7515 40.7978L44.2142 40.6471C44.682 40.4854 45.1461 40.2961 45.6036 40.0771L46.0591 39.8479C48.1861 38.7262 50.1494 36.9426 51.6658 34.3305C56.8571 25.3886 51.4509 19.8292 47.9623 16.2419C46.9884 15.2405 46.164 14.3925 45.7614 13.6677C44.8924 12.1033 45.6015 9.7798 46.6832 7.78209L46.9044 7.38717C47.1625 6.94033 47.4358 6.51435 47.7101 6.12241L47.9847 5.7419C48.3162 5.29553 47.9502 4.61864 47.4089 4.74523C39.2358 6.65981 32.1797 14.7335 33.2161 19.5714C34.0579 23.4994 36.6063 24.4409 38.1037 26.2887C38.5754 26.8708 38.943 27.543 39.1198 28.4269C39.6576 31.1156 38.4322 33.609 37.014 34.7637L36.8151 34.9157C36.3484 35.2505 35.8687 35.4375 35.4307 35.4375V33.9616C35.4699 33.9616 35.7042 33.9263 36.0822 33.6185C37.1044 32.7862 38.0961 30.8338 37.6727 28.7166C37.5498 28.1019 37.3024 27.6437 36.9571 27.2176C36.6662 26.8586 36.3069 26.5227 35.8487 26.1172C35.4132 25.7317 34.8701 25.2685 34.3555 24.7385C33.2719 23.6226 32.2623 22.1656 31.7727 19.8806C31.4262 18.2632 31.7794 16.5237 32.4955 14.8907C33.2186 13.2417 34.3617 11.583 35.7767 10.0579C38.5973 7.01797 42.6528 4.34347 47.0716 3.30823Z" fill="#FFC8D5"/>
<path d="M35.4314 35.4373C33.5865 35.4373 27.3138 34.3304 31.3726 38.3892C33.9525 40.969 39.2929 42.3481 44.2145 40.6468C44.8384 40.4311 45.4557 40.166 46.0597 39.8474C48.1867 38.7257 50.15 36.9424 51.6664 34.3304C56.8578 25.3884 51.4514 19.8289 47.9629 16.2416C46.9889 15.2401 46.1645 14.3923 45.7619 13.6676C44.8348 11.9989 45.7036 9.46646 46.9047 7.38698C47.249 6.79091 47.6205 6.23205 47.985 5.74143C48.3166 5.295 47.9504 4.61772 47.409 4.74456C39.2358 6.65918 32.1799 14.7334 33.2166 19.5712C34.0583 23.4994 36.607 24.4405 38.1043 26.2884C38.5761 26.8706 38.9434 27.5428 39.1202 28.4267C39.658 31.1155 38.4329 33.6083 37.0147 34.763C36.4867 35.1929 35.9319 35.4373 35.4314 35.4373Z" fill="#8E1330"/>
<path d="M47.2405 4.02713C47.8883 3.87538 48.4195 4.22649 48.6674 4.66707C48.9089 5.0964 48.9386 5.69536 48.5773 6.1819C48.2292 6.65055 47.8735 7.18605 47.5439 7.75655C46.9656 8.75782 46.4842 9.84039 46.2547 10.846C46.0225 11.863 46.0689 12.7018 46.4067 13.31L46.4759 13.4274C46.8432 14.0244 47.5487 14.7583 48.4916 15.7278C50.2217 17.5069 52.557 19.8955 53.7582 23.0137C54.9821 26.1908 55.0054 30.0492 52.3046 34.7014C50.7197 37.4312 48.6554 39.3138 46.4038 40.5013C45.7658 40.8377 45.1136 41.1175 44.4552 41.3451C39.2991 43.1273 33.6532 41.7142 30.8505 38.9115C30.3207 38.3816 29.9281 37.9061 29.6715 37.4752C29.4202 37.0532 29.2554 36.6007 29.3004 36.1441C29.3497 35.645 29.6336 35.2855 29.98 35.0567C30.3023 34.8437 30.6917 34.7308 31.0581 34.6653C31.7948 34.5338 32.7002 34.5514 33.486 34.5918C34.3268 34.6351 34.9913 34.6999 35.431 34.6999V35.4379C33.5859 35.4378 27.3141 34.3313 31.3723 38.3897C33.8715 40.889 38.9617 42.2615 43.7518 40.7982L44.2145 40.6475C44.6823 40.4858 45.1464 40.2965 45.6039 40.0775L46.0594 39.8483C48.1864 38.7266 50.1497 36.943 51.6661 34.3309C56.8574 25.389 51.4512 19.8296 47.9626 16.2423C46.9887 15.2409 46.1643 14.3929 45.7617 13.6681C44.8927 12.1037 45.6018 9.7802 46.6834 7.78249L46.9047 7.38757C47.1628 6.94073 47.4361 6.51475 47.7104 6.12281L47.985 5.7423C48.3165 5.29593 47.9505 4.61904 47.4092 4.74562C39.2361 6.66021 32.18 14.7339 33.2164 19.5718C34.0582 23.4998 36.6066 24.4413 38.104 26.2891C38.5757 26.8712 38.9433 27.5434 39.1201 28.4273C39.6578 31.116 38.4325 33.6094 37.0143 34.7641L36.8154 34.9161C36.3487 35.2509 35.869 35.4379 35.431 35.4379V34.6999C35.7009 34.6999 36.0958 34.56 36.5488 34.1911C37.7689 33.1975 38.8771 30.9749 38.3966 28.5721C38.2467 27.8229 37.9395 27.258 37.531 26.7539C37.1984 26.3434 36.7988 25.9723 36.3384 25.5648C35.8893 25.1674 35.3745 24.7294 34.8848 24.2251C33.8782 23.1885 32.9503 21.8512 32.4951 19.7267C32.1922 18.3133 32.492 16.7375 33.1718 15.1873C33.855 13.6292 34.9467 12.0388 36.3182 10.5606C39.0565 7.60932 42.9878 5.02338 47.2405 4.02713Z" fill="#1F030A"/>
<path d="M42.3805 12.2636C42.9029 8.96341 44.8701 7.80379 44.4621 7.18888C43.7266 6.08033 34.9909 12.2903 37.8541 14.27C40.361 16.0033 42.092 14.0858 42.3805 12.2636Z" fill="#B22143"/>
<path d="M39.8556 18.0956C40.9626 18.0956 43.5454 15.5127 43.5454 12.9299C43.5454 11.4639 45.2789 9.16831 46.9011 7.38721C45.7 9.46668 44.8312 11.9991 45.7583 13.6678C46.1607 14.3923 46.9856 15.2406 47.959 16.2416L47.9593 16.2418C51.4478 19.8292 56.8542 25.3887 51.6628 34.3306C50.1464 36.9427 48.1832 38.7259 46.0561 39.8477C45.4521 40.1662 44.8349 40.4313 44.2109 40.647C47.0944 38.3844 48.2475 35.3428 47.9732 35.0685C47.6042 34.6996 46.1283 35.4375 44.6524 35.4375C43.5454 35.4375 41.4545 31.8708 40.5936 30.2719C41.3316 31.3788 43.9144 32.8547 44.6524 32.8547C45.3903 32.8547 49.4491 30.2719 49.4491 28.058C49.4491 25.8441 47.6042 20.6784 46.1283 19.5715C44.6524 18.4645 42.0695 19.5715 39.8556 19.5715C38.0845 19.5715 36.4118 17.1116 35.7969 15.8817C36.5348 16.9886 38.7487 18.0956 39.8556 18.0956Z" fill="#530D1D"/>
<path d="M39.4902 18.4642C37.7191 18.4642 35.8005 16.0043 35.0625 14.7744C35.8005 15.5124 38.0143 16.9883 39.4902 16.9883C40.9662 16.9883 43.549 14.4054 43.549 15.1434C43.549 15.8814 41.7041 18.4642 39.4902 18.4642Z" fill="#FFC8D5"/>
<path d="M37.0117 34.7636C41.3698 34.774 42.007 30.9464 40.9638 29.9032C40.5606 29.4999 39.2114 27.1976 38.1014 26.2891C38.5731 26.8712 38.9405 27.5435 39.1173 28.4274C39.655 31.1161 38.4299 33.6089 37.0117 34.7636Z" fill="#530D1D"/>
<path d="M44.6543 33.5928C42.8832 33.5928 40.9645 30.641 40.2266 29.165C41.2105 30.026 43.4736 32.1169 44.6543 32.1169C46.1302 32.1169 48.7131 29.534 48.7131 29.903C48.7131 30.272 46.8682 33.5928 44.6543 33.5928Z" fill="#FFC8D5"/>
<path d="M20.783 34.9169C22.6048 35.208 28.9735 35.1047 24.3252 38.4721C21.3705 40.6126 15.8794 41.1317 11.2879 38.6752C10.7058 38.3638 10.1382 38.0045 9.59199 37.5947C7.66856 36.1513 6.01131 34.0807 4.92601 31.2621C1.21058 21.613 7.4265 16.9762 11.4374 13.9843C12.5571 13.149 13.505 12.4419 14.017 11.7898C15.1957 10.2883 14.7374 7.65048 13.8795 5.40754C13.6336 4.76461 13.3548 4.15412 13.0724 3.61214C12.8154 3.11898 13.2838 2.50796 13.7985 2.71865C21.5671 5.89892 27.2606 14.9853 25.4736 19.599C24.0225 23.3451 21.3573 23.8723 19.5871 25.4608C19.0295 25.9612 18.5606 26.567 18.2466 27.412C17.2913 29.9822 18.1077 32.6371 19.3259 34.0011C19.7795 34.509 20.2887 34.8379 20.783 34.9169Z" fill="#8E1330"/>
<path d="M14.3585 1.35254C13.3844 0.953774 12.4703 1.37973 11.9909 1.98354C11.5276 2.56727 11.3324 3.46507 11.7641 4.29361C12.0214 4.78726 12.2768 5.34651 12.5017 5.93458C12.8989 6.97311 13.1785 8.04219 13.2401 8.97323C13.3031 9.9274 13.1267 10.5344 12.8569 10.8781C12.496 11.3377 11.7486 11.9108 10.5558 12.8005C8.58295 14.2722 5.77437 16.3455 4.00897 19.3852C2.17998 22.5345 1.54113 26.5763 3.54954 31.7922C4.73272 34.8648 6.55809 37.1621 8.70652 38.7743C9.31428 39.2304 9.94567 39.6303 10.5922 39.9762C15.6213 42.6669 21.7267 42.1768 25.1918 39.6665C25.8245 39.2081 26.34 38.7596 26.7157 38.3095C27.0784 37.8751 27.422 37.3069 27.4629 36.6249C27.509 35.8579 27.1595 35.254 26.726 34.8563C26.3347 34.4974 25.86 34.2834 25.4667 34.1464C24.6726 33.8698 23.7007 33.7378 22.9167 33.6535C22.023 33.5575 21.4298 33.5247 21.0168 33.4587L20.7839 34.9161C22.6059 35.2072 28.9738 35.1042 24.326 38.4714C21.4637 40.545 16.2208 41.0972 11.7216 38.8963L11.2885 38.6746C10.852 38.4411 10.4236 38.1809 10.0064 37.8924L9.59278 37.5943C7.66935 36.1509 6.01216 34.0799 4.92686 31.2613C1.2115 21.6123 7.42727 16.9756 11.4381 13.9837C12.5578 13.1484 13.5057 12.4411 14.0177 11.789C15.1226 10.3813 14.7891 7.97502 14.0362 5.83165L13.88 5.40677C13.6957 4.9248 13.4929 4.46102 13.284 4.03072L13.0729 3.61165C12.8159 3.11856 13.2842 2.5079 13.7987 2.71832C21.5673 5.89854 27.2611 14.9845 25.4742 19.5982C24.0233 23.3442 21.3582 23.8717 19.588 25.4602C19.0304 25.9606 18.5613 26.5664 18.2472 27.4112C17.292 29.9814 18.1085 32.6369 19.3267 34.0009L19.4992 34.1824C19.9072 34.5867 20.3514 34.847 20.7839 34.9161L21.0168 33.4587C20.9781 33.4525 20.7523 33.3807 20.4276 33.0172C19.5495 32.034 18.8783 29.9495 19.6305 27.9257C19.8489 27.338 20.1655 26.9247 20.5736 26.5584C20.9176 26.2498 21.3254 25.9747 21.8418 25.6466C22.3326 25.3347 22.942 24.963 23.5338 24.5209C24.78 23.5899 26.0068 22.3104 26.8509 20.1313C27.4482 18.5889 27.3739 16.8154 26.9244 15.0899C26.4705 13.3474 25.6036 11.5291 24.4469 9.79993C22.1413 6.35297 18.5587 3.07206 14.3585 1.35254Z" fill="#FFC8D5"/>
<path d="M20.783 34.9169C22.6048 35.208 28.9735 35.1047 24.3252 38.4721C21.3705 40.6126 15.8794 41.1317 11.2879 38.6752C10.7058 38.3638 10.1382 38.0045 9.59199 37.5947C7.66856 36.1513 6.01131 34.0807 4.92601 31.2621C1.21058 21.613 7.4265 16.9762 11.4374 13.9843C12.5571 13.149 13.505 12.4419 14.017 11.7898C15.1957 10.2883 14.7374 7.65048 13.8795 5.40754C13.6336 4.76461 13.3548 4.15412 13.0724 3.61214C12.8154 3.11898 13.2838 2.50796 13.7985 2.71865C21.5671 5.89892 27.2606 14.9853 25.4736 19.599C24.0225 23.3451 21.3573 23.8723 19.5871 25.4608C19.0295 25.9612 18.5606 26.567 18.2466 27.412C17.2913 29.9822 18.1077 32.6371 19.3259 34.0011C19.7795 34.509 20.2887 34.8379 20.783 34.9169Z" fill="#8E1330"/>
<path d="M14.0802 2.03507C13.4645 1.78301 12.8845 2.04591 12.5702 2.44184C12.264 2.82769 12.1402 3.41446 12.4201 3.95191C12.6899 4.46961 12.9568 5.05455 13.1921 5.6699C13.6052 6.74988 13.9097 7.89484 13.9778 8.9241C14.0465 9.96492 13.8684 10.786 13.4388 11.3332L13.352 11.4383C12.8951 11.9698 12.0826 12.5831 10.9986 13.3917C9.0094 14.8756 6.32646 16.8658 4.64831 19.7553C2.93844 22.6996 2.30658 26.506 4.23947 31.526C5.37374 34.4717 7.11513 36.6565 9.15117 38.1843C9.72811 38.6172 10.328 38.9964 10.9423 39.3251C15.7525 41.8985 21.5507 41.3939 24.7605 39.0686C25.3673 38.629 25.83 38.2213 26.1514 37.8363C26.4661 37.4592 26.7003 37.0384 26.7279 36.5805C26.758 36.0798 26.5343 35.68 26.2284 35.3994C25.9437 35.1383 25.577 34.9653 25.2255 34.8429C24.5188 34.5967 23.622 34.4713 22.8397 34.3872C22.0025 34.2973 21.3361 34.2564 20.9019 34.187L20.7855 34.9158C22.6075 35.2068 28.9753 35.1038 24.3276 38.471C21.4653 40.5446 16.2223 41.0968 11.7231 38.896L11.29 38.6742C10.8536 38.4407 10.4252 38.1805 10.0079 37.8921L9.59435 37.5939C7.67092 36.1506 6.01373 34.0795 4.92843 31.261C1.21308 21.6119 7.42884 16.9752 11.4397 13.9833C12.5594 13.1481 13.5073 12.4408 14.0192 11.7886C15.1242 10.381 14.7907 7.97466 14.0377 5.83129L13.8816 5.4064C13.6972 4.92444 13.4945 4.46066 13.2855 4.03036L13.0745 3.61129C12.8175 3.1182 13.2857 2.50754 13.8003 2.71796C21.5689 5.89818 27.2626 14.9841 25.4758 19.5979C24.0248 23.3439 21.3598 23.8714 19.5896 25.4598C19.032 25.9602 18.5629 26.566 18.2488 27.4109C17.2935 29.9811 18.1101 32.6365 19.3283 34.0005L19.5007 34.1821C19.9088 34.5863 20.353 34.8466 20.7855 34.9158L20.9019 34.187C20.6354 34.1445 20.2676 33.944 19.8784 33.5083C18.8304 32.3346 18.0867 29.965 18.9404 27.6681C19.2066 26.9519 19.5992 26.4425 20.082 26.0092C20.4752 25.6563 20.9284 25.353 21.4474 25.0232C21.9535 24.7016 22.531 24.3504 23.0941 23.9296C24.2517 23.0649 25.3789 21.8907 26.1637 19.8647C26.6858 18.5167 26.6384 16.9134 26.2118 15.2753C25.7829 13.6289 24.9559 11.8862 23.8348 10.2102C21.5964 6.86373 18.1225 3.68988 14.0802 2.03507Z" fill="#1F030A"/>
<path d="M17.5796 10.9363C17.5845 7.59504 15.8249 6.13953 16.3248 5.5967C17.226 4.6181 24.8724 12.1287 21.7327 13.6318C18.9837 14.9478 17.5769 12.7812 17.5796 10.9363Z" fill="#B22143"/>
<path d="M19.1501 17.0934C18.057 16.9188 15.914 13.9607 16.3216 11.4102C16.5529 9.96262 15.2033 7.42228 13.8825 5.40753C14.7404 7.65047 15.1988 10.2883 14.02 11.7898C13.5083 12.4417 12.5599 13.1492 11.4407 13.9841L11.4405 13.9843C7.42954 16.9762 1.21363 21.613 4.92906 31.2621C6.01437 34.0807 7.67161 36.1513 9.59504 37.5947C10.1412 38.0045 10.7089 38.3638 11.291 38.6752C8.80059 35.9859 8.14192 32.8005 8.45606 32.5729C8.87864 32.2668 10.2196 33.2284 11.677 33.4613C12.7701 33.6359 15.3976 30.4438 16.5001 29.0008C15.5967 29.9774 12.8133 31.0273 12.0846 30.9108C11.3559 30.7944 7.7555 27.6035 8.10483 25.4173C8.45416 23.2312 11.091 18.4213 12.7231 17.5611C14.3552 16.7009 16.731 18.2015 18.9172 18.5509C20.6661 18.8303 22.706 16.6652 23.5073 15.5477C22.6039 16.5243 20.2431 17.2681 19.1501 17.0934Z" fill="#530D1D"/>
<path d="M19.4557 17.5162C21.2046 17.7957 23.4874 15.6694 24.4102 14.5713C23.565 15.1836 21.146 16.2917 19.6886 16.0588C18.2311 15.8259 16.0882 12.8678 15.9717 13.5966C15.8553 14.3253 17.2695 17.1669 19.4557 17.5162Z" fill="#FFC8D5"/>
<path d="M19.3308 34.0007C15.0257 33.3233 15.0004 29.4431 16.1951 28.5776C16.6569 28.243 18.3525 26.1824 19.592 25.4604C19.0343 25.9608 18.5654 26.5667 18.2514 27.4116C17.2961 29.9819 18.1126 32.6367 19.3308 34.0007Z" fill="#530D1D"/>
<path d="M11.9681 31.6394C13.717 31.9189 16.0775 29.3068 17.0391 27.9658C15.9316 28.6607 13.367 30.3683 12.201 30.182C10.7436 29.9491 8.60064 26.9911 8.54242 27.3554C8.4842 27.7198 9.78199 31.2901 11.9681 31.6394Z" fill="#FFC8D5"/>
</svg>
