<svg width="24" height="25" viewBox="0 0 24 25" fill="none" xmlns="http://www.w3.org/2000/svg">
<g filter="url(#filter0_d_636_10)">
<path d="M10.911 6.16237C11.3976 4.84746 13.2573 4.84746 13.7439 6.16236L14.7856 8.97748C14.9385 9.39088 15.2645 9.71682 15.6779 9.86979L18.493 10.9115C19.8079 11.398 19.8079 13.2578 18.493 13.7444L15.6779 14.7861C15.2645 14.939 14.9385 15.265 14.7856 15.6784L13.7439 18.4935C13.2573 19.8084 11.3976 19.8084 10.911 18.4935L9.86931 15.6784C9.71633 15.265 9.39039 14.939 8.97699 14.7861L6.16188 13.7444C4.84697 13.2578 4.84697 11.398 6.16188 10.9115L8.97699 9.8698C9.39039 9.71682 9.71633 9.39088 9.86931 8.97748L10.911 6.16237Z" fill="white"/>
</g>
<defs>
<filter id="filter0_d_636_10" x="0.644849" y="0.645337" width="23.3646" height="23.3651" filterUnits="userSpaceOnUse" color-interpolation-filters="sRGB">
<feFlood flood-opacity="0" result="BackgroundImageFix"/>
<feColorMatrix in="SourceAlpha" type="matrix" values="0 0 0 0 0 0 0 0 0 0 0 0 0 0 0 0 0 0 127 0" result="hardAlpha"/>
<feMorphology radius="1.51031" operator="dilate" in="SourceAlpha" result="effect1_dropShadow_636_10"/>
<feOffset/>
<feGaussianBlur stdDeviation="1.51031"/>
<feComposite in2="hardAlpha" operator="out"/>
<feColorMatrix type="matrix" values="0 0 0 0 1 0 0 0 0 1 0 0 0 0 1 0 0 0 1 0"/>
<feBlend mode="normal" in2="BackgroundImageFix" result="effect1_dropShadow_636_10"/>
<feBlend mode="normal" in="SourceGraphic" in2="effect1_dropShadow_636_10" result="shape"/>
</filter>
</defs>
</svg>
